<svg xmlns="http://www.w3.org/2000/svg" width="175" height="120" viewBox="0 0 175 120">
    <g fill="none" fill-rule="evenodd">
        <path fill="none" d="M0 0h175v120H0z" opacity=".494"/>
        <g fill-rule="nonzero">
            <g fill="#231F20">
                <path d="M92.774 64.067l-5.301-17.784a1.78 1.78 0 0 0-.662-.985 1.835 1.835 0 0 0-1.141-.376h-4.904c-.429 0-.81.129-1.14.376a1.674 1.674 0 0 0-.63.985L73.67 64.067h5.41l1.15-4.547h5.973l1.162 4.547h5.409zm-11.56-8.322l1.246-4.912c.13-.63.261-1.297.389-1.997h.764c.037.371.158 1.034.367 1.997l1.242 4.912h-4.007zM100.603 54.798c.071-.775.514-1.16 1.32-1.16h1.216v10.43h5.099V50.276h-8.456c-2.366 0-3.648 1.187-3.857 3.552-.209 2.625-.45 4.43-.73 5.412-.042.15-.092.28-.141.395a.861.861 0 0 1-.254.313c-.119.077-.207.146-.273.192-.06.046-.188.09-.365.14a8.424 8.424 0 0 1-.378.094 3.962 3.962 0 0 1-.463.074c-.235.02-.4.05-.497.066l.484 3.553c4.313.598 5.938-.454 6.45-3.47.24-1.128.526-3.057.845-5.8zM118.29 64.23c2.166 0 3.705-.343 4.636-1.026.931-.68 1.391-1.914 1.391-3.684 0-1.817-.487-3.053-1.475-3.722-.987-.666-2.789-1-5.419-1h-1.578v-4.521h-4.906v13.79h.145c1.687.11 4.093.163 7.207.163zm-2.445-6.492h1.578c.709 0 1.185.104 1.417.312.239.196.352.628.352 1.276s-.113 1.07-.352 1.27c-.233.206-.708.309-1.417.309h-1.578v-3.167zM127.48 50.861c-.868.605-1.298 1.784-1.298 3.524 0 2.068 1.013 3.307 3.047 3.714v.11c-1.523.153-2.418.65-2.68 1.503l-1.1 4.355h5.243l.869-3.693c.057-.311.176-.524.353-.635.176-.11.498-.168.945-.168h1.861v4.497h4.96V50.171c-1.339-.149-3.695-.227-7.077-.227-2.551 0-4.257.305-5.123.917zm7.24 2.635v2.996h-2.004c-.656 0-1.09-.106-1.28-.333-.199-.224-.295-.684-.295-1.388 0-.518.096-.858.295-1.02.19-.174.624-.256 1.28-.256h2.004zM147.76 58.49h4.288v5.577h5.016v-13.79h-5.016v4.855h-4.287v-4.855h-5.04v13.79h5.04zM166.757 64.4c2.43 0 4.37-.358 5.797-1.056l-.452-3.19c-1.296.144-2.77.22-4.421.22-1.068 0-1.806-.22-2.216-.662-.398-.447-.599-1.297-.599-2.558 0-1.254.201-2.107.6-2.55.409-.443 1.148-.663 2.215-.663l4.14.022.538-3.13c-1.41-.632-3.265-.947-5.552-.947-2.666 0-4.55.549-5.647 1.64-1.1 1.087-1.65 2.972-1.65 5.627 0 2.667.543 4.537 1.622 5.62 1.074 1.09 2.952 1.627 5.625 1.627zM73.825 73.396h5.292v12.396h1.158V73.396h5.295v-.972H73.825zM97.43 78.764c.468-.6.69-1.514.653-2.734-.04-2.624-1.858-3.938-5.471-3.938-2.139 0-3.657.525-4.564 1.566-.899 1.044-1.348 2.847-1.348 5.4 0 2.548.474 4.366 1.422 5.447.949 1.083 2.52 1.623 4.717 1.623 2.202 0 3.838-.188 4.932-.558l-.141-.776a31.359 31.359 0 0 1-4.653.339c-1.758 0-3.039-.409-3.827-1.209-.786-.809-1.218-2.222-1.295-4.258h7.236c1.092-.001 1.874-.299 2.34-.902zm-9.576-.014c.019-2.107.385-3.585 1.114-4.408.717-.84 1.955-1.251 3.702-1.251 1.448 0 2.517.237 3.214.708.694.468 1.05 1.235 1.069 2.284.032 1.78-.64 2.667-2.029 2.667h-7.07zM104.107 73.076c-.469.436-.76 1.105-.871 2.008-.02.134-.08.652-.187 1.573a85.394 85.394 0 0 1-.263 2.188 20.894 20.894 0 0 1-.414 2.028c-.195.8-.414 1.45-.66 1.952-.47 1.038-1.286 1.642-2.451 2.084l.146.883c1.493-.294 2.595-1.057 3.29-2.578.17-.353.324-.753.464-1.206.142-.457.255-.843.345-1.18.082-.332.172-.82.28-1.467.097-.647.163-1.092.194-1.321.03-.23.088-.733.17-1.516.086-.775.137-1.207.155-1.297.076-.653.27-1.123.583-1.43.306-.307.78-.454 1.421-.454h3.97v12.45h1.097V72.423h-5.153c-.943 0-1.65.218-2.116.652zM125.07 78.764c.467-.6.684-1.514.648-2.734-.037-2.624-1.866-3.938-5.47-3.938-2.137 0-3.66.525-4.561 1.566-.901 1.044-1.356 2.847-1.356 5.4 0 2.548.478 4.366 1.423 5.447.95 1.083 2.52 1.623 4.718 1.623 2.2 0 3.845-.188 4.928-.558l-.136-.776c-1.502.226-3.05.339-4.647.339-1.764 0-3.046-.409-3.833-1.209-.788-.809-1.221-2.222-1.292-4.258h7.235c1.093-.001 1.867-.299 2.342-.902zm-9.578-.014c.018-2.107.389-3.585 1.108-4.408.724-.84 1.96-1.251 3.708-1.251 1.445 0 2.518.237 3.212.708.694.468 1.054 1.235 1.073 2.284.032 1.78-.641 2.667-2.033 2.667h-7.068zM138.057 82.811a16.716 16.716 0 0 0-1.159-1.93c-.466-.678-.973-1.176-1.52-1.496a4.281 4.281 0 0 0-1.86-.554v-.023a3.87 3.87 0 0 0 1.536-.504c.48-.28.873-.575 1.186-.885.306-.314.658-.802 1.05-1.468.396-.667.687-1.204.878-1.608.187-.412.484-1.05.876-1.917h-1.185c-.044.069-.087.176-.14.305-.364.74-.643 1.325-.86 1.765-.22.43-.507.929-.874 1.493-.366.563-.72.995-1.056 1.291-.339.294-.752.553-1.237.778a3.866 3.866 0 0 1-1.585.33h-2.584c.051-.534.08-1.075.08-1.61v-4.353h-1.126v13.368h1.125V80.8c0-.5-.028-1.009-.08-1.524h2.81c1.49.056 2.708.79 3.669 2.19.433.615 1.173 2.056 2.223 4.327h1.215a5.961 5.961 0 0 0-.177-.38 76.13 76.13 0 0 0-1.205-2.602zM147.634 72.09c-2.235 0-3.812.53-4.718 1.58-.911 1.054-1.366 2.867-1.366 5.44 0 2.59.455 4.406 1.366 5.451.906 1.045 2.483 1.565 4.718 1.565 2.219 0 3.777-.52 4.674-1.565.901-1.045 1.357-2.862 1.357-5.451 0-2.573-.456-4.386-1.357-5.44-.897-1.05-2.455-1.58-4.674-1.58zm3.803 11.75c-.71.878-1.982 1.32-3.803 1.32-1.817 0-3.097-.442-3.82-1.32-.72-.878-1.086-2.454-1.086-4.73 0-2.278.366-3.85 1.086-4.713.723-.873 2.003-1.307 3.82-1.307 1.821 0 3.093.434 3.803 1.307.717.864 1.067 2.435 1.067 4.713 0 2.276-.35 3.852-1.067 4.73zM171.126 72.424h-1.377c-.261 0-.445.131-.535.389l-3.864 9.016c-.11.22-.365.841-.758 1.853h-.536a34.52 34.52 0 0 0-.76-1.853l-3.863-9.016c-.09-.257-.263-.389-.503-.389h-1.41c-.357 0-.532.163-.532.496l-.676 12.872h1.067l.648-12.45h.537l4.646 10.79c.116.255.273.385.482.385h1.238c.224 0 .399-.13.503-.385l4.654-10.79h.529l.655 12.45h1.072l-.677-12.872c0-.333-.183-.496-.54-.496z"/>
            </g>
            <path fill="#6C3F97" d="M33.51 74.188l11.099-28.47h.009a3.003 3.003 0 0 1 2.813-1.92l.019.001a4.235 4.235 0 0 0-3.95-2.664H23.526c-.965 0-1.855.32-2.565.857l12.55 32.196z"/>
            <path fill="#ED3035" d="M61.624 80.151h.002l-.006-.009c-.012-.028-.022-.061-.035-.089L47.45 43.8l-.02-.002c-1.288 0-2.383.799-2.812 1.921h-.01L33.51 74.19l2.298 5.888a3.047 3.047 0 0 0 2.856 1.955h21.624c.788 0 1.425-.627 1.425-1.404 0-.169-.034-.326-.09-.477z"/>
            <path fill="#FCB813" d="M20.96 41.993a4.196 4.196 0 0 0-1.412 1.872l-.007-.005L2.345 87.977l.005.003c-.065.162-.108.34-.108.528 0 .777.641 1.406 1.43 1.406h21.621a3.05 3.05 0 0 0 2.913-2.115l5.305-13.61-12.55-32.196z"/>
        </g>
    </g>
</svg>
