<svg xmlns="http://www.w3.org/2000/svg" xmlns:xlink="http://www.w3.org/1999/xlink" width="66" height="60" viewBox="0 0 66 60">
    <defs>
        <path id="a" d="M31.5 12v2h-1v-2h-3a.5.5 0 1 1 0-1h7a.5.5 0 1 1 0 1h-3zm2.158 16.526c.22.43.342.932.342 1.485C34 31.753 32.765 33 31.01 33c-.35 0-.68-.05-.986-.144l-1.606 1.915a1 1 0 0 1-1.532-1.285l1.55-1.849A3.098 3.098 0 0 1 28 30.011C28 28.247 29.256 27 31.01 27c.416 0 .802.07 1.15.2l4.496-5.358 1.91-.748-.378 2.033-4.53 5.4zM31 46c-8.837 0-16-7.163-16-16s7.163-16 16-16 16 7.163 16 16-7.163 16-16 16zm0-1c8.284 0 15-6.716 15-15 0-8.284-6.716-15-15-15-8.284 0-15 6.716-15 15 0 8.284 6.716 15 15 15zm.007-13c1.17 0 1.993-.832 1.993-1.993C33 28.832 32.177 28 31.007 28c-1.17 0-2.007.832-2.007 2.007 0 1.161.838 1.993 2.007 1.993z"/>
    </defs>
    <g fill="none" fill-rule="evenodd">
        <path d="M0 0h66v60H0z"/>
        <use fill="#7DD297" xlink:href="#a"/>
    </g>
</svg>
