<?xml version="1.0" encoding="UTF-8"?>
<svg width="59px" height="59px" viewBox="0 0 59 59" version="1.1" xmlns="http://www.w3.org/2000/svg" xmlns:xlink="http://www.w3.org/1999/xlink">
    <!-- Generator: Sketch 48.2 (47327) - http://www.bohemiancoding.com/sketch -->
    <title>auto_payments</title>
    <desc>Created with Sketch.</desc>
    <defs>
        <filter x="-24.5%" y="-13.8%" width="148.9%" height="148.9%" filterUnits="objectBoundingBox" id="filter-1">
            <feOffset dx="0" dy="5" in="SourceAlpha" result="shadowOffsetOuter1"></feOffset>
            <feGaussianBlur stdDeviation="3" in="shadowOffsetOuter1" result="shadowBlurOuter1"></feGaussianBlur>
            <feColorMatrix values="0 0 0 0 0   0 0 0 0 0   0 0 0 0 0  0 0 0 0.129500679 0" type="matrix" in="shadowBlurOuter1" result="shadowMatrixOuter1"></feColorMatrix>
            <feMerge>
                <feMergeNode in="shadowMatrixOuter1"></feMergeNode>
                <feMergeNode in="SourceGraphic"></feMergeNode>
            </feMerge>
        </filter>
        <rect id="path-2" x="0" y="2.50666667" width="20.68" height="17.5466667" rx="1.88999992"></rect>
        <rect id="path-3" x="5.64" y="0" width="1.88" height="4.38666667" rx="0.94"></rect>
        <rect id="path-4" x="13.16" y="0" width="1.88" height="4.38666667" rx="0.94"></rect>
    </defs>
    <g id="новая_главная" stroke="none" stroke-width="1" fill="none" fill-rule="evenodd" transform="translate(-455.000000, -970.000000)">
        <g id="Group-16" transform="translate(162.000000, 939.000000)">
            <g id="auto_payments" filter="url(#filter-1)" transform="translate(299.000000, 32.000000)">
                <circle id="Oval-3-Copy-2" fill="#F2EEE8" cx="23.5" cy="23.5" r="23.5"></circle>
                <g id="Group-14" transform="translate(8.146667, 11.906667)">
                    <g id="Group-13" transform="translate(5.013333, 0.000000)">
                        <g id="Group-9">
                            <g id="Rectangle-14">
                                <use fill="#F2EEE8" fill-rule="evenodd" xlink:href="#path-2"></use>
                                <rect stroke="#79CDD5" stroke-width="1.25999995" x="0.629999973" y="3.13666664" width="19.4200001" height="16.2866667" rx="1.88999992"></rect>
                            </g>
                            <path d="M1.88999992,2.50666667 L18.7900001,2.50666667 C19.8338182,2.50666667 20.68,3.35284845 20.68,4.39666658 L20.68,6.26666667 L0,6.26666667 L0,4.39666658 C-1.27830853e-16,3.35284845 0.846181786,2.50666667 1.88999992,2.50666667 Z" id="Rectangle-14-Copy" fill="#79CDD5"></path>
                            <g id="Rectangle-15">
                                <use fill="#79CDD5" fill-rule="evenodd" xlink:href="#path-3"></use>
                                <rect stroke="#F2EEE8" stroke-width="0.629999973" x="5.32500001" y="-0.314999986" width="2.50999997" height="5.01666664" rx="1.25499999"></rect>
                            </g>
                            <g id="Rectangle-15-Copy">
                                <use fill="#79CDD5" fill-rule="evenodd" xlink:href="#path-4"></use>
                                <rect stroke="#F2EEE8" stroke-width="0.629999973" x="12.845" y="-0.314999986" width="2.50999997" height="5.01666664" rx="1.25499999"></rect>
                            </g>
                        </g>
                        <g id="Group-8" transform="translate(3.760000, 8.773333)">
                            <path d="M0.807623803,7.83933342e-17 L2.32570953,3.01412924e-16 C2.60653792,3.99868739e-19 2.70837308,0.0292400662 2.81103974,0.084146798 C2.91370641,0.13905353 2.9942798,0.219626927 3.04918654,0.322293589 C3.10409327,0.424960252 3.13333333,0.526795412 3.13333333,0.807623803 L3.13333333,2.32570953 C3.13333333,2.60653792 3.10409327,2.70837308 3.04918654,2.81103974 C2.9942798,2.91370641 2.91370641,2.9942798 2.81103974,3.04918654 C2.70837308,3.10409327 2.60653792,3.13333333 2.32570953,3.13333333 L0.807623803,3.13333333 C0.526795412,3.13333333 0.424960252,3.10409327 0.322293589,3.04918654 C0.219626927,2.9942798 0.13905353,2.91370641 0.084146798,2.81103974 C0.0292400662,2.70837308 1.26389135e-17,2.60653792 -2.17526455e-17,2.32570953 L2.17526455e-17,0.807623803 C-1.26389135e-17,0.526795412 0.0292400662,0.424960252 0.084146798,0.322293589 C0.13905353,0.219626927 0.219626927,0.13905353 0.322293589,0.084146798 C0.424960252,0.0292400662 0.526795412,1.29980673e-16 0.807623803,7.83933342e-17 Z M5.82095714,7.83933342e-17 L7.33904286,3.01412924e-16 C7.61987125,3.99868739e-19 7.72170642,0.0292400662 7.82437308,0.084146798 C7.92703974,0.13905353 8.00761314,0.219626927 8.06251987,0.322293589 C8.1174266,0.424960252 8.14666667,0.526795412 8.14666667,0.807623803 L8.14666667,2.32570953 C8.14666667,2.60653792 8.1174266,2.70837308 8.06251987,2.81103974 C8.00761314,2.91370641 7.92703974,2.9942798 7.82437308,3.04918654 C7.72170642,3.10409327 7.61987125,3.13333333 7.33904286,3.13333333 L5.82095714,3.13333333 C5.54012875,3.13333333 5.43829358,3.10409327 5.33562692,3.04918654 C5.23296026,2.9942798 5.15238686,2.91370641 5.09748013,2.81103974 C5.0425734,2.70837308 5.01333333,2.60653792 5.01333333,2.32570953 L5.01333333,0.807623803 C5.01333333,0.526795412 5.0425734,0.424960252 5.09748013,0.322293589 C5.15238686,0.219626927 5.23296026,0.13905353 5.33562692,0.084146798 C5.43829358,0.0292400662 5.54012875,1.29980673e-16 5.82095714,7.83933342e-17 Z M5.82095714,4.38666667 L7.33904286,4.38666667 C7.61987125,4.38666667 7.72170642,4.41590673 7.82437308,4.47081346 C7.92703974,4.5257202 8.00761314,4.60629359 8.06251987,4.70896026 C8.1174266,4.81162692 8.14666667,4.91346208 8.14666667,5.19429047 L8.14666667,6.7123762 C8.14666667,6.99320459 8.1174266,7.09503975 8.06251987,7.19770641 C8.00761314,7.30037307 7.92703974,7.38094647 7.82437308,7.4358532 C7.72170642,7.49075993 7.61987125,7.52 7.33904286,7.52 L5.82095714,7.52 C5.54012875,7.52 5.43829358,7.49075993 5.33562692,7.4358532 C5.23296026,7.38094647 5.15238686,7.30037307 5.09748013,7.19770641 C5.0425734,7.09503975 5.01333333,6.99320459 5.01333333,6.7123762 L5.01333333,5.19429047 C5.01333333,4.91346208 5.0425734,4.81162692 5.09748013,4.70896026 C5.15238686,4.60629359 5.23296026,4.5257202 5.33562692,4.47081346 C5.43829358,4.41590673 5.54012875,4.38666667 5.82095714,4.38666667 Z M10.8342905,4.38666667 L12.3523762,4.38666667 C12.6332046,4.38666667 12.7350397,4.41590673 12.8377064,4.47081346 C12.9403731,4.5257202 13.0209465,4.60629359 13.0758532,4.70896026 C13.1307599,4.81162692 13.16,4.91346208 13.16,5.19429047 L13.16,6.7123762 C13.16,6.99320459 13.1307599,7.09503975 13.0758532,7.19770641 C13.0209465,7.30037307 12.9403731,7.38094647 12.8377064,7.4358532 C12.7350397,7.49075993 12.6332046,7.52 12.3523762,7.52 L10.8342905,7.52 C10.5534621,7.52 10.4516269,7.49075993 10.3489603,7.4358532 C10.2462936,7.38094647 10.1657202,7.30037307 10.1108135,7.19770641 C10.0559067,7.09503975 10.0266667,6.99320459 10.0266667,6.7123762 L10.0266667,5.19429047 C10.0266667,4.91346208 10.0559067,4.81162692 10.1108135,4.70896026 C10.1657202,4.60629359 10.2462936,4.5257202 10.3489603,4.47081346 C10.4516269,4.41590673 10.5534621,4.38666667 10.8342905,4.38666667 Z" id="Combined-Shape" fill="#79CDD5"></path>
                            <rect id="Rectangle-16-Copy-2" fill="#F75F52" x="10.0266667" y="0" width="3.13333333" height="3.13333333" rx="0.629999973"></rect>
                        </g>
                    </g>
                    <g id="Group-7" transform="translate(0.000000, 12.533333)">
                        <circle id="Oval-5" fill="#F75F52" cx="6.89333333" cy="6.89333333" r="6.89333333"></circle>
                        <path d="M3.76,7.26848064 L4.41262619,7.26848064 L4.41262619,8.39732951 L3.76,8.39732951 L3.76,9.4 L4.41262619,9.4 L4.41262619,11.28 L5.48948817,11.28 L5.48948817,9.4 L9.63500385,9.4 L9.63500385,8.39732951 L5.48948817,8.39732951 L5.48948817,7.26848064 L7.03412389,7.26848064 C8.14247306,7.2845955 8.80748257,7.05764723 9.33949018,6.60375068 C9.77174636,6.23495974 10.0266667,5.70541377 10.0266667,5.1285869 C10.0266667,4.40046119 9.67199493,3.88982758 9.09565336,3.54940517 C8.60797972,3.25626365 7.99838767,3.13333333 7.07845785,3.13333333 L4.41262619,3.13333333 L4.41262619,6.23469382 L3.76,6.23469382 L3.76,7.26848064 Z M8.39335526,5.96245484 C7.97827911,6.22237839 7.41591787,6.30360449 6.39831183,6.30360449 L5.55476997,6.30360449 L5.55476997,4.0292735 L6.58576557,4.0292735 C7.37574922,4.0292735 7.85777313,4.08613178 8.25945973,4.24858399 C8.71470454,4.42728143 8.92893739,4.72781802 8.92893739,5.11770333 C8.92893739,5.4750982 8.76826275,5.73502175 8.39335526,5.96245484 Z" id="ic_rub_large" fill="#F2EEE8"></path>
                    </g>
                </g>
            </g>
        </g>
    </g>
</svg>