<svg xmlns="http://www.w3.org/2000/svg" width="66" height="60" viewBox="0 0 66 60">
    <g fill="none" fill-rule="evenodd">
        <path d="M0 0h66v60H0z"/>
        <g transform="translate(15 17)">
            <path fill="none" stroke="#4FC7ED" d="M15.264 21.875l.096-.375h21.076c.737 0 1.017-.054 1.305-.208.239-.128.423-.312.551-.551.154-.288.208-.568.208-1.305V2.564c0-.737-.054-1.017-.208-1.305a1.317 1.317 0 0 0-.551-.551C37.453.554 37.173.5 36.436.5H7.564c-.737 0-1.017.054-1.305.208a1.317 1.317 0 0 0-.551.551c-.154.288-.208.568-.208 1.305v10.355l-.312.126a7.502 7.502 0 1 0 10.076 8.83zm21.454-.375H15.372l.07-.562a7.5 7.5 0 0 0-9.317-8.202l-.625.161V2.282c0-.482.05-.739.193-1.006.133-.25.333-.45.583-.583C6.543.55 6.8.5 7.282.5h29.436c.482 0 .739.05 1.006.193.25.133.45.333.583.583.143.267.193.524.193 1.006v17.436c0 .482-.05.739-.193 1.006-.133.25-.333.45-.583.583-.267.143-.524.193-1.006.193zM8 27.5a7.5 7.5 0 1 1 0-15 7.5 7.5 0 0 1 0 15z"/>
            <path fill="#4FC7ED" d="M5 5h34v3H5z"/>
            <rect width="5" height="1" x="31" y="18" fill="#4FC7ED" rx=".5"/>
            <path fill="#4FC7ED" d="M7.221 21.681l4.167-4.167.707.707-4.874 4.874-2.921-2.92.707-.708z"/>
        </g>
    </g>
</svg>
