<svg xmlns="http://www.w3.org/2000/svg" width="66" height="60" viewBox="0 0 66 60">
    <g fill="none" fill-rule="evenodd">
        <path d="M0 0h66v60H0z"/>
        <path fill="#FFF" fill-opacity="0" stroke="#7DD297" d="M42.796 44.053l.3.3.366-.365-.682-.682-.666.666.381.382.3-.3zm-5.043-.747l-.666.666.381.382.3-.3.301.3.366-.366-.682-.682zm-5.002-.025l-.691.691.381.382.326-.326.326.326.365-.366-.707-.707zm-5.002.025l-.665.666.381.382.3-.3.3.3.366-.366-.682-.682zm-5.027 0l-.665.666.381.382.3-.3.3.3.366-.366-.682-.682zm-5.22.194l-.002.002V43.5H17l.25.25-.22.222.381.382.354-.354v-.5h-.263zm30.998 0v.5l.5-.5h-.5zm-.5 0h-.23v.5l.353.354.365-.366L48 43.5z"/>
        <path fill="#7DD297" d="M23 28h12v1H23v-1zm0 4h12v1H23v-1zm0-8h12v1H23v-1zm16 4h4v1h-4v-1zm0 4h4v1h-4v-1zm0-8h4v1h-4v-1z"/>
    </g>
</svg>
