<?xml version="1.0" encoding="UTF-8"?>
<svg width="52px" height="60px" viewBox="0 0 52 60" version="1.1" xmlns="http://www.w3.org/2000/svg" xmlns:xlink="http://www.w3.org/1999/xlink">
    <!-- Generator: Sketch 50.2 (55047) - http://www.bohemiancoding.com/sketch -->
    <title>check-cart</title>
    <desc>Created with Sketch.</desc>
    <defs></defs>
    <g id="Page-2" stroke="none" stroke-width="1" fill="none" fill-rule="evenodd">
        <g id="кассы-360" transform="translate(-30.000000, -1482.000000)">
            <g id="Group-13" transform="translate(20.000000, 1472.000000)">
                <g id="check-cart" transform="translate(10.000000, 10.000000)">
                    <rect id="Rectangle-4" fill="#FFFFFF" x="0" y="0" width="52" height="60" rx="6"></rect>
                    <path d="M7.5,10 L28.5,10 C29.3284271,10 30,10.6715729 30,11.5 C30,12.3284271 29.3284271,13 28.5,13 L7.5,13 C6.67157288,13 6,12.3284271 6,11.5 C6,10.6715729 6.67157288,10 7.5,10 Z M37.5,10 L44.5,10 C45.3284271,10 46,10.6715729 46,11.5 C46,12.3284271 45.3284271,13 44.5,13 L37.5,13 C36.6715729,13 36,12.3284271 36,11.5 C36,10.6715729 36.6715729,10 37.5,10 Z M7.5,19 L28.5,19 C29.3284271,19 30,19.6715729 30,20.5 C30,21.3284271 29.3284271,22 28.5,22 L7.5,22 C6.67157288,22 6,21.3284271 6,20.5 C6,19.6715729 6.67157288,19 7.5,19 Z M37.5,19 L44.5,19 C45.3284271,19 46,19.6715729 46,20.5 C46,21.3284271 45.3284271,22 44.5,22 L37.5,22 C36.6715729,22 36,21.3284271 36,20.5 C36,19.6715729 36.6715729,19 37.5,19 Z M7.5,28 L28.5,28 C29.3284271,28 30,28.6715729 30,29.5 C30,30.3284271 29.3284271,31 28.5,31 L7.5,31 C6.67157288,31 6,30.3284271 6,29.5 C6,28.6715729 6.67157288,28 7.5,28 Z M37.5,28 L44.5,28 C45.3284271,28 46,28.6715729 46,29.5 C46,30.3284271 45.3284271,31 44.5,31 L37.5,31 C36.6715729,31 36,30.3284271 36,29.5 C36,28.6715729 36.6715729,28 37.5,28 Z M7.5,49 L28.5,49 C29.3284271,49 30,49.6715729 30,50.5 C30,51.3284271 29.3284271,52 28.5,52 L7.5,52 C6.67157288,52 6,51.3284271 6,50.5 C6,49.6715729 6.67157288,49 7.5,49 Z" id="Combined-Shape" fill="#D8D8D8"></path>
                    <rect id="Rectangle-5-Copy-6" fill="#FE7D72" x="36" y="49" width="10" height="3" rx="1.5"></rect>
                </g>
            </g>
        </g>
    </g>
</svg>