<svg xmlns="http://www.w3.org/2000/svg" width="66" height="60" viewBox="0 0 66 60">
    <g fill="none" fill-rule="evenodd">
        <path d="M0 0h66v60H0z"/>
        <path fill="none" stroke="#7DD297" d="M42.794 43.295l2.498-2.502L48.01 43.5h.491V17.991c0-.818-.675-1.491-1.502-1.491H19.002c-.835 0-1.502.666-1.502 1.491V43.5h.01l2.697-2.706 2.526 2.5 2.501-2.5 2.523 2.5 2.506-2.5 2.488 2.487 2.487-2.486 2.524 2.5 2.502-2.5 2.53 2.5zM17.5 43.51v.08l-.136.056.136-.136z"/>
        <path fill="#7DD297" d="M23 28h12v1H23v-1zm0 4h12v1H23v-1zm0-8h12v1H23v-1zm16 4h4v1h-4v-1zm0 4h4v1h-4v-1zm0-8h4v1h-4v-1z"/>
    </g>
</svg>
