<svg xmlns="http://www.w3.org/2000/svg" width="66" height="60" viewBox="0 0 66 60">
    <g fill="none" fill-rule="evenodd">
        <path d="M0 0h66v60H0z"/>
        <path fill="#4FC7ED" d="M28.964 30.672l-6.93 6.93v5.282h-1v-5h-5v-1h5.304l6.92-6.92h-9.816L14.707 33.7 14 32.993l3.536-3.536L14 25.922l.707-.708 3.75 3.75h9.8l-6.94-6.94h-5.282v-1h5v-5h1v5.304l6.93 6.93v-9.8l-3.75-3.75.707-.708 3.535 3.536L32.993 14l.707.707-3.736 3.735v9.815l6.93-6.93v-5.303h1v5h5v1h-5.282l-6.94 6.94h9.785l3.75-3.75.707.708-3.535 3.535 3.535 3.536-.707.707-3.735-3.736h-9.8l6.919 6.92h5.303v1h-5v5h-1V37.6l-6.93-6.93v9.8l3.736 3.736-.707.707-3.536-3.535-3.535 3.535-.708-.707 3.75-3.75v-9.785z"/>
    </g>
</svg>
