<?xml version="1.0" encoding="UTF-8" standalone="no"?>
<svg width="317px" height="130px" viewBox="0 0 317 130" version="1.1" xmlns="http://www.w3.org/2000/svg" xmlns:xlink="http://www.w3.org/1999/xlink" xmlns:sketch="http://www.bohemiancoding.com/sketch/ns" onload="init(evt)" >
    <!-- Generator: Sketch 3.2.2 (9983) - http://www.bohemiancoding.com/sketch -->
    <title>Slice 1</title>
    <desc>Created with Sketch.</desc>
    <defs></defs>
    <g>
        <path d="M251.793,60.978 L252.555,64.793 C253.743,65.222 254.886,65.732 255.976,66.317 L259.322,64.335 L262.599,66.72 L261.739,70.532 C262.632,71.397 263.459,72.323 264.216,73.302 L268.112,72.849 L270.136,76.359 L267.778,79.522 C268.234,80.655 268.61,81.824 268.903,83.02 L272.679,84.2 L273.1,88.231 L269.616,90.185 C269.568,91.373 269.436,92.573 269.22,93.774 L272.236,96.428 L270.981,100.282 L266.953,100.654 C266.424,101.726 265.823,102.752 265.161,103.726 L266.855,107.417 L264.141,110.428 L260.259,109.112 C259.36,109.857 258.412,110.539 257.424,111.155 L257.47,115.269 L253.767,116.915 L250.732,114.114 C249.625,114.426 248.493,114.666 247.342,114.829 L245.703,118.624 L241.649,118.621 L240.009,114.809 C239.444,114.727 238.879,114.628 238.312,114.507 C237.747,114.386 237.19,114.246 236.64,114.091 L233.588,116.903 L229.886,115.252 L229.938,111.12 C228.953,110.502 228.018,109.82 227.134,109.083 L223.221,110.404 L220.51,107.389 L222.231,103.653 C221.58,102.687 220.993,101.677 220.475,100.632 L216.395,100.249 L215.143,96.394 L218.196,93.715 C217.989,92.555 217.859,91.374 217.813,90.18 L214.287,88.198 L214.713,84.168 L218.549,82.974 C218.84,81.788 219.209,80.64 219.65,79.534 L217.265,76.329 L219.293,72.82 L223.223,73.284 C223.978,72.31 224.799,71.398 225.676,70.548 L224.812,66.698 L228.093,64.318 L231.465,66.321 C232.556,65.735 233.688,65.228 234.856,64.801 L235.625,60.969 L239.59,60.129 L241.837,63.304 C243.07,63.215 244.321,63.215 245.582,63.307 L247.833,60.134 L251.793,60.978 L251.793,60.978 Z M239.449,109.168 C250.501,111.523 261.369,104.475 263.723,93.423 C266.079,82.372 259.031,71.504 247.979,69.148 C236.928,66.793 226.061,73.842 223.705,84.893 C221.349,95.943 228.397,106.812 239.449,109.168 L239.449,109.168 Z" id="Circle-pc" class="Circle" fill="#48CECE" sketch:type="MSShapeGroup"></path>
    </g>
    <g>
        <path d="M98.297,47.092 L99.118,50.054 C100.598,50.515 101.999,51.131 103.308,51.88 L106.036,50.468 L109.179,52.975 L108.408,55.954 C109.44,57.079 110.349,58.31 111.119,59.627 L114.192,59.769 L115.661,63.511 L113.509,65.702 C113.839,67.173 114.014,68.694 114.019,70.244 L116.606,71.902 L116.008,75.877 L113.046,76.699 C112.584,78.178 111.968,79.579 111.22,80.888 L112.631,83.616 L110.125,86.759 L107.145,85.989 C106.021,87.021 104.791,87.929 103.473,88.699 L103.33,91.773 L99.588,93.242 L97.397,91.09 C95.926,91.419 94.406,91.594 92.855,91.6 L91.197,94.188 L87.222,93.588 L86.4,90.626 C84.92,90.164 83.519,89.549 82.211,88.8 L79.482,90.211 L76.339,87.705 L77.11,84.726 C76.078,83.602 75.17,82.37 74.4,81.053 L71.326,80.911 L69.857,77.169 L72.009,74.978 C71.68,73.506 71.505,71.986 71.499,70.436 L68.911,68.778 L69.51,64.803 L72.472,63.981 C72.933,62.501 73.549,61.1 74.298,59.792 L72.887,57.063 L75.393,53.92 L78.373,54.691 C79.497,53.659 80.728,52.751 82.045,51.98 L82.187,48.906 L85.93,47.437 L88.121,49.589 C89.592,49.26 91.112,49.085 92.663,49.079 L94.321,46.491 L98.297,47.092 L98.297,47.092 Z M90.223,87.168 C99.517,88.569 108.186,82.171 109.587,72.877 C110.987,63.584 104.589,54.914 95.296,53.514 C86.003,52.113 77.333,58.511 75.932,67.804 C74.532,77.098 80.93,85.767 90.223,87.168 L90.223,87.168 Z" id="Circle-notebook" fill="#48CECE" sketch:type="MSShapeGroup"></path>
    </g>
    <g>
        <path d="M152.226,41.935 L152.988,45.75 C154.176,46.179 155.318,46.689 156.408,47.274 L159.755,45.291 L163.032,47.675 L162.171,51.487 C163.064,52.352 163.891,53.278 164.648,54.258 L168.544,53.804 L170.568,57.315 L168.21,60.478 C168.666,61.612 169.042,62.78 169.335,63.976 L173.111,65.156 L173.533,69.186 L170.049,71.141 C170,72.33 169.869,73.528 169.652,74.73 L172.668,77.384 L171.412,81.238 L167.385,81.61 C166.856,82.683 166.256,83.708 165.593,84.682 L167.287,88.374 L164.573,91.384 L160.691,90.07 C159.793,90.814 158.844,91.496 157.856,92.112 L157.903,96.226 L154.199,97.872 L151.165,95.071 C150.058,95.383 148.925,95.624 147.774,95.787 L146.135,99.581 L142.082,99.579 L140.442,95.768 C139.877,95.686 139.312,95.586 138.745,95.465 C138.178,95.344 137.622,95.204 137.073,95.049 L134.02,97.861 L130.318,96.211 L130.37,92.078 C129.385,91.46 128.45,90.778 127.565,90.041 L123.653,91.362 L120.943,88.347 L122.663,84.61 C122.011,83.645 121.424,82.635 120.907,81.589 L116.826,81.207 L115.575,77.352 L118.628,74.672 C118.42,73.512 118.291,72.332 118.245,71.136 L114.719,69.154 L115.145,65.123 L118.981,63.93 C119.272,62.743 119.641,61.596 120.081,60.49 L117.697,57.285 L119.726,53.776 L123.656,54.238 C124.41,53.266 125.231,52.353 126.109,51.503 L125.245,47.653 L128.526,45.273 L131.898,47.276 C132.988,46.691 134.122,46.182 135.289,45.756 L136.058,41.924 L140.023,41.084 L142.27,44.259 C143.504,44.17 144.755,44.17 146.015,44.261 L148.266,41.088 L152.226,41.935 L152.226,41.935 Z M139.881,90.125 C150.932,92.48 161.8,85.431 164.156,74.38 C166.511,63.329 159.463,52.46 148.412,50.105 C137.361,47.75 126.493,54.798 124.138,65.85 C121.781,76.9 128.83,87.769 139.881,90.125 L139.881,90.125 Z" id="Circle-phone" fill="#017CC0" sketch:type="MSShapeGroup"></path>
    </g>
    <g>
        <path d="M204.67,62.037 L204.697,65.049 C205.98,65.861 207.151,66.798 208.2,67.838 L211.139,67.193 L213.478,70.36 L211.995,72.985 C212.687,74.31 213.235,75.706 213.63,77.147 L216.504,78.06 L216.946,81.974 L214.354,83.502 C214.292,84.978 214.074,86.461 213.686,87.929 L215.715,90.155 L214.142,93.764 L211.13,93.791 C210.318,95.074 209.381,96.245 208.341,97.294 L208.986,100.232 L205.818,102.572 L203.193,101.089 C201.869,101.781 200.473,102.329 199.032,102.724 L198.119,105.598 L194.205,106.04 L192.678,103.448 C191.201,103.387 189.718,103.167 188.25,102.78 L186.025,104.809 L182.415,103.236 L182.388,100.224 C181.104,99.412 179.934,98.474 178.885,97.435 L175.946,98.081 L173.607,94.912 L175.09,92.287 C174.398,90.963 173.851,89.567 173.455,88.126 L170.581,87.213 L170.139,83.299 L172.732,81.771 C172.792,80.295 173.011,78.812 173.399,77.343 L171.37,75.119 L172.943,71.508 L175.955,71.481 C176.767,70.197 177.704,69.027 178.744,67.979 L178.099,65.04 L181.267,62.699 L183.892,64.184 C185.217,63.492 186.612,62.944 188.053,62.548 L188.967,59.675 L192.88,59.233 L194.407,61.824 C195.884,61.886 197.367,62.104 198.835,62.492 L201.06,60.463 L204.67,62.037 L204.67,62.037 Z M186.881,97.919 C195.321,101.598 205.146,97.738 208.825,89.298 C212.504,80.858 208.644,71.033 200.205,67.354 C191.764,63.675 181.939,67.535 178.261,75.975 C174.581,84.415 178.44,94.239 186.881,97.919 L186.881,97.919 Z" id="Circle-wifi" fill="#099CDB" sketch:type="MSShapeGroup"></path>
    </g>
    <g>
        <path d="M276.793,47.268 L277.375,50.215 C278.683,50.884 279.823,51.798 280.749,52.886 L283.817,52.705 L285.326,55.729 L283.235,58.199 C283.449,59.457 283.447,60.772 283.197,62.096 L285.455,64.611 L284.032,67.676 L280.437,67.57 C279.662,68.403 278.763,69.111 277.779,69.668 L277.168,73.315 L273.885,74.114 L271.606,71.076 C271.086,71.041 270.562,70.968 270.038,70.857 C269.514,70.745 269.007,70.597 268.517,70.418 L265.199,72.262 L262.527,70.193 L263.456,66.614 C262.784,65.703 262.252,64.692 261.884,63.615 L258.558,62.245 L258.509,58.866 L261.595,57.491 C261.907,56.181 262.442,54.979 263.151,53.918 L262.249,50.809 L264.86,48.664 L267.589,50.079 C268.878,49.464 270.292,49.094 271.759,49.017 L273.491,46.563 L276.793,47.268 L276.793,47.268 Z M270.598,68.226 C275.113,69.188 279.554,66.309 280.516,61.794 C281.479,57.278 278.599,52.838 274.083,51.876 C269.568,50.914 265.128,53.794 264.166,58.309 C263.203,62.824 266.084,67.264 270.598,68.226 L270.598,68.226 Z" id="Circle-cp" fill="#0FA0A8" sketch:type="MSShapeGroup"></path>
    </g>
    <g>
        <path d="M67.889,76.952 L68.416,79.628 C69.604,80.235 70.639,81.065 71.479,82.052 L74.265,81.888 L75.636,84.634 L73.736,86.876 C73.931,88.019 73.929,89.213 73.702,90.415 L75.752,92.697 L74.46,95.48 L71.196,95.383 C70.492,96.14 69.676,96.78 68.782,97.287 L68.227,100.598 L65.245,101.325 L63.177,98.567 C62.705,98.534 62.229,98.468 61.753,98.368 C61.277,98.266 60.816,98.132 60.372,97.969 L57.358,99.643 L54.932,97.765 L55.776,94.517 C55.165,93.69 54.683,92.771 54.348,91.793 L51.328,90.551 L51.284,87.482 L54.086,86.234 C54.369,85.045 54.855,83.953 55.498,82.989 L54.679,80.167 L57.05,78.22 L59.527,79.505 C60.698,78.946 61.982,78.61 63.313,78.54 L64.886,76.312 L67.889,76.952 L67.889,76.952 Z M62.264,95.979 C66.363,96.853 70.394,94.238 71.268,90.14 C72.142,86.04 69.528,82.009 65.428,81.135 C61.329,80.262 57.298,82.877 56.425,86.976 C55.551,91.075 58.166,95.106 62.264,95.979 L62.264,95.979 Z" id="Circle-memory" fill="#099CDB" sketch:type="MSShapeGroup"></path>
    </g>
    <g>
        <path d="M131.256,10.887 L131.864,14.174 C133.014,14.669 134.085,15.292 135.063,16.022 L138.213,14.911 L140.656,17.627 L139.215,20.647 C139.842,21.704 140.347,22.835 140.716,24.019 L143.92,24.971 L144.299,28.604 L141.36,30.199 C141.303,30.806 141.211,31.416 141.08,32.026 C140.95,32.636 140.785,33.231 140.59,33.809 L142.623,36.465 L140.794,39.627 L137.48,39.191 C136.661,40.12 135.739,40.947 134.735,41.657 L134.818,45.002 L131.481,46.486 L129.057,44.186 C127.867,44.454 126.636,44.586 125.383,44.569 L123.487,47.321 L119.915,46.559 L119.306,43.273 C118.156,42.778 117.085,42.155 116.108,41.425 L112.957,42.536 L110.515,39.82 L111.955,36.801 C111.328,35.743 110.823,34.611 110.454,33.429 L107.25,32.476 L106.87,28.843 L109.808,27.247 C109.866,26.641 109.958,26.031 110.088,25.42 C110.217,24.81 110.382,24.215 110.578,23.638 L108.545,20.983 L110.373,17.821 L113.687,18.257 C114.506,17.328 115.428,16.501 116.433,15.791 L116.349,12.447 L119.687,10.963 L122.11,13.263 C123.3,12.995 124.532,12.863 125.784,12.88 L127.68,10.129 L131.256,10.887 L131.256,10.887 Z M122.946,41.114 C129.79,42.572 136.52,38.207 137.979,31.364 C139.437,24.52 135.072,17.789 128.228,16.33 C121.384,14.872 114.654,19.237 113.195,26.08 C111.736,32.925 116.102,39.655 122.946,41.114 L122.946,41.114 Z" id="Circle-cd" fill="#099CDB" sketch:type="MSShapeGroup"></path>
    </g>
    <g>
        <path d="M58.613,13.505 L59.374,17.32 C60.562,17.749 61.705,18.259 62.795,18.844 L66.14,16.862 L69.418,19.246 L68.558,23.058 C69.451,23.923 70.277,24.849 71.034,25.829 L74.93,25.375 L76.955,28.887 L74.596,32.049 C75.052,33.182 75.428,34.351 75.721,35.547 L79.497,36.727 L79.919,40.758 L76.435,42.712 C76.387,43.901 76.255,45.1 76.038,46.302 L79.053,48.955 L77.798,52.809 L73.771,53.181 C73.241,54.253 72.641,55.278 71.979,56.252 L73.672,59.944 L70.96,62.955 L67.077,61.639 C66.178,62.384 65.231,63.065 64.242,63.682 L64.289,67.795 L60.586,69.441 L57.552,66.639 C56.445,66.951 55.312,67.192 54.16,67.355 L52.522,71.149 L48.469,71.147 L46.829,67.335 C46.264,67.252 45.698,67.154 45.132,67.032 C44.566,66.912 44.009,66.772 43.46,66.616 L40.408,69.428 L36.707,67.777 L36.758,63.645 C35.773,63.027 34.838,62.345 33.954,61.607 L30.041,62.929 L27.332,59.914 L29.051,56.178 C28.4,55.212 27.813,54.202 27.296,53.157 L23.214,52.775 L21.964,48.92 L25.016,46.239 C24.808,45.079 24.679,43.899 24.632,42.704 L21.107,40.721 L21.532,36.691 L25.367,35.497 C25.658,34.311 26.027,33.164 26.468,32.059 L24.083,28.853 L26.112,25.344 L30.042,25.807 C30.796,24.834 31.617,23.922 32.495,23.071 L31.631,19.223 L34.912,16.842 L38.284,18.845 C39.374,18.26 40.507,17.751 41.674,17.325 L42.444,13.493 L46.409,12.653 L48.656,15.828 C49.889,15.739 51.14,15.739 52.401,15.83 L54.651,12.657 L58.613,13.505 L58.613,13.505 Z M46.268,61.695 C57.32,64.051 68.187,57.002 70.544,45.95 C72.9,34.899 65.85,24.032 54.799,21.676 C43.748,19.321 32.88,26.369 30.525,37.421 C28.169,48.472 35.218,59.34 46.268,61.695 L46.268,61.695 Z" id="Circle-apps" fill="#0FA0A8" sketch:type="MSShapeGroup"></path>
    </g>
    <g>
        <path d="M195.423,20.208 L196.68,22.457 C197.977,22.54 199.24,22.764 200.454,23.113 L202.394,21.422 L205.452,22.839 L205.415,25.418 C206.478,26.129 207.463,26.951 208.352,27.87 L210.883,27.376 L212.821,30.131 L211.503,32.342 C212.065,33.474 212.508,34.677 212.819,35.939 L215.257,36.775 L215.557,40.131 L213.309,41.388 C213.226,42.684 213.003,43.947 212.654,45.161 L214.344,47.102 L212.927,50.159 L210.347,50.123 C209.637,51.185 208.815,52.17 207.895,53.058 L208.39,55.59 L205.634,57.528 L203.422,56.21 C202.289,56.77 201.086,57.215 199.825,57.526 L198.988,59.963 L195.632,60.264 L194.376,58.015 C193.079,57.932 191.816,57.709 190.602,57.359 L188.662,59.05 L185.604,57.633 L185.641,55.053 C184.578,54.343 183.594,53.52 182.704,52.601 L180.173,53.095 L178.235,50.339 L179.553,48.128 C178.992,46.996 178.548,45.793 178.237,44.531 L175.8,43.695 L175.498,40.339 L177.748,39.083 C177.83,37.786 178.053,36.523 178.403,35.309 L176.712,33.368 L178.129,30.312 L180.708,30.347 C181.419,29.284 182.241,28.3 183.161,27.411 L182.667,24.879 L185.422,22.941 L187.634,24.259 C188.766,23.699 189.97,23.255 191.231,22.943 L192.068,20.507 L195.423,20.208 L195.423,20.208 Z M196.803,54.442 C204.648,53.738 210.437,46.808 209.734,38.963 C209.03,31.117 202.099,25.328 194.255,26.031 C186.409,26.735 180.62,33.665 181.324,41.51 C182.026,49.356 188.957,55.146 196.803,54.442 L196.803,54.442 Z" id="Circle-cloud" fill="#0FA0A8" sketch:type="MSShapeGroup"></path>
    </g>
    <g>
        <path d="M261.6,18.842 L261.848,22.175 C262.938,22.792 263.934,23.528 264.826,24.361 L268.08,23.599 L270.212,26.564 L268.451,29.41 C268.96,30.53 269.338,31.709 269.576,32.925 L272.657,34.221 L272.639,37.874 L269.543,39.14 C269.421,39.737 269.263,40.332 269.066,40.926 C268.869,41.52 268.641,42.092 268.384,42.644 L270.116,45.505 L267.954,48.449 L264.707,47.654 C263.792,48.489 262.785,49.21 261.71,49.807 L261.429,53.141 L257.95,54.252 L255.791,51.702 C254.578,51.838 253.34,51.836 252.097,51.683 L249.912,54.211 L246.444,53.065 L246.197,49.732 C245.107,49.114 244.111,48.378 243.218,47.546 L239.964,48.308 L237.833,45.342 L239.593,42.498 C239.085,41.377 238.705,40.198 238.468,38.983 L235.387,37.687 L235.406,34.034 L238.501,32.768 C238.624,32.172 238.782,31.575 238.979,30.983 C239.174,30.39 239.403,29.817 239.66,29.264 L237.929,26.403 L240.09,23.459 L243.337,24.253 C244.252,23.419 245.259,22.697 246.335,22.102 L246.615,18.768 L250.094,17.656 L252.252,20.207 C253.465,20.07 254.703,20.073 255.946,20.226 L258.131,17.697 L261.6,18.842 L261.6,18.842 Z M250.048,47.984 C256.693,50.179 263.858,46.573 266.054,39.928 C268.249,33.284 264.643,26.118 257.998,23.923 C251.353,21.727 244.187,25.334 241.992,31.978 C239.797,38.622 243.403,45.788 250.048,47.984 L250.048,47.984 Z" id="Circle-energy" fill="#099CDB" sketch:type="MSShapeGroup"></path>
    </g>
    <g>
        <path d="M119.833,86.967 L120.602,90.219 C121.775,90.657 122.875,91.227 123.887,91.908 L126.979,90.642 L129.552,93.236 L128.261,96.322 C128.94,97.348 129.499,98.454 129.926,99.616 L133.173,100.411 L133.731,104.021 L130.873,105.759 C130.846,106.367 130.784,106.981 130.685,107.597 C130.584,108.213 130.448,108.815 130.282,109.402 L132.443,111.954 L130.773,115.202 L127.441,114.929 C126.669,115.898 125.788,116.769 124.82,117.528 L125.068,120.864 L121.807,122.51 L119.273,120.332 C118.098,120.657 116.874,120.85 115.623,120.895 L113.865,123.736 L110.26,123.151 L109.49,119.899 C108.317,119.461 107.217,118.89 106.205,118.21 L103.113,119.475 L100.54,116.882 L101.831,113.795 C101.153,112.77 100.593,111.664 100.166,110.501 L96.919,109.707 L96.362,106.097 L99.219,104.359 C99.246,103.751 99.309,103.137 99.409,102.521 C99.509,101.905 99.644,101.303 99.81,100.716 L97.649,98.164 L99.32,94.916 L102.652,95.188 C103.424,94.22 104.305,93.349 105.273,92.59 L105.026,89.254 L108.286,87.608 L110.82,89.786 C111.995,89.46 113.219,89.267 114.47,89.223 L116.229,86.382 L119.833,86.967 L119.833,86.967 Z M113.014,117.564 C119.922,118.686 126.431,113.996 127.552,107.088 C128.673,100.18 123.983,93.672 117.075,92.551 C110.168,91.43 103.66,96.119 102.538,103.028 C101.416,109.935 106.107,116.443 113.014,117.564 L113.014,117.564 Z" id="Circle-docs" fill="#0FA0A8" sketch:type="MSShapeGroup"></path>
    </g>
    <g>
        <path d="M292.642,65.756 L294.081,68.9 C295.36,69.107 296.592,69.462 297.756,69.948 L300.638,68.038 L303.774,70.148 L303.089,73.541 C303.985,74.444 304.776,75.452 305.444,76.545 L308.898,76.693 L310.196,80.243 L307.648,82.585 C307.744,83.208 307.805,83.843 307.828,84.488 C307.852,85.134 307.836,85.772 307.786,86.4 L310.495,88.552 L309.457,92.186 L306.022,92.583 C305.434,93.722 304.717,94.784 303.889,95.749 L304.815,99.084 L301.839,101.414 L298.827,99.717 C297.701,100.286 296.498,100.73 295.238,101.028 L294.028,104.267 L290.252,104.403 L288.814,101.259 C287.535,101.052 286.304,100.697 285.139,100.21 L282.257,102.119 L279.122,100.01 L279.806,96.617 C278.91,95.714 278.118,94.706 277.451,93.612 L273.996,93.464 L272.699,89.913 L275.246,87.572 C275.151,86.948 275.09,86.313 275.066,85.668 C275.042,85.023 275.058,84.385 275.109,83.756 L272.4,81.604 L273.437,77.97 L276.873,77.573 C277.461,76.434 278.178,75.372 279.007,74.406 L278.08,71.071 L281.055,68.741 L284.067,70.438 C285.194,69.87 286.396,69.427 287.658,69.128 L288.866,65.889 L292.642,65.756 L292.642,65.756 Z M291.92,98.181 C299.154,97.92 304.809,91.844 304.548,84.609 C304.287,77.374 298.211,71.72 290.976,71.981 C283.741,72.242 278.087,78.318 278.348,85.553 C278.607,92.787 284.685,98.441 291.92,98.181 L291.92,98.181 Z" id="Circle-instruments" fill="#017CC0" sketch:type="MSShapeGroup"></path>
    </g>
    <g>
        <path d="M227.519,37.541 L228.823,40.332 C230.291,40.675 231.651,41.305 232.841,42.16 L235.851,41.225 L238.099,43.864 L236.624,46.838 C237.147,48.038 237.469,49.348 237.546,50.728 L240.413,52.675 L239.752,56.077 L236.147,56.856 C235.58,57.877 234.86,58.801 234.017,59.599 L234.306,63.38 L231.235,64.984 L228.217,62.521 C227.692,62.613 227.153,62.671 226.603,62.689 C226.053,62.707 225.511,62.684 224.98,62.626 L222.129,65.279 L218.959,63.877 L219.003,60.086 C218.11,59.345 217.331,58.469 216.7,57.487 L213.052,56.943 L212.171,53.592 L214.905,51.463 C214.892,50.081 215.13,48.753 215.573,47.522 L213.909,44.649 L215.981,41.871 L219.044,42.608 C220.177,41.678 221.492,40.962 222.934,40.524 L224.055,37.654 L227.519,37.541 L227.519,37.541 Z M226.512,59.931 C231.243,59.778 234.955,55.818 234.802,51.086 C234.648,46.354 230.688,42.643 225.955,42.796 C221.224,42.95 217.513,46.91 217.666,51.642 C217.819,56.374 221.779,60.085 226.512,59.931 L226.512,59.931 Z" id="Circle-cursor" fill="#017CC0" sketch:type="MSShapeGroup"></path>
    </g>
    <g>
        <path d="M25.295,61.111 L26.86,64.063 C28.106,64.191 29.314,64.465 30.465,64.869 L33.138,62.864 L36.282,64.724 L35.812,68.037 C36.728,68.859 37.548,69.787 38.254,70.803 L41.596,70.754 L43.046,74.105 L40.72,76.508 C40.847,77.104 40.942,77.714 41,78.335 C41.059,78.956 41.08,79.572 41.067,80.182 L43.801,82.107 L43.005,85.671 L39.712,86.248 C39.209,87.38 38.577,88.445 37.832,89.424 L38.914,92.589 L36.174,95.005 L33.174,93.537 C32.118,94.148 30.983,94.643 29.783,95.003 L28.798,98.195 L25.162,98.54 L23.597,95.587 C22.351,95.459 21.143,95.186 19.992,94.781 L17.319,96.787 L14.175,94.927 L14.645,91.615 C13.729,90.793 12.908,89.865 12.202,88.847 L8.86,88.898 L7.41,85.546 L9.736,83.143 C9.609,82.548 9.514,81.937 9.455,81.316 C9.396,80.694 9.376,80.079 9.389,79.468 L6.654,77.544 L7.451,73.98 L10.743,73.403 C11.246,72.272 11.878,71.206 12.623,70.228 L11.541,67.062 L14.281,64.646 L17.282,66.114 C18.337,65.502 19.472,65.007 20.672,64.648 L21.657,61.455 L25.295,61.111 L25.295,61.111 Z M26.42,92.439 C33.387,91.781 38.501,85.599 37.842,78.633 C37.184,71.666 31.003,66.552 24.036,67.21 C17.069,67.868 11.955,74.05 12.613,81.016 C13.272,87.983 19.453,93.098 26.42,92.439 L26.42,92.439 Z" id="Circle-speed" fill="#017CC0" sketch:type="MSShapeGroup"></path>
    </g>
    <g>
        <path d="M284.386,6.472 L284.967,9.419 C286.276,10.088 287.415,11.002 288.341,12.089 L291.409,11.909 L292.919,14.932 L290.827,17.402 C291.041,18.66 291.039,19.976 290.789,21.299 L293.047,23.814 L291.624,26.88 L288.029,26.773 C287.254,27.606 286.356,28.314 285.372,28.871 L284.76,32.517 L281.477,33.317 L279.199,30.279 C278.678,30.244 278.155,30.172 277.631,30.06 C277.107,29.948 276.599,29.8 276.11,29.62 L272.791,31.465 L270.119,29.396 L271.048,25.818 C270.375,24.907 269.844,23.895 269.476,22.818 L266.15,21.449 L266.102,18.07 L269.188,16.695 C269.5,15.384 270.035,14.182 270.744,13.121 L269.841,10.012 L272.453,7.867 L275.182,9.282 C276.47,8.666 277.885,8.297 279.351,8.22 L281.083,5.767 L284.386,6.472 L284.386,6.472 Z M278.19,27.43 C282.706,28.393 287.145,25.513 288.107,20.998 C289.07,16.483 286.19,12.043 281.674,11.08 C277.159,10.118 272.719,12.997 271.757,17.512 C270.795,22.028 273.676,26.468 278.19,27.43 L278.19,27.43 Z" id="Circle-settings" fill="#0FA0A8" sketch:type="MSShapeGroup"></path>
    </g>
    <g>
        <path d="M43.267,89.354 L44.991,91.813 C46.458,91.896 47.87,92.27 49.157,92.89 L51.891,91.486 L54.495,93.639 L53.58,96.744 C54.285,97.807 54.816,99.012 55.123,100.323 L58.205,101.71 L58.144,105.089 L54.813,106.445 C54.441,107.521 53.905,108.531 53.23,109.439 L54.147,113.022 L51.468,115.081 L48.155,113.225 C47.665,113.403 47.156,113.549 46.632,113.66 C46.107,113.769 45.583,113.84 45.063,113.873 L42.773,116.903 L39.493,116.091 L38.894,112.443 C37.912,111.881 37.016,111.172 36.244,110.336 L32.648,110.43 L31.236,107.36 L33.503,104.853 C33.257,103.529 33.26,102.213 33.479,100.956 L31.396,98.478 L32.916,95.46 L35.984,95.65 C36.915,94.565 38.058,93.656 39.367,92.992 L39.959,90.047 L43.267,89.354 L43.267,89.354 Z M46.081,111.026 C50.599,110.08 53.495,105.65 52.548,101.131 C51.601,96.612 47.172,93.717 42.653,94.663 C38.135,95.609 35.24,100.039 36.186,104.559 C37.132,109.077 41.562,111.974 46.081,111.026 L46.081,111.026 Z" id="Circle-usb" fill="#48CECE" sketch:type="MSShapeGroup"></path>
    </g>
    <g>
        <path d="M189.072,46.242 C187.308,46.242 185.878,44.812 185.878,43.048 C185.878,41.446 187.058,40.12 188.595,39.89 C188.881,37.652 190.793,35.921 193.11,35.921 C194.644,35.921 196.001,36.681 196.826,37.845 C197.113,37.76 197.418,37.714 197.734,37.714 C199.135,37.714 200.327,38.617 200.756,39.874 C202.36,40.044 203.609,41.4 203.609,43.049 C203.609,44.812 202.179,46.242 200.416,46.242 L189.072,46.242 L189.072,46.242 Z M188.22,43.332 C188.22,42.827 188.404,42.365 188.708,42.01 C189.017,41.651 189.449,41.402 189.939,41.328 C190.231,41.286 190.433,41.014 190.39,40.723 C190.347,40.431 190.076,40.229 189.785,40.272 C189.034,40.385 188.371,40.767 187.898,41.317 C187.432,41.859 187.15,42.563 187.15,43.332 C187.15,43.627 187.389,43.867 187.684,43.867 C187.98,43.866 188.22,43.626 188.22,43.332 L188.22,43.332 L188.22,43.332 Z M191.492,38.591 C191.779,38.304 192.122,38.073 192.502,37.916 C192.866,37.765 193.269,37.682 193.693,37.682 C193.989,37.682 194.229,37.443 194.229,37.147 C194.229,36.852 193.989,36.613 193.693,36.613 C193.131,36.613 192.59,36.726 192.095,36.93 C191.583,37.143 191.121,37.454 190.736,37.84 C190.529,38.049 190.53,38.387 190.738,38.593 C190.947,38.801 191.285,38.8 191.492,38.591 L191.492,38.591 L191.492,38.591 Z M200.873,40.376 C200.748,40.339 200.62,40.311 200.491,40.292 C200.36,40.273 200.23,40.263 200.101,40.263 C199.813,40.263 199.533,40.309 199.266,40.395 C198.992,40.484 198.738,40.615 198.511,40.778 L198.512,40.778 C198.42,40.843 198.337,40.912 198.262,40.981 C198.185,41.053 198.11,41.131 198.038,41.214 C197.927,41.345 197.827,41.485 197.743,41.631 L197.743,41.633 C197.657,41.783 197.587,41.939 197.532,42.097 C197.448,42.342 197.579,42.609 197.823,42.692 C198.068,42.776 198.335,42.646 198.419,42.4 C198.456,42.291 198.503,42.189 198.556,42.095 L198.557,42.095 C198.614,41.995 198.679,41.903 198.749,41.82 C198.794,41.768 198.844,41.716 198.896,41.668 C198.952,41.616 199.006,41.571 199.058,41.534 L199.06,41.534 C199.21,41.425 199.375,41.34 199.551,41.283 C199.721,41.228 199.905,41.199 200.1,41.199 C200.192,41.199 200.278,41.205 200.357,41.217 C200.443,41.229 200.528,41.248 200.608,41.272 C200.855,41.344 201.115,41.203 201.189,40.955 C201.263,40.709 201.121,40.449 200.873,40.376 L200.873,40.376 L200.873,40.376 Z M203.999,37.686 C204.06,37.869 204.252,37.972 204.438,37.922 L204.907,37.797 C205.007,37.77 205.083,37.71 205.133,37.618 C205.182,37.526 205.192,37.43 205.158,37.331 C204.078,34.041 200.684,32.081 197.294,32.79 C197.192,32.812 197.113,32.868 197.059,32.956 C197.005,33.044 196.991,33.141 197.017,33.241 L197.143,33.71 C197.193,33.896 197.378,34.011 197.568,33.973 C200.338,33.406 203.104,35.003 203.999,37.686 L203.999,37.686 L203.999,37.686 Z M201.939,38.25 C202.004,38.427 202.193,38.523 202.375,38.474 L202.844,38.349 C202.947,38.322 203.025,38.259 203.073,38.166 C203.122,38.072 203.128,37.973 203.093,37.874 C202.322,35.727 200.102,34.446 197.858,34.851 C197.754,34.87 197.671,34.925 197.615,35.015 C197.557,35.103 197.543,35.202 197.57,35.304 L197.696,35.773 C197.745,35.955 197.924,36.069 198.108,36.037 C199.746,35.76 201.36,36.691 201.939,38.25 L201.939,38.25 Z" id="Shape" fill="#0FA0A8" sketch:type="MSShapeGroup"></path>
    </g>
    <g>
        <path d="M201.864,79.45 C197.107,75.306 189.977,75.306 185.219,79.45 C184.844,79.778 184.281,79.758 183.929,79.407 L183.319,78.796 C183.127,78.604 183.034,78.367 183.042,78.096 C183.051,77.825 183.16,77.595 183.363,77.415 C189.166,72.318 197.92,72.315 203.722,77.415 C203.925,77.594 204.034,77.824 204.042,78.095 C204.05,78.366 203.957,78.603 203.766,78.795 L203.154,79.407 C202.802,79.759 202.24,79.778 201.864,79.45 L201.864,79.45 L201.864,79.45 Z M193.543,86.501 C194.973,86.501 196.133,87.661 196.133,89.091 C196.133,90.522 194.973,91.681 193.543,91.681 C192.111,91.681 190.951,90.522 190.951,89.091 C190.951,87.661 192.111,86.501 193.543,86.501 L193.543,86.501 L193.543,86.501 Z M198.984,82.371 C199.362,82.68 199.908,82.653 200.254,82.308 L200.866,81.696 C201.06,81.501 201.154,81.259 201.141,80.985 C201.128,80.71 201.014,80.478 200.802,80.301 C196.611,76.806 190.472,76.806 186.281,80.301 C186.069,80.478 185.954,80.71 185.941,80.985 C185.928,81.26 186.022,81.502 186.217,81.696 L186.829,82.308 C187.175,82.654 187.72,82.681 188.098,82.371 C191.255,79.783 195.829,79.783 198.984,82.371 L198.984,82.371 L198.984,82.371 Z M195.912,85.557 C194.49,84.583 192.595,84.582 191.173,85.557 C190.793,85.816 190.293,85.77 189.969,85.445 L189.352,84.827 C189.149,84.624 189.055,84.369 189.078,84.084 C189.1,83.798 189.233,83.561 189.465,83.393 C191.891,81.63 195.196,81.63 197.621,83.393 C197.853,83.561 197.985,83.799 198.008,84.084 C198.031,84.369 197.937,84.625 197.734,84.827 L197.118,85.444 C196.791,85.771 196.292,85.816 195.912,85.557 L195.912,85.557 Z" id="Shape" fill="#099CDB" sketch:type="MSShapeGroup"></path>
    </g>
    <g>
        <path d="M84.179,62.134 L101.291,62.134 C101.989,62.134 102.561,62.705 102.561,63.405 L102.561,73.921 C102.561,74.619 101.99,75.191 101.291,75.191 L84.179,75.191 C83.481,75.191 82.909,74.62 82.909,73.921 L82.909,63.405 C82.909,62.705 83.481,62.134 84.179,62.134 L84.179,62.134 L84.179,62.134 Z M104.195,76.278 L81.325,76.278 C80.701,76.278 80.19,76.788 80.19,77.412 L80.19,77.412 C80.19,78.036 80.701,78.547 81.325,78.547 L104.195,78.547 C104.819,78.547 105.33,78.035 105.33,77.412 L105.33,77.412 C105.33,76.789 104.818,76.278 104.195,76.278 L104.195,76.278 L104.195,76.278 Z M101.996,77.89 L94.136,77.89 C93.874,77.89 93.661,77.676 93.661,77.413 L93.661,77.413 C93.661,77.15 93.874,76.937 94.136,76.937 L101.996,76.937 C102.258,76.937 102.472,77.15 102.472,77.413 L102.472,77.413 C102.472,77.675 102.258,77.89 101.996,77.89 L101.996,77.89 L101.996,77.89 Z M100.487,64.465 L84.983,64.465 L84.983,73.026 L100.487,73.026 L100.487,64.465 L100.487,64.465 Z M84.413,63.324 C84.098,63.324 83.842,63.58 83.842,63.895 L83.842,73.597 C83.842,73.911 84.098,74.167 84.413,74.167 L101.058,74.167 C101.373,74.167 101.628,73.911 101.628,73.597 L101.628,63.895 C101.628,63.58 101.373,63.324 101.058,63.324 L84.413,63.324 L84.413,63.324 Z" id="Shape" fill="#48CECE" sketch:type="MSShapeGroup"></path>
    </g>
    <g>
        <path d="M142.782,59.375 L145.511,59.375 L142.782,59.375 L142.782,59.375 Z M149.81,82.192 L138.483,82.192 C137.563,82.192 136.812,81.442 136.812,80.522 L136.812,59.708 C136.812,58.789 137.562,58.038 138.483,58.038 L149.81,58.038 C150.73,58.038 151.481,58.789 151.481,59.708 L151.481,80.522 C151.481,81.441 150.73,82.192 149.81,82.192 L149.81,82.192 L149.81,82.192 Z M148.507,61.894 L139.787,61.894 L139.787,77.182 L148.507,77.182 L148.507,61.894 L148.507,61.894 Z M142.782,59.938 C142.471,59.938 142.219,59.685 142.219,59.375 C142.219,59.064 142.471,58.813 142.782,58.813 L145.511,58.813 C145.822,58.813 146.074,59.064 146.074,59.375 C146.074,59.685 145.822,59.938 145.511,59.938 L142.782,59.938 L142.782,59.938 Z M150.005,78.011 L150.005,77.965 L150.006,77.931 L150.006,61.143 L150.005,61.109 L150.005,61.063 C150.005,61.027 149.998,60.993 149.984,60.961 C149.902,60.635 149.608,60.393 149.255,60.393 L139.036,60.393 C138.683,60.393 138.389,60.635 138.307,60.962 C138.294,60.993 138.286,61.027 138.286,61.063 L138.286,61.109 L138.286,61.143 L138.286,77.931 L138.286,77.965 L138.286,78.011 C138.286,78.047 138.294,78.082 138.308,78.113 C138.389,78.44 138.683,78.682 139.036,78.682 L149.255,78.682 C149.607,78.682 149.901,78.44 149.983,78.114 C149.998,78.083 150.005,78.047 150.005,78.011 L150.005,78.011 L150.005,78.011 Z M144.754,79.534 C144.598,79.378 144.383,79.282 144.146,79.282 C143.909,79.282 143.694,79.379 143.539,79.534 C143.384,79.689 143.288,79.904 143.288,80.141 C143.288,80.378 143.384,80.594 143.539,80.749 C143.695,80.905 143.909,81 144.146,81 C144.384,81 144.599,80.904 144.754,80.749 C144.91,80.594 145.005,80.378 145.005,80.141 C145.005,79.904 144.91,79.689 144.754,79.534 L144.754,79.534 Z" id="Shape" fill="#017CC0" sketch:type="MSShapeGroup"></path>
    </g>
    <g>
        <path d="M251.362,80.275 L258.191,80.275 C258.997,80.275 259.657,80.935 259.657,81.741 L259.657,97.01 C259.657,97.817 258.997,98.476 258.191,98.476 L251.362,98.476 C250.556,98.476 249.896,97.817 249.896,97.01 L249.896,81.741 C249.896,80.934 250.557,80.275 251.362,80.275 L251.362,80.275 L251.362,80.275 Z M229.193,80.275 L247.635,80.275 C248.441,80.275 249.101,80.934 249.101,81.74 L249.101,94.062 C249.101,94.868 248.441,95.528 247.635,95.528 L229.193,95.528 C228.386,95.528 227.727,94.869 227.727,94.062 L227.727,81.74 C227.728,80.934 228.387,80.275 229.193,80.275 L229.193,80.275 L229.193,80.275 Z M246.872,82.611 L229.957,82.611 L229.957,93.161 L246.872,93.161 L246.872,82.611 L246.872,82.611 Z M229.299,81.295 C228.936,81.295 228.641,81.589 228.641,81.953 L228.641,93.819 C228.641,94.182 228.936,94.477 229.299,94.477 L247.53,94.477 C247.893,94.477 248.188,94.182 248.188,93.819 L248.188,81.953 C248.188,81.59 247.893,81.295 247.53,81.295 L229.299,81.295 L229.299,81.295 Z M233.743,96.52 L242.805,96.52 L242.805,97.474 L245.495,97.474 C245.804,97.474 246.057,97.727 246.057,98.036 L246.057,98.476 L230.493,98.476 L230.493,98.036 C230.493,97.727 230.744,97.474 231.054,97.474 L233.744,97.474 C233.743,96.799 233.743,97.194 233.743,96.52 L233.743,96.52 L233.743,96.52 Z M252.269,88.194 L252.269,88.862 L257.286,88.862 L257.286,88.194 L252.269,88.194 L252.269,88.194 Z M252.269,91.896 L252.269,92.565 L257.286,92.565 L257.286,91.896 L252.269,91.896 L252.269,91.896 Z M252.269,90.045 L252.269,90.714 L257.286,90.714 L257.286,90.045 L252.269,90.045 L252.269,90.045 Z M252.172,82.588 C251.863,82.588 251.61,82.841 251.61,83.15 L251.61,84.308 C251.61,84.617 251.863,84.869 252.172,84.869 L257.381,84.869 C257.691,84.869 257.943,84.617 257.943,84.308 L257.943,83.15 C257.943,82.841 257.691,82.588 257.381,82.588 L252.172,82.588 L252.172,82.588 Z M254.776,94.643 C254.176,94.643 253.691,95.128 253.691,95.729 C253.691,96.329 254.176,96.815 254.776,96.815 C255.377,96.815 255.863,96.329 255.863,95.729 C255.863,95.128 255.377,94.643 254.776,94.643 L254.776,94.643 Z" id="Shape" fill="#48CECE" sketch:type="MSShapeGroup"></path>
    </g>
    <g>
        <path d="M66.723,93.316 L60.97,93.316 C60.577,93.316 60.256,92.996 60.256,92.602 L60.256,89.837 L60.564,89.667 L60.564,88.93 L60.256,88.818 L60.256,88.103 L61.361,87.264 L61.361,84.527 C61.361,84.126 61.688,83.798 62.09,83.798 L62.193,83.798 L66.724,83.798 C67.117,83.798 67.438,84.12 67.438,84.512 L67.438,92.602 C67.438,92.995 67.116,93.316 66.723,93.316 L66.723,93.316 L66.723,93.316 Z M63.212,84.745 L62.191,84.745 L62.191,87.192 L63.212,87.192 L63.212,84.745 L63.212,84.745 Z M63.853,87.193 L64.874,87.193 L64.874,84.745 L63.853,84.745 L63.853,87.193 L63.853,87.193 Z M66.535,84.782 C66.514,84.759 66.485,84.745 66.453,84.745 L65.513,84.745 L65.513,87.193 L66.46,87.193 C66.501,87.193 66.534,87.159 66.534,87.118 L66.534,84.782 L66.535,84.782 Z" id="Shape" fill="#099CDB" sketch:type="MSShapeGroup"></path>
    </g>
    <g>
        <path d="M275.662,64.105 L275.083,64.105 L275.083,64.112 L275.083,64.829 C275.083,65.253 274.441,65.253 274.441,64.829 L274.441,64.112 L274.442,64.105 L272.661,64.105 L272.661,64.111 L272.661,64.829 C272.661,65.253 272.019,65.253 272.019,64.829 L272.019,64.112 L272.02,64.105 L270.239,64.105 L270.239,64.112 L270.239,64.829 C270.239,65.253 269.598,65.253 269.598,64.829 L269.598,64.112 L269.598,64.105 L269.019,64.105 C268.616,64.105 268.287,63.776 268.287,63.373 L268.287,62.793 L268.28,62.793 L267.563,62.793 C267.139,62.793 267.139,62.151 267.563,62.151 L268.28,62.151 L268.287,62.151 L268.287,60.371 L268.28,60.371 L267.563,60.371 C267.139,60.371 267.139,59.729 267.563,59.729 L268.28,59.729 L268.287,59.729 L268.287,57.949 L268.28,57.949 L267.563,57.949 C267.139,57.949 267.139,57.307 267.563,57.307 L268.28,57.307 L268.287,57.307 L268.287,56.729 C268.287,56.325 268.616,55.996 269.019,55.996 L269.598,55.996 L269.598,55.989 L269.598,55.272 C269.598,54.848 270.239,54.848 270.239,55.272 L270.239,55.989 L270.239,55.996 L272.02,55.996 L272.019,55.989 L272.019,55.272 C272.019,54.848 272.661,54.848 272.661,55.272 L272.661,55.989 L272.661,55.996 L274.442,55.996 L274.441,55.989 L274.441,55.272 C274.441,54.848 275.083,54.848 275.083,55.272 L275.083,55.989 L275.083,55.996 L275.662,55.996 C276.065,55.996 276.394,56.325 276.394,56.729 L276.394,57.307 L276.4,57.307 L277.117,57.307 C277.542,57.307 277.542,57.949 277.117,57.949 L276.4,57.949 L276.394,57.949 L276.394,59.729 L276.4,59.729 L277.117,59.729 C277.543,59.729 277.542,60.371 277.117,60.371 L276.4,60.371 L276.394,60.371 L276.394,62.151 L276.4,62.151 L277.117,62.151 C277.543,62.151 277.542,62.793 277.117,62.793 L276.4,62.793 L276.394,62.793 L276.394,63.373 C276.395,63.776 276.065,64.105 275.662,64.105 L275.662,64.105 L275.662,64.105 Z M275.132,57.161 L269.55,57.161 C269.494,57.161 269.45,57.206 269.45,57.261 L269.45,62.843 C269.45,62.898 269.494,62.943 269.55,62.943 L275.132,62.943 C275.187,62.943 275.232,62.898 275.232,62.843 L275.232,57.261 C275.231,57.206 275.187,57.161 275.132,57.161 L275.132,57.161 L275.132,57.161 Z M275.898,63.496 L275.898,56.607 C275.898,56.545 275.846,56.494 275.786,56.494 L268.896,56.494 C268.834,56.494 268.783,56.545 268.783,56.607 L268.783,63.496 C268.783,63.558 268.834,63.609 268.896,63.609 L275.786,63.609 C275.848,63.609 275.898,63.558 275.898,63.496 L275.898,63.496 Z" id="Shape" fill="#0FA0A8" sketch:type="MSShapeGroup"></path>
    </g>
    <g>
        <path d="M44.901,30.29 L59.858,30.29 C60.655,30.29 61.306,30.941 61.306,31.738 L61.306,45.782 C61.306,46.579 60.655,47.23 59.858,47.23 L58.59,47.23 L58.59,45.313 L59.166,45.313 C59.286,45.313 59.389,45.213 59.389,45.09 L59.389,35.399 C59.389,35.278 59.286,35.175 59.166,35.175 L56.167,35.175 L43.453,35.175 L43.453,31.738 C43.453,30.941 44.104,30.29 44.901,30.29 L44.901,30.29 L44.901,30.29 Z M41.209,36.142 C40.411,36.142 39.761,36.793 39.761,37.59 L39.761,51.634 C39.761,52.431 40.411,53.082 41.209,53.082 L56.167,53.082 C56.964,53.082 57.615,52.431 57.615,51.633 L57.615,37.59 C57.615,36.794 56.965,36.142 56.167,36.142 L41.209,36.142 L41.209,36.142 L41.209,36.142 Z M55.697,41.25 C55.697,41.129 55.595,41.026 55.474,41.026 L41.902,41.026 C41.781,41.026 41.679,41.127 41.679,41.25 L41.679,50.942 C41.679,51.064 41.78,51.165 41.902,51.165 L55.474,51.165 C55.595,51.165 55.697,51.065 55.697,50.943 L55.697,41.25 L55.697,41.25 Z" id="Shape" fill="#0FA0A8" sketch:type="MSShapeGroup"></path>
    </g>
    <g>
        <path d="M261.687,39.263 L261.687,32.642 C261.687,32.104 261.249,31.666 260.711,31.666 L248.546,31.666 C248.008,31.666 247.569,32.104 247.569,32.642 L247.569,34.324 L246.358,34.324 L246.358,37.581 L247.569,37.581 L247.569,39.262 C247.569,39.8 248.007,40.239 248.546,40.239 L260.711,40.239 C261.248,40.24 261.687,39.801 261.687,39.263 L261.687,39.263 L261.687,39.263 Z M249.227,33.2 L260.03,33.2 L260.03,38.706 L249.227,38.706 L249.227,33.2 L249.227,33.2 Z M253.485,33.83 L255.522,33.83 L254.728,35.254 L255.77,35.254 L254.06,38.322 L254.06,36.174 L253.485,36.174 L253.485,33.83 L253.485,33.83 Z M260.675,39.377 L248.581,39.377 C248.499,39.377 248.432,39.31 248.432,39.227 L248.432,32.678 C248.432,32.595 248.499,32.528 248.581,32.528 L260.675,32.528 C260.757,32.528 260.824,32.596 260.824,32.678 L260.824,39.227 C260.824,39.31 260.758,39.377 260.675,39.377 L260.675,39.377 Z" id="Shape" fill="#099CDB" sketch:type="MSShapeGroup"></path>
    </g>
    <g>
        <path d="M117.261,103.206 L117.261,106.743 C117.261,107.115 116.955,107.423 116.582,107.423 L108.576,107.423 C108.203,107.423 107.896,107.118 107.896,106.743 L107.896,103.206 C107.896,102.832 108.202,102.527 108.576,102.527 L116.582,102.527 C116.956,102.527 117.261,102.833 117.261,103.206 L117.261,103.206 L117.261,103.206 Z M111.238,113.119 L120.982,113.119 C121.649,113.119 122.192,112.576 122.192,111.909 L122.192,101.972 L122.192,101.224 L117.964,96.996 L117.217,96.996 L111.238,96.996 C110.571,96.996 110.028,97.54 110.028,98.206 L110.028,101.676 L111.631,101.676 L111.631,98.784 C111.631,98.682 111.715,98.598 111.817,98.598 L117.218,98.598 L117.218,99.78 L117.218,100.225 C117.218,101.186 118.002,101.971 118.963,101.971 L120.59,101.971 L120.59,111.329 C120.59,111.43 120.505,111.516 120.404,111.516 L111.816,111.516 C111.715,111.516 111.63,111.432 111.63,111.329 L111.63,108.27 L110.027,108.27 L110.027,111.907 C110.028,112.575 110.572,113.119 111.238,113.119 L111.238,113.119 L111.238,113.119 Z M119.117,98.801 L118.916,98.6 L118.921,98.6 L119.117,98.801 L119.117,98.801 Z" id="Shape" fill="#0FA0A8" sketch:type="MSShapeGroup"></path>
    </g>
    <g>
        <path d="M294.361,82.158 C293.689,81.497 293.26,80.565 293.755,80.073 L295.788,78.039 L295.509,77.76 C294.622,76.872 291.778,78.428 290.811,79.876 C290.319,80.612 290.17,81.698 290.916,82.605 L284.319,89.201 C284.079,89.442 283.932,89.743 283.888,90.06 C283.715,91.311 285.228,92.823 286.477,92.649 C286.794,92.605 287.096,92.461 287.337,92.219 L293.899,85.657 C294.731,86.48 295.851,86.241 296.644,85.712 C298.092,84.745 299.648,81.9 298.76,81.013 L298.482,80.734 L296.448,82.767 C295.954,83.259 295.022,82.831 294.361,82.158 L294.361,82.158 L294.361,82.158 Z M298.645,90.149 C298.372,90.64 298.044,91.075 297.666,91.455 L297.644,91.475 C297.269,91.846 296.841,92.167 296.362,92.435 C296.061,92.602 295.729,92.662 295.411,92.617 C295.092,92.572 294.787,92.425 294.545,92.182 L294.544,92.181 L294.543,92.182 L291.469,89.107 L292.014,88.562 L295.089,91.637 L295.088,91.637 C295.209,91.76 295.359,91.833 295.516,91.854 C295.588,91.865 295.661,91.865 295.733,91.852 L292.229,88.348 L293.974,86.602 C294.135,86.692 294.3,86.76 294.469,86.809 L297.772,90.113 C297.843,90.005 297.912,89.893 297.976,89.777 C298.059,89.627 298.089,89.461 298.067,89.304 C298.046,89.149 297.972,88.998 297.85,88.876 L295.814,86.841 C296.094,86.779 296.365,86.68 296.619,86.555 L298.394,88.33 C298.637,88.573 298.785,88.878 298.829,89.198 C298.871,89.517 298.812,89.85 298.645,90.149 L298.645,90.149 L298.645,90.149 Z M288.958,83.542 L286.974,81.557 L286.152,81.594 L283.989,78.936 L285.148,77.776 L287.805,79.939 L287.769,80.762 L289.009,82.003 L289.753,82.746 L288.958,83.542 L288.958,83.542 Z M285.396,91.139 C284.796,90.539 284.796,89.567 285.396,88.966 C285.997,88.365 286.969,88.365 287.569,88.966 C288.169,89.567 288.169,90.539 287.568,91.139 C286.97,91.739 285.997,91.738 285.396,91.139 L285.396,91.139 Z" id="Shape" fill="#017CC0" sketch:type="MSShapeGroup"></path>
    </g>
    <g>
        <path d="M221.859,46.989 L230.608,49.923 L227.624,51.544 L230.14,54.06 L228.931,55.271 L226.414,52.753 L224.793,55.738 L221.859,46.989 Z" id="Shape" fill="#017CC0" sketch:type="MSShapeGroup"></path>
    </g>
    <g>
        <path d="M25.229,72.494 C27.75,72.494 30.033,73.515 31.686,75.168 C33.339,76.821 34.361,79.104 34.361,81.625 C34.361,81.871 34.349,82.131 34.33,82.376 C34.274,83.065 33.959,83.673 33.485,84.11 C33.011,84.546 32.38,84.81 31.691,84.81 L28.83,84.81 C28.447,85.289 27.97,85.69 27.427,85.985 C26.77,86.341 26.021,86.545 25.23,86.545 C24.438,86.545 23.689,86.342 23.032,85.985 C22.489,85.69 22.012,85.289 21.629,84.81 L18.768,84.81 C18.08,84.81 17.448,84.546 16.975,84.11 C16.501,83.673 16.186,83.065 16.13,82.376 C16.111,82.13 16.099,81.871 16.099,81.625 C16.099,79.104 17.121,76.821 18.774,75.168 C20.427,73.515 22.708,72.494 25.229,72.494 L25.229,72.494 L25.229,72.494 Z M22.663,78.475 L21.099,76.911 C20.929,76.742 20.651,76.742 20.481,76.911 C20.311,77.081 20.311,77.359 20.481,77.529 L22.045,79.093 C22.214,79.263 22.492,79.263 22.663,79.093 C22.832,78.923 22.833,78.645 22.663,78.475 L22.663,78.475 L22.663,78.475 Z M21.164,81.222 L18.952,81.222 C18.712,81.222 18.515,81.418 18.515,81.659 C18.515,81.899 18.711,82.096 18.952,82.096 L21.164,82.096 C21.404,82.096 21.601,81.899 21.601,81.659 C21.6,81.418 21.404,81.222 21.164,81.222 L21.164,81.222 L21.164,81.222 Z M25.666,77.593 L25.666,75.381 C25.666,75.141 25.469,74.944 25.229,74.944 C24.988,74.944 24.792,75.14 24.792,75.381 L24.792,77.593 C24.792,77.833 24.988,78.03 25.229,78.03 C25.469,78.03 25.666,77.833 25.666,77.593 L25.666,77.593 L25.666,77.593 Z M29.294,82.096 L31.506,82.096 C31.745,82.096 31.942,81.899 31.942,81.659 C31.942,81.419 31.745,81.222 31.506,81.222 L29.294,81.222 C29.053,81.222 28.857,81.419 28.857,81.659 C28.858,81.899 29.054,82.096 29.294,82.096 L29.294,82.096 L29.294,82.096 Z M25.229,83.55 C26.273,83.55 27.119,82.703 27.119,81.659 C27.119,81.346 27.043,81.05 26.908,80.79 L30.265,77.433 C30.377,77.32 30.433,77.174 30.433,77.028 C30.433,76.881 30.377,76.734 30.265,76.622 C30.153,76.51 30.006,76.454 29.86,76.454 C29.713,76.454 29.567,76.51 29.454,76.622 C28.335,77.741 27.216,78.86 26.097,79.979 C25.837,79.844 25.541,79.768 25.229,79.768 C24.185,79.768 23.338,80.615 23.338,81.659 C23.338,82.703 24.185,83.55 25.229,83.55 L25.229,83.55 L25.229,83.55 Z M30.544,76.31 C29.184,74.95 27.304,74.108 25.229,74.108 C23.153,74.108 21.274,74.949 19.913,76.31 C18.554,77.67 17.712,79.549 17.712,81.625 C17.712,81.84 17.719,82.036 17.737,82.25 C17.758,82.519 17.881,82.756 18.065,82.925 C18.248,83.093 18.496,83.196 18.767,83.196 L22.037,83.196 L22.037,83.199 C22.3,83.199 22.558,83.328 22.711,83.566 C22.984,83.985 23.359,84.333 23.8,84.573 C24.22,84.801 24.707,84.931 25.229,84.931 C25.75,84.931 26.237,84.801 26.658,84.573 C27.081,84.343 27.445,84.012 27.714,83.615 C27.851,83.365 28.117,83.197 28.422,83.197 L31.691,83.197 C31.963,83.197 32.21,83.095 32.394,82.926 C32.577,82.757 32.699,82.519 32.722,82.251 C32.739,82.037 32.746,81.841 32.746,81.626 C32.746,79.548 31.904,77.67 30.544,76.31 L30.544,76.31 Z" id="Shape" fill="#017CC0" sketch:type="MSShapeGroup"></path>
    </g>
    <g>
        <path d="M42.91,108.129 C42.91,107.36 43.387,106.84 44.032,106.668 L44.032,106.38 L44.032,106.379 C44.032,106.339 44.023,106.303 44.005,106.272 C43.979,106.227 43.937,106.182 43.877,106.139 L41.739,104.577 C41.582,104.463 41.461,104.332 41.378,104.185 C41.287,104.025 41.241,103.853 41.241,103.669 L41.241,103.366 C40.681,103.19 40.275,102.667 40.275,102.05 C40.275,101.287 40.893,100.67 41.654,100.67 C42.416,100.67 43.034,101.287 43.034,102.05 C43.034,102.667 42.627,103.191 42.068,103.366 L42.068,103.669 C42.068,103.71 42.077,103.746 42.095,103.777 C42.12,103.823 42.163,103.868 42.223,103.911 L44.032,105.232 L44.032,104.986 L44.032,98.782 L42.823,98.782 L44.447,96.051 L46.071,98.782 L44.86,98.782 L44.86,103.838 L46.669,102.518 C46.729,102.475 46.772,102.43 46.797,102.384 C46.815,102.353 46.824,102.318 46.824,102.276 L46.824,102.052 L45.876,102.052 L45.876,99.578 L48.46,99.578 L48.46,102.052 L47.65,102.052 L47.65,102.276 C47.65,102.46 47.605,102.631 47.513,102.792 C47.43,102.938 47.31,103.068 47.153,103.184 L45.015,104.746 C44.955,104.788 44.912,104.834 44.887,104.88 C44.869,104.91 44.86,104.946 44.86,104.985 L44.86,104.987 L44.86,106.026 L44.86,106.38 L44.86,106.682 C45.482,106.869 45.935,107.37 45.935,108.129 C45.935,108.888 45.258,109.641 44.423,109.641 C43.586,109.641 42.91,108.896 42.91,108.129 L42.91,108.129 Z" id="Shape" fill="#48CECE" sketch:type="MSShapeGroup"></path>
    </g>
    <g>
        <path d="M125.587,26.299 C126.925,26.299 128.01,27.384 128.01,28.722 C128.01,30.061 126.925,31.146 125.587,31.146 C124.249,31.146 123.164,30.062 123.164,28.722 C123.164,27.384 124.249,26.299 125.587,26.299 L125.587,26.299 L125.587,26.299 Z M121.995,34.752 C122.656,35.133 123.345,35.42 124.046,35.618 L124.95,32.393 C124.512,32.27 124.081,32.09 123.669,31.852 L121.995,34.752 L121.995,34.752 Z M129.18,22.692 C128.519,22.311 127.83,22.024 127.127,21.826 L126.224,25.05 C126.662,25.174 127.093,25.353 127.506,25.592 L129.18,22.692 L129.18,22.692 Z M125.587,21.17 C121.416,21.17 118.035,24.551 118.035,28.721 C118.035,32.892 121.415,36.274 125.587,36.274 C129.757,36.274 133.14,32.892 133.14,28.721 C133.14,24.552 129.757,21.17 125.587,21.17 L125.587,21.17 L125.587,21.17 Z M125.587,31.908 C127.346,31.908 128.773,30.482 128.773,28.722 C128.773,26.963 127.347,25.536 125.587,25.536 C123.827,25.536 122.401,26.962 122.401,28.722 C122.401,30.481 123.828,31.908 125.587,31.908 L125.587,31.908 L125.587,31.908 Z M125.587,27.381 C124.846,27.381 124.246,27.981 124.246,28.721 C124.246,29.462 124.846,30.062 125.587,30.062 C126.327,30.062 126.928,29.462 126.928,28.721 C126.928,27.981 126.327,27.381 125.587,27.381 L125.587,27.381 Z" id="Shape" fill="#099CDB" sketch:type="MSShapeGroup"></path>
    </g>
    <g>
        <path d="M281.276,23.515 L281.993,23.218 L283.255,23.869 C283.686,23.439 284.116,23.008 284.547,22.578 L283.896,21.316 L284.194,20.598 L285.546,20.166 L285.546,18.343 L284.193,17.911 L283.896,17.194 L284.547,15.932 C284.116,15.502 283.686,15.072 283.255,14.641 L281.993,15.292 L281.276,14.995 L280.843,13.642 L279.02,13.642 L278.589,14.995 L277.871,15.292 L276.609,14.641 C276.179,15.072 275.748,15.502 275.318,15.932 L275.968,17.194 L275.671,17.911 L274.319,18.343 L274.319,20.166 L275.671,20.598 L275.968,21.316 L275.318,22.578 C275.748,23.008 276.179,23.439 276.609,23.869 L277.871,23.218 L278.589,23.515 L279.02,24.867 L280.844,24.867 L281.276,23.515 L281.276,23.515 Z M279.933,16.806 C281.287,16.806 282.383,17.903 282.383,19.256 C282.383,20.609 281.286,21.706 279.933,21.706 C278.58,21.706 277.483,20.609 277.483,19.256 C277.482,17.903 278.58,16.806 279.933,16.806 L279.933,16.806 L279.933,16.806 Z M279.933,20.41 C279.296,20.41 278.779,19.893 278.779,19.256 C278.779,18.618 279.297,18.102 279.933,18.102 C280.571,18.102 281.087,18.619 281.087,19.256 C281.087,19.893 280.57,20.41 279.933,20.41 L279.933,20.41 L279.933,20.41 Z M279.933,22.482 C278.151,22.482 276.706,21.037 276.706,19.256 C276.706,17.473 278.15,16.029 279.933,16.029 C281.716,16.029 283.161,17.473 283.161,19.256 C283.16,21.037 281.715,22.482 279.933,22.482 L279.933,22.482 Z" id="Shape" fill="#0FA0A8" sketch:type="MSShapeGroup"></path>
    </g>
</svg>