<svg xmlns="http://www.w3.org/2000/svg" width="66" height="60" viewBox="0 0 66 60">
    <g fill="none" fill-rule="evenodd">
        <path d="M0 0h66v60H0z"/>
        <path fill="#D8D8D8" fill-opacity="0" stroke="#4FC7ED" d="M30.833 16v3.15l-.385.09a10.987 10.987 0 0 0-3.251 1.348l-.337.208-2.227-2.228a1.5 1.5 0 0 0-2.122 0l-.943.943a1.5 1.5 0 0 0 0 2.122l2.228 2.227-.208.337a10.987 10.987 0 0 0-1.348 3.251l-.09.385H19a1.5 1.5 0 0 0-1.5 1.5v1.334a1.5 1.5 0 0 0 1.5 1.5h3.15l.09.385a10.987 10.987 0 0 0 1.348 3.251l.208.337-2.228 2.227a1.5 1.5 0 0 0 0 2.122l.943.943a1.5 1.5 0 0 0 2.122 0l2.227-2.228.337.208a10.987 10.987 0 0 0 3.251 1.348l.385.09V44a1.5 1.5 0 0 0 1.5 1.5h1.334a1.5 1.5 0 0 0 1.5-1.5v-3.15l.385-.09a10.987 10.987 0 0 0 3.251-1.348l.337-.208 2.227 2.228a1.5 1.5 0 0 0 2.122 0l.943-.943a1.5 1.5 0 0 0 0-2.122l-2.228-2.227.208-.337a10.987 10.987 0 0 0 1.348-3.251l.09-.385H47a1.5 1.5 0 0 0 1.5-1.5v-1.334a1.5 1.5 0 0 0-1.5-1.5h-3.15l-.09-.385a10.987 10.987 0 0 0-1.348-3.251l-.208-.337 2.228-2.227a1.5 1.5 0 0 0 0-2.122l-.943-.943a1.5 1.5 0 0 0-2.122 0l-2.227 2.228-.337-.208a10.987 10.987 0 0 0-3.251-1.348l-.385-.09V16a1.5 1.5 0 0 0-1.5-1.5h-1.334a1.5 1.5 0 0 0-1.5 1.5zM33 36.722a6.722 6.722 0 1 1 0-13.444 6.722 6.722 0 0 1 0 13.444z"/>
    </g>
</svg>
