<svg xmlns="http://www.w3.org/2000/svg" width="260" height="228" viewBox="0 0 260 228">
    <g fill="none" fill-rule="evenodd">
        <path fill="#D8D8D8" fill-opacity="0" stroke="#000" d="M91.5 46.5v21h-39v-21H46c-9.113 0-16.5 7.387-16.5 16.5l-.006 23.079L17.5 161v33c0 10.217 8.283 18.5 18.5 18.5h181c10.217 0 18.5-8.283 18.5-18.5l.006-32.921L223.5 86V63c0-9.113-7.387-16.5-16.5-16.5h-22.5v-11H202a2.5 2.5 0 0 0 2.5-2.5V5a2.5 2.5 0 0 0-2.5-2.5h-74a2.5 2.5 0 0 0-2.5 2.5v28a2.5 2.5 0 0 0 2.5 2.5h17.5v11h-54z"/>
        <path fill="#000" d="M18 161h217v1H18zM29 86h194v1H29zM145 46h40v1h-40zM145 35h40v1h-40z"/>
        <path fill="#000" fill-opacity="0" stroke="#000" d="M92 64.5h-.5V31a2.5 2.5 0 0 0-2.5-2.5H55a2.5 2.5 0 0 0-2.5 2.5v33.5H52a4.5 4.5 0 1 0 0 9h40a4.5 4.5 0 1 0 0-9z"/>
        <path fill="#000" fill-opacity=".02" stroke="#000" d="M52.5 67.5h39V31a2.5 2.5 0 0 0-2.5-2.5H55a2.5 2.5 0 0 0-2.5 2.5v36.5z"/>
        <g fill="#000">
            <path d="M59.5 39h25a.5.5 0 1 1 0 1h-25a.5.5 0 1 1 0-1zM59.5 48h25a.5.5 0 1 1 0 1h-25a.5.5 0 0 1 0-1zM59.5 57h25a.5.5 0 1 1 0 1h-25a.5.5 0 1 1 0-1z"/>
        </g>
        <path fill="#000" fill-opacity=".05" stroke="#000" d="M102 182.5a4.5 4.5 0 0 0 0 9h50a4.5 4.5 0 0 0 0-9h-50zM50 111.5a3.5 3.5 0 1 0 0 7h12a3.5 3.5 0 1 0 0-7H50zM80 111.5a3.5 3.5 0 1 0 0 7h12a3.5 3.5 0 1 0 0-7H80zM130 111.5a3.5 3.5 0 1 0 0 7h12a3.5 3.5 0 1 0 0-7h-12zM160 111.5a3.5 3.5 0 1 0 0 7h12a3.5 3.5 0 1 0 0-7h-12zM190 111.5a3.5 3.5 0 1 0 0 7h12a3.5 3.5 0 1 0 0-7h-12zM50 130.5a3.5 3.5 0 1 0 0 7h12a3.5 3.5 0 1 0 0-7H50zM80 130.5a3.5 3.5 0 1 0 0 7h12a3.5 3.5 0 1 0 0-7H80zM130 130.5a3.5 3.5 0 1 0 0 7h12a3.5 3.5 0 1 0 0-7h-12zM160 130.5a3.5 3.5 0 1 0 0 7h12a3.5 3.5 0 1 0 0-7h-12zM190 130.5a3.5 3.5 0 1 0 0 7h12a3.5 3.5 0 1 0 0-7h-12z"/>
        <path stroke="#000" stroke-linecap="round" d="M2.5 37.5l254.553 187.819"/>
    </g>
</svg>
