<?xml version="1.0" encoding="UTF-8" standalone="no"?>
<svg width="1136px" height="644px" viewBox="0 0 1136 644" version="1.1" xmlns="http://www.w3.org/2000/svg" xmlns:xlink="http://www.w3.org/1999/xlink" xmlns:sketch="http://www.bohemiancoding.com/sketch/ns">
    <!-- Generator: Sketch 3.3 (11970) - http://www.bohemiancoding.com/sketch -->
    <title>verified-by-visa 2</title>
    <desc>Created with Sketch.</desc>
    <defs>
        <path id="path-1" d="M0.330769231,1.83576923 L1135.64654,1.83576923 L1135.64654,645 L0.330769231,645"></path>
    </defs>
    <g id="Page-1" stroke="none" stroke-width="1" fill="none" fill-rule="evenodd" sketch:type="MSPage">
        <g id="verified-by-visa-2" sketch:type="MSLayerGroup" transform="translate(0.000000, -1.000000)">
            <path d="M972.307179,429.674744 C970.730513,442.326667 968.652179,454.476923 966.083205,466.125513 C955.272564,462.602821 942.791538,456.946667 925.178077,458.12641 C914.665128,458.832051 902.228205,462.867436 902.057308,472.349487 C901.869872,482.85141 919.130513,489.097436 928.733846,493.689615 C946.049615,501.975385 964.633333,513.017564 966.083205,535.482308 C967.191282,552.753974 959.175641,567.781923 950.073974,576.387436 C925.839615,599.293205 872.067564,601.713333 835.368718,587.060256 C837.656538,574.821795 839.734872,562.373846 841.598205,549.710897 C855.804744,555.752949 875.320128,563.911923 896.72641,561.271282 C906.473077,560.063974 918.408333,554.380256 918.066538,544.38 C917.642051,532.174615 894.863077,524.914231 883.385385,518.591026 C870.049872,511.242436 854.873077,499.015 854.040641,480.354103 C853.489359,467.922692 858.329615,456.279615 864.713462,448.346667 C883.661026,424.795897 932.355769,416.427436 972.307179,429.674744" id="Fill-1" fill="#344E90" sketch:type="MSShapeGroup"></path>
            <path d="M536.507692,191.537436 L585.533205,191.537436 L555.350513,381.773846 L506.319487,381.773846 L536.507692,191.537436" id="Fill-2" fill="#344E90" sketch:type="MSShapeGroup"></path>
            <path d="M409.663205,229.355385 L402.08859,277.090897 L416.267564,277.090897 C430.044103,277.090897 443.081923,266.357436 445.248462,253.220385 C447.409487,240.099872 437.905385,229.355385 424.123333,229.355385 L409.663205,229.355385 L409.663205,229.355385 Z M366.635641,191.52641 L441.703718,191.52641 C489.461282,191.52641 501.865128,219.029872 496.65,251.875256 C492.300385,279.312564 472.586538,297.620641 446.990513,304.131282 L494.53859,381.773846 L432.987949,381.773846 L397.331026,307.069615 L385.478462,381.773846 L336.447436,381.773846 L366.635641,191.52641 L366.635641,191.52641 Z" id="Fill-3" fill="#344E90" sketch:type="MSShapeGroup"></path>
            <path d="M760.405385,191.537436 L809.430897,191.537436 L779.248205,381.773846 L730.217179,381.773846 L760.405385,191.537436" id="Fill-4" fill="#344E90" sketch:type="MSShapeGroup"></path>
            <path d="M846.675513,191.52641 L954.318846,191.52641 L947.753077,232.894615 L889.146282,232.894615 L883.986282,265.409231 L939.704359,265.409231 L933.144103,306.76641 L877.420513,306.76641 L872.084103,340.411154 L930.69641,340.411154 L924.130641,381.773846 L816.492821,381.773846 L846.675513,191.52641" id="Fill-5" fill="#344E90" sketch:type="MSShapeGroup"></path>
            <path d="M229.846026,191.52641 L337.483846,191.52641 L330.918077,232.894615 L272.311282,232.894615 L267.151282,265.409231 L322.869359,265.409231 L316.309103,306.76641 L260.591026,306.76641 L255.249103,340.411154 L313.86141,340.411154 L307.301154,381.773846 L199.657821,381.773846 L229.846026,191.52641" id="Fill-6" fill="#344E90" sketch:type="MSShapeGroup"></path>
            <g id="Group-11">
                <mask id="mask-2" sketch:name="Clip 8" fill="white">
                    <use xlink:href="#path-1"></use>
                </mask>
                <g id="Clip-8"></g>
                <path d="M622.662051,191.52641 L731.507179,191.52641 L724.946923,232.894615 L665.121795,232.894615 L659.884615,265.409231 L714.318205,265.409231 L707.730385,306.76641 L653.318846,306.76641 L641.416667,381.773846 L592.468333,381.773846 L622.662051,191.52641" id="Fill-7" fill="#344E90" sketch:type="MSShapeGroup" mask="url(#mask-2)"></path>
                <path d="M1025.63269,232.894615 L1035.75974,232.894615 C1073.2359,232.894615 1087.88346,259.323077 1083.84808,284.825385 C1078.41244,319.037949 1053.81974,340.411154 1021.68,340.411154 L1008.57051,340.411154 L1025.63269,232.894615 L1025.63269,232.894615 Z M983.167436,191.52641 L1047.06103,191.52641 C1123.18205,191.52641 1140.5309,249.102308 1134.56603,286.699744 C1126.03769,340.411154 1078.15333,381.773846 1016.87833,381.773846 L952.984744,381.773846 L983.167436,191.52641 L983.167436,191.52641 Z" id="Fill-9" fill="#344E90" sketch:type="MSShapeGroup" mask="url(#mask-2)"></path>
                <path d="M0,165.610641 L90.6969231,165.610641 L101.468974,303.822564 C161.476026,199.955513 222.469872,100.008077 283.904744,1.83576923 L313.481026,1.83576923 C248.440769,127.263462 184.227436,253.501538 122.031795,381.773846 L55.4479487,381.773846 L39.2182051,229.355385 C35.1883333,191.52641 27.5475641,175.467564 0,171.399103 L0,165.610641" id="Fill-10" fill="#344E90" sketch:type="MSShapeGroup" mask="url(#mask-2)"></path>
            </g>
            <path d="M34.339359,87.014359 L111.667692,119.79359 L118.387821,205.909359 L124.104615,205.909359 L194.299359,87.0694872 L194.299359,81.1046154 L34.3283333,81.1046154 L34.339359,87.014359" id="Fill-12" fill="#EC902D" sketch:type="MSShapeGroup"></path>
            <path d="M352.241667,426.510385 L383.973462,426.510385 L373.27859,501.490256 C382.341667,492.74141 393.427949,487.333333 405.815256,487.333333 C431.273462,487.333333 447.966282,511.865385 443.467821,542.141795 C438.969359,572.418205 414.966538,596.977821 389.508333,596.977821 C376.955641,596.977821 367.958718,591.321667 361.828462,581.812051 L360.136026,593.703205 L328.398718,593.703205 L352.241667,426.510385 L352.241667,426.510385 Z M391.845769,518.039744 C403.571538,518.039744 411.537564,528.784231 409.635641,542.031538 C407.739231,555.267821 396.697051,566.006795 384.976795,566.006795 C373.251026,566.006795 365.279487,555.267821 367.18141,542.031538 C369.077821,528.784231 380.125513,518.039744 391.845769,518.039744 L391.845769,518.039744 Z" id="Fill-13" fill="#344E90" sketch:type="MSShapeGroup"></path>
            <path d="M446.191154,489.885769 L484.268205,489.885769 L501.297308,543.029359 L534.379744,489.885769 L571.177821,489.885769 L474.604231,645 L437.811667,645 L478.529359,579.590385 L446.191154,489.885769" id="Fill-14" fill="#344E90" sketch:type="MSShapeGroup"></path>
            <path d="M760.388846,593.648077 L788.278205,426.460769 L833.907821,426.460769 L806.018462,593.648077 L760.388846,593.648077" id="Fill-15" fill="#344E90" sketch:type="MSShapeGroup"></path>
            <path d="M722.245641,426.113462 C706.517564,463.143077 693.099359,502.488077 676.902692,539.04359 L672.145128,517.108077 C672.12859,517.030897 672.09,516.926154 672.073462,516.843462 L672.872821,520.746538 C669.355641,509.208205 663.374231,498.320385 655.722436,488.336667 C655.518462,488.083077 655.32,487.823974 655.110513,487.564872 C653.770897,485.844872 652.34859,484.18 650.915256,482.515128 C650.044231,481.495256 649.151154,480.48641 648.241538,479.477564 C637.193846,467.398974 623.803205,456.968718 609.662821,448.699487 L650.226154,593.284231 L699.130385,593.284231 C722.151923,536.866026 746.992692,482.28359 770.262308,426.113462 L722.245641,426.113462" id="Fill-16" fill="#344E90" sketch:type="MSShapeGroup"></path>
            <path d="M636.124359,426.141026 L561.530385,426.141026 L561.530385,429.779487 C604.469744,438.153462 658.682821,474.174231 672.872821,520.746538 L656.86359,442.877949 C654.675,430.876538 646.317564,426.141026 636.124359,426.141026" id="Fill-17" fill="#EC902D" sketch:type="MSShapeGroup"></path>
            <path d="M1056.89038,472.432179 L1033.65385,534.594744 L1071.22923,534.594744 L1056.89038,472.432179 L1056.89038,472.432179 Z M1126.13141,594.171795 L1084.33872,594.171795 C1081.63744,586.200256 1080.88218,576.288205 1078.11474,568.382821 L1021.21141,568.382821 L1010.53859,594.171795 L962.521923,594.171795 L1024.76167,451.014872 C1027.51256,444.730256 1032.45756,436.157821 1034.54692,432.337436 C1037.71128,426.548974 1049.94423,426.113462 1055.14282,426.113462 L1089.67513,426.113462 L1126.13141,594.171795 L1126.13141,594.171795 Z" id="Fill-18" fill="#344E90" sketch:type="MSShapeGroup"></path>
        </g>
    </g>
</svg>