<?xml version="1.0" encoding="UTF-8"?>
<svg width="74px" height="42px" viewBox="0 0 74 42" version="1.1" xmlns="http://www.w3.org/2000/svg" xmlns:xlink="http://www.w3.org/1999/xlink">
    <!-- Generator: Sketch 49.3 (51167) - http://www.bohemiancoding.com/sketch -->
    <title>assets/AP_logo_outlines</title>
    <desc>Created with Sketch.</desc>
    <defs></defs>
    <g id="assets/AP_logo_outlines" stroke="none" stroke-width="1" fill="none" fill-rule="evenodd">
        <g id="Group" transform="translate(2.000000, 2.000000)" fill="#000000">
            <path d="M7.2187499,24 L6.04570304,21.0029297 L2.26874997,21.0029297 L1.10859373,24 L0,24 L3.72539057,14.5382814 L4.64707025,14.5382814 L8.35312488,24 L7.2187499,24 Z M5.70410148,20.0167969 L4.60839837,17.0970704 C4.46660079,16.7275373 4.3205085,16.2742215 4.17011713,15.7371095 C4.07558541,16.1496116 3.9402352,16.6029273 3.76406245,17.0970704 L2.65546871,20.0167969 L5.70410148,20.0167969 Z M13.2601561,16.8070314 C13.5738295,16.8070314 13.855272,16.8328123 14.104492,16.8843751 L13.9562498,17.8769532 C13.6640609,17.8124998 13.4062509,17.7802735 13.1828123,17.7802735 C12.6113251,17.7802735 12.1225605,18.0123025 11.7165038,18.4763673 C11.310447,18.9404321 11.1074217,19.518356 11.1074217,20.2101563 L11.1074217,24 L10.0374999,24 L10.0374999,16.9359376 L10.9205077,16.9359376 L11.0429686,18.244336 L11.0945311,18.244336 C11.3566418,17.7845681 11.6724589,17.4300795 12.041992,17.1808595 C12.4115251,16.9316395 12.8175757,16.8070314 13.2601561,16.8070314 Z M20.5326169,22.0728516 C20.5326169,22.7302767 20.2876975,23.2373029 19.7978513,23.5939453 C19.3080051,23.9505877 18.620512,24.1289062 17.7353513,24.1289062 C16.7986279,24.1289062 16.0681665,23.9806655 15.5439451,23.6841797 L15.5439451,22.6916016 C15.8833999,22.8634774 16.2475565,22.9988276 16.6364256,23.0976563 C17.0252947,23.1964849 17.4001933,23.2458984 17.7611326,23.2458984 C18.3197291,23.2458984 18.7494123,23.1567392 19.0501951,22.978418 C19.3509778,22.8000968 19.5013669,22.5283222 19.5013669,22.163086 C19.5013669,21.8880846 19.3821299,21.652833 19.1436521,21.4573243 C18.9051744,21.2618155 18.4400423,21.0308607 17.748242,20.7644532 C17.0908168,20.5195301 16.6235363,20.3057627 16.3463865,20.1231446 C16.0692367,19.9405265 15.8629888,19.7332043 15.7276365,19.5011719 C15.5922843,19.2691395 15.5246092,18.9919939 15.5246092,18.6697266 C15.5246092,18.0939425 15.7587865,17.6395525 16.2271482,17.3065431 C16.69551,16.9735336 17.3378863,16.8070314 18.1542967,16.8070314 C18.9148473,16.8070314 19.6581992,16.9617173 20.3843747,17.2710938 L20.0041013,18.141211 C19.2951134,17.8490221 18.652737,17.7029298 18.0769529,17.7029298 C17.5699191,17.7029298 17.1875011,17.7824212 16.9296873,17.9414063 C16.6718735,18.1003915 16.5429686,18.3195299 16.5429686,18.5988282 C16.5429686,18.7878916 16.5913079,18.9490228 16.6879881,19.0822266 C16.7846682,19.2154304 16.9404284,19.342187 17.1552732,19.4625001 C17.3701181,19.5828132 17.7826139,19.7568349 18.3927732,19.9845704 C19.230668,20.28965 19.7967756,20.5968735 20.091113,20.90625 C20.3854504,21.2156266 20.5326169,21.6044899 20.5326169,22.0728516 Z M25.8070309,24.1289062 C24.7628851,24.1289062 23.9389676,23.8109407 23.3352536,23.175 C22.7315397,22.5390593 22.4296872,21.6560604 22.4296872,20.5259766 C22.4296872,19.3872991 22.7100555,18.4828159 23.2708005,17.8125001 C23.8315455,17.1421842 24.5845653,16.8070314 25.5298825,16.8070314 C26.4150432,16.8070314 27.1154268,17.0981417 27.6310543,17.6803712 C28.1466819,18.2626007 28.4044918,19.0306594 28.4044918,19.9845704 L28.4044918,20.6613282 L23.538281,20.6613282 C23.5597655,21.4906292 23.769236,22.1201151 24.1666989,22.5498047 C24.5641618,22.9794944 25.1238242,23.1943359 25.8457028,23.1943359 C26.6062535,23.1943359 27.3581991,23.0353532 28.1015622,22.7173828 L28.1015622,23.6712891 C27.7234353,23.8345711 27.365724,23.9516598 27.0284176,24.0225586 C26.6911113,24.0934574 26.2839864,24.1289062 25.8070309,24.1289062 Z M25.5169919,17.7029298 C24.9498016,17.7029298 24.49756,17.8876936 24.1602536,18.2572266 C23.8229472,18.6267597 23.6242188,19.1380827 23.5640622,19.791211 L27.2572262,19.791211 C27.2572262,19.1165983 27.1068371,18.5999042 26.8060544,18.2411134 C26.5052716,17.8823225 26.0755884,17.7029298 25.5169919,17.7029298 Z M35.6124996,24 L35.6124996,19.4302735 C35.6124996,18.8544894 35.4814462,18.4248062 35.2193355,18.141211 C34.9572248,17.8576159 34.5468774,17.7158204 33.9882808,17.7158204 C33.2492147,17.7158204 32.7078138,17.9156231 32.3640621,18.3152345 C32.0203104,18.7148458 31.8484371,19.3744095 31.8484371,20.2939454 L31.8484371,24 L30.7785153,24 L30.7785153,16.9359376 L31.6486324,16.9359376 L31.8226559,17.9027345 L31.8742184,17.9027345 C32.0933601,17.5546859 32.4005836,17.2850596 32.795898,17.0938478 C33.1912125,16.9026359 33.6316378,16.8070314 34.1171871,16.8070314 C34.9679726,16.8070314 35.6082005,17.0122051 36.0378902,17.4225587 C36.4675798,17.8329123 36.6824214,18.4892534 36.6824214,19.3916016 L36.6824214,24 L35.6124996,24 Z M43.7744135,24 L43.5617182,22.9945313 L43.5101557,22.9945313 C43.1578102,23.4371116 42.8065442,23.7368156 42.4563471,23.8936523 C42.1061501,24.0504891 41.6689474,24.1289062 41.1447261,24.1289062 C40.444332,24.1289062 39.8954117,23.9484393 39.4979487,23.5875 C39.1004858,23.2265607 38.9017573,22.7130893 38.9017573,22.0470703 C38.9017573,20.6205007 40.0425662,19.872852 42.3242182,19.8041016 L43.5230463,19.7654297 L43.5230463,19.3271485 C43.5230463,18.7728489 43.4038093,18.3635756 43.1653315,18.0993165 C42.9268538,17.8350574 42.5455099,17.7029298 42.0212886,17.7029298 C41.4326137,17.7029298 40.7666048,17.8833967 40.0232417,18.244336 L39.6945308,17.4257813 C40.0425794,17.2367179 40.4239232,17.0884772 40.8385737,16.9810548 C41.2532242,16.8736324 41.6689427,16.819922 42.0857417,16.819922 C42.9279334,16.819922 43.5520482,17.0068342 43.9581049,17.3806642 C44.3641616,17.7544941 44.567187,18.3539022 44.567187,19.1789063 L44.567187,24 L43.7744135,24 Z M41.3574214,23.2458984 C42.0234403,23.2458984 42.5465796,23.0632831 42.9268549,22.6980469 C43.3071303,22.3328107 43.4972651,21.8214877 43.4972651,21.1640625 L43.4972651,20.5259766 L42.4273432,20.5710938 C41.5765577,20.6011721 40.963185,20.7332997 40.5872065,20.9674805 C40.2112281,21.2016614 40.0232417,21.5658179 40.0232417,22.059961 C40.0232417,22.4466816 40.1403304,22.7410146 40.3745112,22.9429688 C40.6086921,23.1449229 40.9363255,23.2458984 41.3574214,23.2458984 Z M48.3914057,24 L47.3214838,24 L47.3214838,13.9710939 L48.3914057,13.9710939 L48.3914057,24 Z" id="Arsenal" fill-opacity="0.7"></path>
            <path d="M56.9702636,17.3226563 C56.9702636,18.2765674 56.6447785,19.0102514 55.9937987,19.5237305 C55.3428189,20.0372097 54.4114806,20.2939454 53.1997558,20.2939454 L52.0911621,20.2939454 L52.0911621,24 L50.995459,24 L50.995459,14.5769533 L53.4382324,14.5769533 C55.7929316,14.5769533 56.9702636,15.4921785 56.9702636,17.3226563 Z M52.0911621,19.3529298 L53.0772949,19.3529298 C54.0483935,19.3529298 54.7509255,19.1960954 55.184912,18.8824219 C55.6188986,18.5687485 55.8358886,18.0660192 55.8358886,17.3742188 C55.8358886,16.7511689 55.6317891,16.287111 55.2235839,15.9820314 C54.8153787,15.6769517 54.1794476,15.5244142 53.3157714,15.5244142 L52.0911621,15.5244142 L52.0911621,19.3529298 Z M62.4755369,24 L62.2628416,22.9945313 L62.2112791,22.9945313 C61.8589336,23.4371116 61.5076676,23.7368156 61.1574706,23.8936523 C60.8072735,24.0504891 60.3700708,24.1289062 59.8458495,24.1289062 C59.1454554,24.1289062 58.5965351,23.9484393 58.1990722,23.5875 C57.8016092,23.2265607 57.6028808,22.7130893 57.6028808,22.0470703 C57.6028808,20.6205007 58.7436896,19.872852 61.0253416,19.8041016 L62.2241698,19.7654297 L62.2241698,19.3271485 C62.2241698,18.7728489 62.1049327,18.3635756 61.8664549,18.0993165 C61.6279772,17.8350574 61.2466333,17.7029298 60.722412,17.7029298 C60.1337372,17.7029298 59.4677282,17.8833967 58.7243651,18.244336 L58.3956542,17.4257813 C58.7437028,17.2367179 59.1250466,17.0884772 59.5396971,16.9810548 C59.9543476,16.8736324 60.3700661,16.819922 60.7868651,16.819922 C61.6290568,16.819922 62.2531716,17.0068342 62.6592283,17.3806642 C63.0652851,17.7544941 63.2683104,18.3539022 63.2683104,19.1789063 L63.2683104,24 L62.4755369,24 Z M60.0585448,23.2458984 C60.7245637,23.2458984 61.247703,23.0632831 61.6279784,22.6980469 C62.0082537,22.3328107 62.1983885,21.8214877 62.1983885,21.1640625 L62.1983885,20.5259766 L61.1284666,20.5710938 C60.2776812,20.6011721 59.6643084,20.7332997 59.28833,20.9674805 C58.9123515,21.2016614 58.7243651,21.5658179 58.7243651,22.059961 C58.7243651,22.4466816 58.8414538,22.7410146 59.0756346,22.9429688 C59.3098155,23.1449229 59.6374489,23.2458984 60.0585448,23.2458984 Z M63.7011229,16.9359376 L64.8483885,16.9359376 L66.3952635,20.9642579 C66.7347183,21.8837937 66.945263,22.5476542 67.0269041,22.9558594 L67.0784666,22.9558594 C67.1343262,22.7367177 67.2514149,22.3618191 67.4297361,21.8311524 C67.6080573,21.3004857 68.1913522,19.6687637 69.1796384,16.9359376 L70.326904,16.9359376 L67.2911619,24.9796875 C66.9903791,25.7746133 66.6391131,26.3385725 66.2373533,26.671582 C65.8355935,27.0045915 65.342532,27.1710937 64.7581541,27.1710937 C64.43159,27.1710937 64.1093276,27.1345706 63.7913572,27.0615234 L63.7913572,26.2042968 C64.0276866,26.2558596 64.2919417,26.2816406 64.5841307,26.2816406 C65.3189,26.2816406 65.8431135,25.8691447 66.1567869,25.0441406 L66.549951,24.0386719 L63.7011229,16.9359376 Z" id="Pay" fill-opacity="0.7"></path>
            <path d="M45.9989879,6.08180799 C46.5619736,5.75387189 47.4006068,6.21209612 47.8716074,7.10520499 C48.3429156,7.99860929 48.2684661,8.9886218 47.7051728,9.31655791 C47.1421872,9.64478945 46.3038616,9.18656522 45.8325534,8.29316091 C45.3612452,7.39975661 45.4360023,6.4097441 45.9989879,6.08180799 Z M50.3438219,7.77880347 C50.90127,7.44052704 51.7472867,7.8833885 52.233054,8.76792967 C52.7191291,9.65247084 52.6609847,10.6436651 52.1035366,10.9819415 C51.5460885,11.320218 50.7000718,10.8773565 50.2139968,9.99281534 C49.7282294,9.1085696 49.7860662,8.1170799 50.3438219,7.77880347 Z M41.6175445,8.99334881 C42.1036196,8.54960104 43.0142411,8.81460886 43.6519839,9.58540643 C44.289419,10.356204 44.412476,11.3408986 43.9267086,11.7849418 C43.4406335,12.2286896 42.530012,11.9636818 41.8922692,11.1928842 C41.2548341,10.4220867 41.1317771,9.43739202 41.6175445,8.99334881 Z M45.5446001,2.92387193 C45.7977898,2.59504952 46.3927703,2.6603413 46.8736154,3.0692274 C47.3541528,3.47840893 47.5384306,4.07637531 47.2852409,4.40490229 C47.0320512,4.73372471 46.4370708,4.66843292 45.9565333,4.25925139 C45.4756882,3.85036529 45.2914104,3.25239892 45.5446001,2.92387193 Z M44.919163,0.109234756 C45.0711384,-0.0878223446 45.4726118,-0.0110084822 45.8159407,0.281179633 C46.1592697,0.573367747 46.3143214,0.97014089 46.1623461,1.16719799 C46.0103707,1.36425509 45.6088974,1.28744123 45.2655684,0.995253114 C44.9222395,0.703065 44.7671877,0.306291857 44.919163,0.109234756 Z M53.4322442,6.34386144 C53.7808031,6.13232788 54.3139474,6.41742548 54.623128,6.98023474 C54.9323087,7.543044 54.9006215,8.17084961 54.5520626,8.38208773 C54.2038114,8.59362129 53.6703595,8.30881912 53.3611788,7.74571442 C53.0519982,7.18290516 53.0836853,6.555395 53.4322442,6.34386144 Z M55.0495204,5.29003433 C55.2584097,5.16329146 55.6069685,5.3863471 55.8278558,5.78843812 C56.048743,6.19052915 56.05828,6.61920959 55.8493907,6.74595246 C55.6401939,6.87299077 55.291635,6.6496397 55.0707478,6.24784411 C54.8498605,5.84575308 54.8403236,5.41677721 55.0495204,5.29003433 Z M38.4057576,7.53802156 C38.5758839,7.15483856 39.1680955,7.06679806 39.72862,7.34155533 C40.2891445,7.61631261 40.6057086,8.14957808 40.4355823,8.53276107 C40.2654561,8.91594407 39.6732444,9.00398458 39.1127199,8.72952274 C38.5521954,8.45476546 38.2356314,7.92149999 38.4057576,7.53802156 Z M36.0009168,6.61714152 C36.0218365,6.36454209 36.395622,6.19230178 36.8358583,6.23277677 C37.2760946,6.27325177 37.6157319,6.51107931 37.5945045,6.76367874 C37.5735849,7.01657361 37.1997993,7.18851848 36.759563,7.14804349 C36.3196343,7.10756849 35.9799971,6.87003639 36.0009168,6.61714152 Z" id="Combined-Shape" fill-opacity="0.300000012"></path>
            <path d="M45.9989879,32.081808 C46.5619736,31.7538719 47.4006068,32.2120961 47.8716074,33.105205 C48.3429156,33.9986093 48.2684661,34.9886218 47.7051728,35.3165579 C47.1421872,35.6447895 46.3038616,35.1865652 45.8325534,34.2931609 C45.3612452,33.3997566 45.4360023,32.4097441 45.9989879,32.081808 Z M50.3438219,33.7788035 C50.90127,33.440527 51.7472867,33.8833885 52.233054,34.7679297 C52.7191291,35.6524708 52.6609847,36.6436651 52.1035366,36.9819415 C51.5460885,37.320218 50.7000718,36.8773565 50.2139968,35.9928153 C49.7282294,35.1085696 49.7860662,34.1170799 50.3438219,33.7788035 Z M41.6175445,34.9933488 C42.1036196,34.549601 43.0142411,34.8146089 43.6519839,35.5854064 C44.289419,36.356204 44.412476,37.3408986 43.9267086,37.7849418 C43.4406335,38.2286896 42.530012,37.9636818 41.8922692,37.1928842 C41.2548341,36.4220867 41.1317771,35.437392 41.6175445,34.9933488 Z M45.5446001,28.9238719 C45.7977898,28.5950495 46.3927703,28.6603413 46.8736154,29.0692274 C47.3541528,29.4784089 47.5384306,30.0763753 47.2852409,30.4049023 C47.0320512,30.7337247 46.4370708,30.6684329 45.9565333,30.2592514 C45.4756882,29.8503653 45.2914104,29.2523989 45.5446001,28.9238719 Z M44.919163,26.1092348 C45.0711384,25.9121777 45.4726118,25.9889915 45.8159407,26.2811796 C46.1592697,26.5733677 46.3143214,26.9701409 46.1623461,27.167198 C46.0103707,27.3642551 45.6088974,27.2874412 45.2655684,26.9952531 C44.9222395,26.703065 44.7671877,26.3062919 44.919163,26.1092348 Z M53.4322442,32.3438614 C53.7808031,32.1323279 54.3139474,32.4174255 54.623128,32.9802347 C54.9323087,33.543044 54.9006215,34.1708496 54.5520626,34.3820877 C54.2038114,34.5936213 53.6703595,34.3088191 53.3611788,33.7457144 C53.0519982,33.1829052 53.0836853,32.555395 53.4322442,32.3438614 Z M55.0495204,31.2900343 C55.2584097,31.1632915 55.6069685,31.3863471 55.8278558,31.7884381 C56.048743,32.1905291 56.05828,32.6192096 55.8493907,32.7459525 C55.6401939,32.8729908 55.291635,32.6496397 55.0707478,32.2478441 C54.8498605,31.8457531 54.8403236,31.4167772 55.0495204,31.2900343 Z M38.4057576,33.5380216 C38.5758839,33.1548386 39.1680955,33.0667981 39.72862,33.3415553 C40.2891445,33.6163126 40.6057086,34.1495781 40.4355823,34.5327611 C40.2654561,34.9159441 39.6732444,35.0039846 39.1127199,34.7295227 C38.5521954,34.4547655 38.2356314,33.9215 38.4057576,33.5380216 Z M36.0009168,32.6171415 C36.0218365,32.3645421 36.395622,32.1923018 36.8358583,32.2327768 C37.2760946,32.2732518 37.6157319,32.5110793 37.5945045,32.7636787 C37.5735849,33.0165736 37.1997993,33.1885185 36.759563,33.1480435 C36.3196343,33.1075685 35.9799971,32.8700364 36.0009168,32.6171415 Z" id="Combined-Shape-Copy" fill-opacity="0.300000012" transform="translate(46.000000, 32.000000) scale(1, -1) translate(-46.000000, -32.000000) "></path>
        </g>
    </g>
</svg>