<?xml version="1.0" encoding="UTF-8" standalone="no"?>
<svg width="1142px" height="407px" viewBox="0 0 1142 407" version="1.1" xmlns="http://www.w3.org/2000/svg" xmlns:xlink="http://www.w3.org/1999/xlink" xmlns:sketch="http://www.bohemiancoding.com/sketch/ns">
    <!-- Generator: Sketch 3.3 (11970) - http://www.bohemiancoding.com/sketch -->
    <title>MasterCard_SecureCode</title>
    <desc>Created with Sketch.</desc>
    <defs></defs>
    <g id="Page-1" stroke="none" stroke-width="1" fill="none" fill-rule="evenodd" sketch:type="MSPage">
        <g id="MasterCard_SecureCode" sketch:type="MSLayerGroup" transform="translate(0.000000, -2.000000)">
            <g id="Group" sketch:type="MSShapeGroup">
                <g transform="translate(6.505108, 0.000000)" id="Shape" fill="#EC2127">
                    <path d="M1072.65006,161.881667 C1072.65006,149.39619 1082.32641,139.292619 1094.13968,139.292619 C1106.01801,139.292619 1115.59353,149.39619 1115.59353,161.881667 C1115.59353,174.386667 1106.02126,184.490238 1094.13968,184.490238 C1082.32641,184.490238 1072.65006,174.386667 1072.65006,161.881667 L1072.65006,161.881667 L1072.65006,161.881667 Z M1094.14294,179.13746 C1103.17203,179.13746 1110.54231,171.386508 1110.54231,161.881667 C1110.54231,152.425635 1103.17203,144.743016 1094.14294,144.743016 C1085.14962,144.743016 1077.74356,152.425635 1077.74356,161.881667 C1077.74356,171.386508 1085.14962,179.13746 1094.14294,179.13746 L1094.14294,179.13746 L1094.14294,179.13746 Z M1091.21889,171.783492 L1086.81818,171.783492 L1086.81818,151.882222 L1094.7967,151.882222 C1096.41972,151.882222 1098.24115,151.979841 1099.6365,152.97881 C1101.16195,154.101429 1102.04014,155.985476 1102.04014,157.980159 C1102.04014,160.186349 1100.7879,162.249365 1098.79409,162.997778 L1102.23854,171.783492 L1097.3467,171.783492 L1094.43567,163.98373 L1091.21564,163.98373 L1091.21564,171.783492 L1091.21889,171.783492 L1091.21889,171.783492 Z M1091.21889,160.599603 L1093.67132,160.599603 C1094.57227,160.599603 1095.61634,160.628889 1096.37094,160.186349 C1097.11577,159.701508 1097.44753,158.735079 1097.44753,157.88254 C1097.44753,157.134127 1097.01494,156.232778 1096.37094,155.881349 C1095.71392,155.435556 1094.39013,155.536429 1093.61928,155.536429 L1091.21889,155.536429 L1091.21889,160.599603 L1091.21889,160.599603 Z"></path>
                    <path d="M765.397536,11.6589683 L759.510413,49.9679365 C746.740886,43.1671429 737.350762,40.5021429 727.319885,40.5021429 C700.554617,40.5021429 681.624753,67.7215873 681.624753,106.58373 C681.624753,133.425714 694.332481,149.597937 715.230141,149.597937 C724.099857,149.597937 733.847761,146.74746 745.774877,140.496587 L739.494195,180.81 C726.301836,184.607381 717.695577,185.957778 707.719994,185.957778 C668.949549,185.957778 644.835113,156.701349 644.835113,109.740079 C644.835113,46.5707937 678.154277,2.46 725.817205,2.46 C731.97429,2.46 737.474359,3.06198413 741.943368,4.35706349 L756.762005,8.24230159 C761.172468,9.98968254 762.164497,10.2565079 765.397536,11.6589683 L765.397536,11.6589683 L765.397536,11.6589683 Z"></path>
                    <path d="M646.064579,37.9152381 C644.935942,37.7004762 643.686962,37.5442857 642.38594,37.5442857 C630.540138,37.5442857 623.843129,43.8146825 612.842991,60.9240476 L616.036999,39.0996825 L583.469175,39.0996825 L561.390838,182.707063 L597.520209,182.707063 C610.439353,94.9345238 613.743948,79.7775397 631.063799,79.7775397 C632.117627,79.7775397 632.215203,79.7775397 633.691863,79.9239683 C636.885871,62.6193651 641.260556,49.8963492 647.294044,38.2926984 L646.064579,37.9152381 L646.064579,37.9152381 Z"></path>
                    <path d="M430.810548,180.953175 C421.036623,184.207143 413.311807,185.687698 405.014542,185.687698 C386.663631,185.687698 376.642512,174.50381 376.642512,154.098175 C376.642512,150.095794 376.941747,145.777778 377.667067,141.222222 L379.891814,127.220397 L381.540859,115.782698 L397.140108,17.7926984 L432.882425,17.7926984 L428.784207,39.0996825 L447.180653,39.0996825 L442.129436,74.008254 L423.778526,74.008254 L414.281068,133.943095 C413.955813,136.588571 413.679346,138.540952 413.679346,139.891349 C413.679346,147.245317 417.429541,150.531825 425.928465,150.531825 C430.075471,150.531825 433.201175,150.099048 435.604813,149.19119 L430.810548,180.953175 L430.810548,180.953175 Z"></path>
                    <path d="M289.080503,84.5120635 C289.080503,102.636667 297.426557,115.170952 316.327149,124.539127 C330.801015,131.740159 333.10057,133.838968 333.10057,140.37619 C333.10057,149.298571 326.676776,153.431111 312.528166,153.431111 C301.856536,153.431111 291.880952,151.647937 280.383174,147.681349 L275.410018,180.806746 L277.036295,181.151667 L283.635728,182.550873 C285.759646,183.003175 288.88535,183.406667 293.009589,183.85246 C301.583321,184.652937 308.156733,185.036905 312.807885,185.036905 C350.524503,185.036905 367.974456,169.801825 367.974456,137.092937 C367.974456,117.438968 360.701745,105.815794 342.728131,97.1146825 C327.730604,89.9657143 326.029518,88.2801587 326.029518,81.6127778 C326.029518,73.8227778 331.978439,69.8203968 343.528259,69.8203968 C350.573291,69.8203968 360.126043,70.6566667 369.246204,71.958254 L374.368977,38.7970635 C364.995116,37.1993651 351.074184,35.9661111 342.825707,35.9661111 C302.806282,35.9661111 288.930886,58.0052381 289.080503,84.5120635 L289.080503,84.5120635 L289.080503,84.5120635 Z"></path>
                    <path d="M1051.77842,182.707063 L1017.7502,182.707063 L1019.53585,168.636905 C1009.62532,179.75246 999.454582,184.604127 986.314263,184.604127 C960.017363,184.604127 942.785331,160.898968 942.785331,124.991429 C942.785331,77.2264286 969.563609,36.896746 1001.36383,36.896746 C1015.3368,36.896746 1025.9011,42.949127 1035.85066,56.5572222 L1043.67631,6.10769841 L1079.11614,6.10769841 L1051.77842,182.707063 L1051.77842,182.707063 Z M998.712999,148.895079 C1015.51244,148.895079 1027.25416,128.938492 1027.25416,100.515079 C1027.25416,82.2635714 1020.55065,72.3226984 1008.12589,72.3226984 C991.8371,72.3226984 980.258007,92.3606349 980.258007,120.621349 C980.258007,139.426032 986.489901,148.895079 998.712999,148.895079 L998.712999,148.895079 L998.712999,148.895079 Z"></path>
                    <path d="M544.695477,179.690635 C532.394318,183.556349 520.50298,185.50873 507.752968,185.456667 C467.658734,185.456667 446.709033,163.381746 446.709033,121.174524 C446.709033,71.8215873 473.353956,35.4942857 509.577651,35.4942857 C539.1206,35.4942857 558.096,55.8543651 558.096,87.7627778 C558.096,98.3284127 556.817747,108.630476 553.617233,123.185476 L482.126094,123.185476 C481.826859,125.372143 481.781324,126.371111 481.781324,127.640159 C481.781324,144.424127 492.475721,152.877937 513.399402,152.877937 C526.224223,152.877937 537.77079,150.095794 550.69644,143.744048 L544.695477,179.690635 L544.695477,179.690635 Z M524.523137,94.1763492 C524.728048,91.1761905 524.776836,88.7292063 524.776836,86.9102381 C524.776836,75.1731746 518.447366,68.3203175 507.752968,68.3203175 C496.349513,68.3203175 488.179097,77.4737302 484.828967,94.0787302 L524.523137,94.1763492 L524.523137,94.1763492 Z"></path>
                    <path d="M144.7289,182.707063 L108.807692,182.707063 L129.380097,47.0003175 L83.4117499,182.707063 L58.7931679,182.707063 L55.8170809,47.7975397 L34.1453129,182.707063 L0.500893331,182.707063 L28.5704352,6.10444444 L80.3380863,6.10444444 L81.762705,115.385714 L116.704894,6.10444444 L172.574015,6.10444444 L144.7289,182.707063 L144.7289,182.707063 Z"></path>
                    <path d="M237.290084,118.737302 C233.487849,118.285 231.816036,118.119048 229.240013,118.119048 C208.869267,118.119048 198.54566,125.534841 198.54566,140.041032 C198.54566,148.982937 203.619644,154.680635 211.468057,154.680635 C226.091541,154.680635 236.691614,140.041032 237.290084,118.737302 L237.290084,118.737302 L237.290084,118.737302 Z M263.437367,182.707063 L233.663487,182.707063 L234.313997,167.797381 C225.239371,179.687381 213.117102,185.202857 196.642916,185.202857 C177.095066,185.202857 163.749836,169.199841 163.749836,146.077143 C163.749836,111.018889 187.070649,90.6653175 226.940457,90.6653175 C231.012655,90.6653175 236.213489,90.9809524 241.56394,91.7293651 C242.686072,86.9785714 242.988559,84.9285714 242.988559,82.41 C242.988559,72.9246825 236.740403,69.3257937 219.88892,69.3257937 C209.718183,69.3257937 198.041514,70.8746825 189.994695,73.4290476 L184.99552,74.8770635 L181.847047,75.8076984 L186.794182,43.5999206 C204.745028,38.0193651 216.56481,35.8684921 229.887271,35.8684921 C260.783283,35.8684921 277.15664,50.4527778 277.15664,77.9748413 C277.15664,85.1238095 276.632979,90.4277778 274.183806,106.463333 L266.660648,157.345635 L265.434435,166.534841 L264.51071,173.853016 L263.886219,178.854365 L263.437367,182.707063 L263.437367,182.707063 Z"></path>
                    <path d="M827.329419,118.737302 C823.588981,118.285 821.852117,118.119048 819.341146,118.119048 C798.889085,118.119048 788.532953,125.534841 788.532953,140.041032 C788.532953,148.982937 793.662231,154.680635 801.513897,154.680635 C816.205684,154.680635 826.685413,140.041032 827.329419,118.737302 L827.329419,118.737302 L827.329419,118.737302 Z M853.502721,182.707063 L823.689811,182.707063 L824.382605,167.797381 C815.314484,179.687381 803.166194,185.202857 786.714775,185.202857 C767.166925,185.202857 753.766402,169.199841 753.766402,146.077143 C753.766402,111.018889 777.064447,90.6653175 817.012317,90.6653175 C821.061747,90.6653175 826.311369,90.9809524 831.626043,91.7293651 C832.728658,86.9785714 833.050661,84.9285714 833.050661,82.41 C833.050661,72.9246825 826.805757,69.3257937 809.96078,69.3257937 C799.728244,69.3257937 788.084101,70.8746825 780.105586,73.4290476 L774.992571,74.8770635 L771.883129,75.8076984 L776.885557,43.5999206 C794.859171,38.0193651 806.652932,35.8684921 819.88107,35.8684921 C850.825869,35.8684921 867.199227,50.4527778 867.199227,77.9748413 C867.199227,85.1238095 866.581241,90.4277778 864.252413,106.463333 L856.670709,157.345635 L855.558336,166.534841 L854.553296,173.853016 L853.89628,178.854365 L853.502721,182.707063 L853.502721,182.707063 Z"></path>
                    <path d="M953.935087,37.9152381 C952.871502,37.7004762 951.694077,37.5442857 950.318247,37.5442857 C938.514728,37.5442857 931.765678,43.8146825 920.713499,60.9240476 L923.920518,39.0996825 L891.394977,39.0996825 L869.407711,182.707063 L905.413485,182.707063 C918.34564,94.9345238 921.741306,79.7775397 938.944065,79.7775397 C940.059691,79.7775397 939.984882,79.6766667 941.458289,79.9239683 C944.717349,62.6193651 949.114802,49.8963492 955.158047,38.2926984 L953.935087,37.9152381 L953.935087,37.9152381 Z"></path>
                </g>
                <g transform="translate(0.000000, 221.269841)" id="Shape" fill="#F89620">
                    <path d="M809.570473,100.713571 C809.570473,133.269524 799.497313,152.438651 783.618344,152.438651 C772.026241,152.796587 764.997472,139.871825 764.997472,120.54 C764.997472,97.677619 775.265785,71.7630159 791.743224,71.7630159 C804.987624,71.7662698 809.570473,85.8071429 809.570473,100.713571 L809.570473,100.713571 L809.570473,100.713571 Z M844.932241,101.312302 C844.932241,65.1249206 827.059457,36.9585714 793.467078,36.9585714 C754.79421,36.9585714 729.749543,71.2098413 729.749543,121.633333 C729.749543,157.732857 744.551917,187.249603 781.165918,187.249603 C818.114933,187.249603 844.932241,161.077937 844.932241,101.312302 L844.932241,101.312302 L844.932241,101.312302 Z"></path>
                    <path d="M741.305868,11.5548413 L735.809051,49.8215079 C723.855915,43.0695238 715.158585,40.2678571 705.758704,40.2678571 C680.635976,40.2678571 663.088447,67.6044444 663.088447,106.466587 C663.088447,133.295556 674.839925,149.526349 694.413795,149.526349 C702.759849,149.526349 711.893021,146.675873 722.977725,140.418492 L717.155654,180.705873 C704.730897,184.535794 696.619027,185.847143 687.391531,185.847143 C651.197109,185.847143 628.650404,156.577698 628.650404,109.609921 C628.650404,46.4113492 659.767589,2.30706349 704.337338,2.30706349 C710.107369,2.30706349 715.213879,3.03920635 719.435694,4.20412698 L733.187493,8.10888889 C737.432076,9.79444444 738.310265,10.0905556 741.305868,11.5548413 L741.305868,11.5548413 L741.305868,11.5548413 Z"></path>
                    <path d="M518.980785,37.8501587 C517.95623,37.5670635 516.775553,37.4531746 515.529825,37.4531746 C504.627264,37.4531746 498.232742,43.7496032 488.013217,60.8003968 L490.986052,39.0150794 L460.584428,39.0150794 L440.060812,182.63873 L473.630423,182.63873 C485.707156,94.7783333 488.901164,79.6603968 505.00456,79.6603968 C505.954306,79.6603968 506.051882,79.6603968 507.453733,79.8230952 C510.481861,62.4501587 514.557311,49.7238889 520.203745,38.0974603 L518.980785,37.8501587 L518.980785,37.8501587 Z"></path>
                    <path d="M957.519402,181.102857 L925.797241,181.102857 L927.430024,167.084762 C918.202528,178.138492 908.60424,183.03246 896.325849,183.03246 C871.863389,183.03246 855.711206,159.288254 855.711206,123.390476 C855.711206,75.7035714 880.781893,35.256746 910.422418,35.256746 C923.500938,35.256746 933.424481,41.4392857 942.593431,55.047381 L949.999496,4.54904762 L983.045446,4.54904762 L957.519402,181.102857 L957.519402,181.102857 Z M907.885426,147.320159 C923.699344,147.320159 934.601905,127.379841 934.601905,98.9303968 C934.601905,80.6268254 928.373264,70.7998413 916.826697,70.7998413 C901.555956,70.7998413 890.705435,90.7629365 890.705435,119.114762 C890.705435,137.828333 896.527507,147.320159 907.885426,147.320159 L907.885426,147.320159 L907.885426,147.320159 Z"></path>
                    <path d="M204.149811,180.510635 C192.730093,184.45119 181.603106,186.358016 169.757304,186.358016 C132.26186,186.358016 112.691242,164.23754 112.691242,122.043333 C112.691242,72.7587302 137.586291,36.4021429 171.380328,36.4021429 C199.053058,36.4021429 216.698164,56.7264286 216.698164,88.6348413 C216.698164,99.1809524 215.497972,109.515556 212.625967,124.077063 L145.707919,124.077063 C145.50626,126.221429 145.431451,127.285476 145.431451,128.538254 C145.431451,145.283175 155.455823,153.730476 174.928865,153.730476 C186.927537,153.730476 197.774805,150.932063 209.799497,144.635635 L204.149811,180.510635 L204.149811,180.510635 Z M185.376068,95.0646825 C185.528938,92.0287302 185.626515,89.6110317 185.626515,87.7660317 C185.626515,76.055 179.729634,69.2021429 169.754051,69.2021429 C159.03038,69.2021429 151.403141,78.4206349 148.33273,94.915 L185.376068,95.0646825 L185.376068,95.0646825 Z"></path>
                    <path d="M603.530929,180.510635 C592.075433,184.45119 580.925678,186.358016 569.122159,186.358016 C531.551906,186.358016 512.007309,164.23754 512.007309,122.043333 C512.007309,72.7587302 536.928378,36.4021429 570.696395,36.4021429 C598.37563,36.4021429 616.07603,56.7264286 616.07603,88.6348413 C616.07603,99.1809524 614.823796,109.515556 611.850962,124.077063 L545.079279,124.077063 C544.874368,126.221429 544.750771,127.285476 544.750771,128.538254 C544.750771,145.283175 554.752375,153.730476 574.222164,153.730476 C586.224088,153.730476 597.100629,150.932063 609.128574,144.635635 L603.530929,180.510635 L603.530929,180.510635 Z M584.653105,95.0646825 C584.874278,92.0287302 584.997875,89.6110317 584.997875,87.7660317 C584.997875,76.055 579.052206,69.2021429 569.118906,69.2021429 C558.391983,69.2021429 550.774501,78.4206349 547.671564,94.915 L584.653105,95.0646825 L584.653105,95.0646825 Z"></path>
                    <path d="M1072.08086,180.510635 C1060.47575,184.45119 1049.47561,186.358016 1037.58427,186.358016 C1000.09208,186.358016 980.469423,164.23754 980.469423,122.043333 C980.469423,72.7587302 1005.44253,36.4021429 1039.2073,36.4021429 C1066.88003,36.4021429 1084.50887,56.7264286 1084.50887,88.6348413 C1084.50887,99.1809524 1083.35747,109.515556 1080.38138,124.077063 L1013.54139,124.077063 C1013.30721,126.221429 1013.25842,127.285476 1013.25842,128.538254 C1013.25842,145.283175 1023.2893,153.730476 1042.76234,153.730476 C1054.77402,153.730476 1065.60177,150.932063 1077.65574,144.635635 L1072.08086,180.510635 L1072.08086,180.510635 Z M1053.20629,95.0646825 C1053.35591,92.0287302 1053.45348,89.6110317 1053.45348,87.7660317 C1053.45348,76.055 1047.58262,69.2021429 1037.58427,69.2021429 C1026.85735,69.2021429 1019.26589,78.4206349 1016.15645,94.915 L1053.20629,95.0646825 L1053.20629,95.0646825 Z"></path>
                    <path d="M104.764768,44.3418254 C98.1913557,39.9424603 89.2923677,36.0995238 76.7179936,36.0995238 C63.1450853,36.0995238 52.2230086,38.9142063 52.2230086,53.3618254 C52.2230086,78.8761905 101.713872,69.3485714 101.713872,123.985952 C101.713872,173.752143 69.048471,186.654127 39.499017,186.654127 C26.3521933,186.654127 11.2278168,182.303571 0.0813138525,177.347778 L8.10536482,140.779683 C14.8316467,146.890635 28.4013024,151.078492 39.499017,151.078492 C50.0730704,151.078492 66.6448335,148.188968 66.6448335,129.725952 C66.6448335,100.814444 17.1799908,111.56881 17.1799908,60.8231746 C17.1799908,14.4020635 46.0756814,0.497857143 73.95007,0.497857143 C89.6468961,0.497857143 104.393976,2.80166667 113.042518,8.55142857 L104.764768,44.3418254 L104.764768,44.3418254 Z"></path>
                    <path d="M302.458258,180.458571 C295.533571,183.790635 286.286559,185.98381 272.638842,185.98381 C243.294299,185.98381 225.096259,156.639524 225.096259,120.914206 C225.096259,74.1579365 251.419179,36.8576984 290.160351,36.8576984 C298.610487,36.8576984 311.506864,40.5151587 321.680853,46.4146032 L314.255272,80.7146825 C307.054117,75.9801587 299.55698,72.9702381 291.835417,72.9702381 C273.884571,72.9702381 261.063002,89.4288095 261.063002,118.919524 C261.063002,135.89873 270.362054,149.825714 285.057094,149.825714 C293.803212,149.825714 299.957044,147.980714 307.483454,143.578095 L302.458258,180.458571 L302.458258,180.458571 Z"></path>
                    <path d="M428.045877,144.495714 C426.322024,156.851032 424.721767,168.845159 423.768769,181.734127 L391.448138,181.734127 L394.173779,158.520317 L393.845271,158.520317 C383.723323,174.29881 373.250098,185.040159 354.951229,185.040159 C334.658544,185.040159 323.661658,163.677857 323.661658,135.778333 C323.661658,126.162857 324.260128,120.735238 326.406814,105.718175 L335.556249,39.2461111 L371.526245,39.2461111 L361.875917,105.913413 C360.90015,113.075397 359.527573,120.17881 359.527573,127.588095 C359.527573,135.989841 363.352576,144.489206 373.051693,143.968571 C387.79552,143.968571 396.496102,125.925317 398.971296,104.872143 L408.898091,39.2428571 L443.716683,39.2428571 L428.045877,144.495714 L428.045877,144.495714 Z"></path>
                    <g transform="translate(1089.605624, 149.682540)">
                        <path d="M15.9830508,30.3172222 L10.5447804,30.3172222 L10.5447804,6.4981746 L2.68010458,6.4981746 L2.68010458,1.39595238 L23.8477267,1.39595238 L23.8477267,6.4981746 L15.9830508,6.4981746 L15.9830508,30.3172222 L15.9830508,30.3172222 Z"></path>
                        <path d="M52.0408656,30.3172222 L46.9603761,30.3172222 L46.9603761,6.1402381 L46.8888199,6.1402381 L42.0327566,30.3172222 L36.705073,30.3172222 L31.9628491,6.1402381 L31.8880404,6.1402381 L31.8880404,30.3172222 L26.8205611,30.3172222 L26.8205611,1.39595238 L34.750288,1.39595238 L39.469744,24.1965079 L39.5413002,24.1965079 L44.1761898,1.39595238 L52.0408656,1.39595238 L52.0408656,30.3172222 L52.0408656,30.3172222 Z"></path>
                    </g>
                </g>
            </g>
        </g>
    </g>
</svg>