<?xml version="1.0" encoding="UTF-8" standalone="no"?>
<svg width="189px" height="55px" viewBox="0 0 189 55" version="1.1" xmlns="http://www.w3.org/2000/svg" xmlns:xlink="http://www.w3.org/1999/xlink" xmlns:sketch="http://www.bohemiancoding.com/sketch/ns">
    <!-- Generator: Sketch 3.3.3 (12081) - http://www.bohemiancoding.com/sketch -->
    <title>logo_inetvl2</title>
    <desc>Created with Sketch.</desc>
    <defs></defs>
    <g id="Page-1" stroke="none" stroke-width="1" fill="none" fill-rule="evenodd" sketch:type="MSPage">
        <g id="Artboard-1" sketch:type="MSArtboardGroup" transform="translate(-136.000000, -100.000000)">
            <g id="logo_inetvl2" sketch:type="MSLayerGroup" transform="translate(136.000000, 100.000000)">
                <g id="Group" sketch:type="MSShapeGroup">
                    <g transform="translate(79.000000, 4.000000)" id="Shape" fill="#231F20">
                        <path d="M21.329,21.892 L15.47,1.93 C15.35,1.472 15.104,1.107 14.738,0.824 C14.377,0.546 13.959,0.402 13.477,0.402 L8.057,0.402 C7.583,0.402 7.162,0.547 6.797,0.824 C6.435,1.107 6.205,1.471 6.101,1.93 L0.214,21.892 L6.193,21.892 L7.464,16.788 L14.066,16.788 L15.351,21.892 L21.329,21.892 L21.329,21.892 Z M8.553,12.55 L9.929,7.037 C10.073,6.329 10.218,5.581 10.359,4.796 L11.204,4.796 C11.245,5.212 11.379,5.956 11.609,7.037 L12.982,12.55 L8.553,12.55 L8.553,12.55 Z"></path>
                        <path d="M29.982,11.488 C30.061,10.618 30.55,10.185 31.442,10.185 L32.785,10.185 L32.785,21.892 L38.421,21.892 L38.421,6.413 L29.075,6.413 C26.46,6.413 25.043,7.745 24.812,10.4 C24.581,13.346 24.314,15.373 24.004,16.475 C23.959,16.642 23.903,16.789 23.849,16.918 C23.785,17.055 23.69,17.173 23.568,17.269 C23.437,17.356 23.34,17.433 23.267,17.485 C23.2,17.536 23.059,17.586 22.863,17.643 C22.668,17.695 22.526,17.73 22.445,17.747 C22.358,17.772 22.186,17.798 21.934,17.83 C21.674,17.853 21.491,17.887 21.384,17.905 L21.919,21.893 C26.686,22.564 28.482,21.383 29.048,17.997 C29.314,16.732 29.63,14.566 29.982,11.488 L29.982,11.488 Z"></path>
                        <path d="M49.532,22.074 C51.925,22.074 53.626,21.689 54.655,20.923 C55.684,20.159 56.193,18.775 56.193,16.788 C56.193,14.748 55.654,13.361 54.562,12.61 C53.471,11.863 51.48,11.488 48.573,11.488 L46.829,11.488 L46.829,6.413 L41.406,6.413 L41.406,21.892 L41.566,21.892 C43.431,22.015 46.09,22.074 49.532,22.074 L49.532,22.074 Z M46.829,14.788 L48.573,14.788 C49.356,14.788 49.882,14.904 50.139,15.138 C50.403,15.358 50.528,15.843 50.528,16.57 C50.528,17.297 50.403,17.771 50.139,17.996 C49.881,18.227 49.356,18.342 48.573,18.342 L46.829,18.342 L46.829,14.788 L46.829,14.788 Z"></path>
                        <path d="M59.688,7.069 C58.729,7.748 58.254,9.071 58.254,11.024 C58.254,13.345 59.373,14.736 61.621,15.193 L61.621,15.317 C59.938,15.488 58.949,16.045 58.659,17.003 L57.443,21.892 L63.238,21.892 L64.199,17.746 C64.262,17.397 64.394,17.158 64.589,17.034 C64.784,16.911 65.14,16.845 65.634,16.845 L67.691,16.845 L67.691,21.893 L73.172,21.893 L73.172,6.294 C71.693,6.127 69.089,6.039 65.351,6.039 C62.531,6.039 60.646,6.382 59.688,7.069 L59.688,7.069 Z M67.69,10.026 L67.69,13.389 L65.476,13.389 C64.751,13.389 64.27,13.27 64.061,13.015 C63.841,12.764 63.735,12.248 63.735,11.457 C63.735,10.876 63.841,10.494 64.061,10.312 C64.27,10.117 64.751,10.025 65.476,10.025 L67.69,10.025 L67.69,10.026 Z"></path>
                        <path d="M82.104,15.631 L86.842,15.631 L86.842,21.892 L92.387,21.892 L92.387,6.413 L86.842,6.413 L86.842,11.863 L82.104,11.863 L82.104,6.413 L76.534,6.413 L76.534,21.892 L82.104,21.892 L82.104,15.631 Z"></path>
                        <path d="M103.1,22.265 C105.786,22.265 107.929,21.864 109.507,21.08 L109.007,17.5 C107.575,17.661 105.946,17.746 104.121,17.746 C102.941,17.746 102.125,17.5 101.672,17.003 C101.232,16.502 101.01,15.547 101.01,14.132 C101.01,12.724 101.232,11.767 101.672,11.27 C102.125,10.773 102.942,10.526 104.121,10.526 L108.697,10.55 L109.292,7.036 C107.734,6.328 105.683,5.974 103.155,5.974 C100.209,5.974 98.127,6.59 96.914,7.815 C95.698,9.035 95.089,11.151 95.089,14.131 C95.089,17.124 95.69,19.224 96.883,20.44 C98.07,21.662 100.146,22.265 103.1,22.265 L103.1,22.265 Z"></path>
                        <path d="M0.385,32.363 L6.235,32.363 L6.235,46.277 L7.515,46.277 L7.515,32.363 L13.367,32.363 L13.367,31.272 L0.385,31.272 L0.385,32.363 Z"></path>
                        <path d="M26.476,38.388 C26.993,37.714 27.237,36.689 27.197,35.319 C27.153,32.374 25.143,30.899 21.15,30.899 C18.786,30.899 17.108,31.488 16.106,32.657 C15.112,33.829 14.616,35.852 14.616,38.719 C14.616,41.578 15.14,43.619 16.187,44.832 C17.236,46.048 18.973,46.654 21.401,46.654 C23.835,46.654 25.643,46.443 26.852,46.028 L26.696,45.157 C25.035,45.41 23.318,45.537 21.554,45.537 C19.61,45.537 18.195,45.078 17.324,44.18 C16.455,43.272 15.977,41.686 15.892,39.401 L23.89,39.401 C25.097,39.399 25.961,39.065 26.476,38.388 L26.476,38.388 Z M15.891,38.373 C15.912,36.007 16.317,34.349 17.123,33.425 C17.915,32.481 19.283,32.02 21.214,32.02 C22.815,32.02 23.996,32.287 24.767,32.815 C25.534,33.34 25.927,34.201 25.948,35.379 C25.983,37.376 25.241,38.373 23.706,38.373 L15.891,38.373 L15.891,38.373 Z"></path>
                        <path d="M33.855,32.004 C33.337,32.493 33.015,33.244 32.892,34.258 C32.871,34.408 32.805,34.989 32.686,36.023 C32.578,37.052 32.474,37.87 32.395,38.479 C32.31,39.095 32.156,39.857 31.938,40.755 C31.722,41.654 31.48,42.382 31.207,42.946 C30.689,44.111 29.787,44.789 28.499,45.286 L28.66,46.277 C30.311,45.947 31.529,45.09 32.296,43.383 C32.484,42.987 32.655,42.538 32.809,42.029 C32.967,41.516 33.091,41.083 33.191,40.704 C33.282,40.332 33.381,39.784 33.501,39.058 C33.608,38.332 33.68,37.833 33.715,37.575 C33.748,37.317 33.812,36.753 33.903,35.874 C33.998,35.004 34.054,34.519 34.074,34.418 C34.158,33.685 34.372,33.157 34.718,32.814 C35.057,32.468 35.581,32.303 36.289,32.303 L40.677,32.303 L40.677,46.277 L41.889,46.277 L41.889,31.272 L36.194,31.272 C35.152,31.272 34.37,31.517 33.855,32.004 L33.855,32.004 Z"></path>
                        <path d="M57.024,38.388 C57.541,37.714 57.781,36.689 57.741,35.319 C57.7,32.374 55.679,30.899 51.695,30.899 C49.333,30.899 47.65,31.488 46.654,32.657 C45.658,33.829 45.155,35.852 45.155,38.719 C45.155,41.578 45.684,43.619 46.728,44.832 C47.778,46.048 49.514,46.654 51.943,46.654 C54.374,46.654 56.193,46.443 57.39,46.028 L57.239,45.157 C55.579,45.41 53.868,45.537 52.103,45.537 C50.153,45.537 48.736,45.078 47.866,44.18 C46.996,43.272 46.517,41.686 46.439,39.401 L54.435,39.401 C55.643,39.399 56.499,39.065 57.024,38.388 L57.024,38.388 Z M46.439,38.373 C46.458,36.007 46.868,34.349 47.663,33.425 C48.463,32.481 49.829,32.02 51.762,32.02 C53.359,32.02 54.544,32.287 55.312,32.815 C56.079,33.34 56.476,34.201 56.497,35.379 C56.533,37.376 55.789,38.373 54.251,38.373 L46.439,38.373 L46.439,38.373 Z"></path>
                        <path d="M71.379,42.931 C71.046,42.255 70.619,41.539 70.098,40.765 C69.583,40.003 69.022,39.444 68.418,39.085 C67.818,38.73 67.13,38.521 66.361,38.463 L66.361,38.438 C66.963,38.374 67.531,38.181 68.06,37.872 C68.591,37.558 69.025,37.226 69.371,36.878 C69.709,36.526 70.098,35.978 70.531,35.231 C70.969,34.482 71.29,33.879 71.501,33.426 C71.708,32.963 72.036,32.247 72.47,31.274 L71.16,31.274 C71.111,31.351 71.064,31.472 71.005,31.616 C70.603,32.447 70.294,33.104 70.055,33.597 C69.812,34.08 69.494,34.64 69.089,35.273 C68.684,35.905 68.293,36.39 67.922,36.723 C67.547,37.053 67.09,37.343 66.554,37.596 C66.009,37.84 65.432,37.967 64.803,37.967 L61.946,37.967 C62.003,37.367 62.034,36.759 62.034,36.158 L62.034,31.273 L60.79,31.273 L60.79,46.278 L62.034,46.278 L62.034,40.674 C62.034,40.113 62.003,39.541 61.946,38.963 L64.868,38.963 L65.051,38.963 C66.697,39.026 68.044,39.85 69.106,41.421 C69.585,42.111 70.403,43.729 71.563,46.278 L72.906,46.278 C72.863,46.176 72.8,46.028 72.711,45.851 C72.153,44.578 71.708,43.608 71.379,42.931 L71.379,42.931 Z"></path>
                        <path d="M81.964,30.898 C79.494,30.898 77.751,31.491 76.749,32.671 C75.742,33.854 75.239,35.889 75.239,38.776 C75.239,41.683 75.742,43.722 76.749,44.895 C77.751,46.068 79.494,46.652 81.964,46.652 C84.416,46.652 86.138,46.068 87.13,44.895 C88.126,43.722 88.63,41.683 88.63,38.776 C88.63,35.888 88.126,33.853 87.13,32.671 C86.138,31.491 84.416,30.898 81.964,30.898 L81.964,30.898 Z M86.167,44.086 C85.383,45.071 83.977,45.568 81.964,45.568 C79.956,45.568 78.541,45.071 77.742,44.086 C76.946,43.1 76.542,41.331 76.542,38.777 C76.542,36.22 76.946,34.456 77.742,33.486 C78.541,32.507 79.956,32.019 81.964,32.019 C83.977,32.019 85.383,32.506 86.167,33.486 C86.96,34.456 87.346,36.22 87.346,38.777 C87.346,41.331 86.96,43.1 86.167,44.086 L86.167,44.086 Z"></path>
                        <path d="M107.929,31.272 L106.407,31.272 C106.118,31.272 105.915,31.419 105.815,31.708 L101.545,41.828 C101.423,42.076 101.141,42.773 100.707,43.908 L100.114,43.908 C99.891,43.289 99.605,42.598 99.275,41.828 L95.005,31.708 C94.906,31.42 94.714,31.272 94.449,31.272 L92.89,31.272 C92.496,31.272 92.302,31.455 92.302,31.829 L91.555,46.277 L92.735,46.277 L93.451,32.303 L94.044,32.303 L99.179,44.414 C99.308,44.7 99.481,44.846 99.712,44.846 L101.08,44.846 C101.328,44.846 101.521,44.7 101.636,44.414 L106.78,32.303 L107.365,32.303 L108.089,46.277 L109.274,46.277 L108.526,31.829 C108.525,31.455 108.323,31.272 107.929,31.272 L107.929,31.272 Z"></path>
                    </g>
                    <g id="Shape">
                        <path d="M34.827,37.252 L47.094,5.296 L47.104,5.296 C47.578,4.036 48.788,3.14 50.213,3.14 C50.22,3.14 50.23,3.142 50.234,3.142 C49.554,1.391 47.857,0.152 45.868,0.152 L23.792,0.152 C22.725,0.152 21.742,0.511 20.957,1.114 L34.827,37.252 L34.827,37.252 Z" fill="#6C3F97"></path>
                        <path d="M65.9,43.945 L65.902,43.945 L65.896,43.935 C65.883,43.904 65.871,43.866 65.857,43.835 L50.234,3.143 C50.23,3.143 50.22,3.141 50.213,3.141 C48.788,3.141 47.578,4.037 47.104,5.297 L47.094,5.297 L34.827,37.252 L37.367,43.862 C37.846,45.142 39.074,46.056 40.523,46.056 L64.424,46.056 C65.294,46.056 65.999,45.352 65.999,44.48 C65.999,44.291 65.961,44.114 65.9,43.945 L65.9,43.945 Z" fill="#ED3035"></path>
                        <path d="M20.956,1.115 C20.256,1.649 19.709,2.371 19.395,3.216 L19.387,3.21 L0.381,52.729 L0.387,52.733 C0.315,52.914 0.268,53.114 0.268,53.325 C0.268,54.198 0.976,54.903 1.847,54.903 L25.745,54.903 C27.255,54.903 28.538,53.905 28.965,52.53 L34.828,37.253 L20.956,1.115 L20.956,1.115 Z" fill="#FCB813"></path>
                    </g>
                </g>
            </g>
        </g>
    </g>
</svg>