<?xml version="1.0" encoding="UTF-8" standalone="no"?>
<svg width="102px" height="39px" viewBox="0 0 102 39" version="1.1" xmlns="http://www.w3.org/2000/svg" xmlns:xlink="http://www.w3.org/1999/xlink" xmlns:sketch="http://www.bohemiancoding.com/sketch/ns">
    <!-- Generator: Sketch 3.2.2 (9983) - http://www.bohemiancoding.com/sketch -->
    <title>logo_arsenalpay</title>
    <desc>Created with Sketch.</desc>
    <defs>
        <path d="M6.51367042,1.9694766 C6.53376623,1.9221018 6.59990396,1.883697 6.65847401,1.883697 L8.45816093,1.883697 C8.51803794,1.883697 8.58276438,1.9222312 8.60261011,1.9694766 L14.1731036,15.2307822 C14.1930037,15.278157 14.1580075,15.3165618 14.1111266,15.3165618 L11.3614276,15.3165618 C11.3072986,15.3165618 11.2497058,15.2820436 11.2281926,15.2278891 L10.0776315,12.331613 C10.0581769,12.2826404 9.99817613,12.2429402 9.93554713,12.2429402 L5.03308629,12.2429402 C4.97406989,12.2429402 4.90683767,12.2932754 4.89233471,12.3309241 C4.89233471,12.3309241 4.15384469,14.2479981 3.79309098,15.1844922 L3.55140034,15.2804732 C3.50121145,15.3004044 3.41524945,15.3165618 3.36145326,15.3165618 L0.951070534,15.3165618 C0.896354548,15.3165618 0.868344227,15.2780276 0.888385158,15.2307822 L6.51367042,1.9694766 L6.51367042,1.9694766 Z M9.12723162,9.9049702 C9.18310394,9.9049702 9.2133997,9.8627267 9.192163,9.80291 L7.52980121,5.120592 C7.5097895,5.0642257 7.47824923,5.0607754 7.46281336,5.1033451 L5.75248927,9.820157 C5.73550461,9.866998 5.76111728,9.9049702 5.82290161,9.9049702 L9.12723162,9.9049702 L9.12723162,9.9049702 Z M15.3931481,6.311811 C15.3931481,6.2553254 15.4349645,6.2095348 15.4966689,6.2095348 L17.6988393,6.2095348 C17.7560123,6.2095348 17.8023795,6.2468419 17.8024154,6.3159979 L17.8028109,7.0777734 C18.1980206,6.2095348 20.6102014,5.9755347 20.6842025,6.0008321 L20.6842025,8.0878591 C19.9569179,7.9097087 19.227866,8.2323026 18.919528,8.4220333 C18.6111899,8.611764 18.3706899,8.8394374 18.1980206,9.1050603 C18.0253513,9.3706833 17.9081846,9.6426265 17.8465169,9.9208982 C17.7848493,10.1991698 17.754016,10.420519 17.754016,10.5849522 L17.754016,15.2177355 C17.754016,15.2723158 17.7130387,15.3165618 17.6525724,15.3165618 L15.4945916,15.3165618 C15.4385659,15.3165618 15.3931481,15.2759588 15.3931481,15.2142857 L15.3931481,6.311811 L15.3931481,6.311811 Z M27.2980205,8.5043606 C26.5580129,7.7545437 25.4572537,7.6514808 25.0502474,7.6514808 C24.6925753,7.6514808 24.3657419,7.7273719 24.0697373,7.8791564 C23.7737328,8.030941 23.6257328,8.2839114 23.6257328,8.6380754 C23.6257328,8.9922393 23.7891495,9.2420476 24.1159878,9.3875078 C24.4428261,9.532968 24.920743,9.6815881 25.5497526,9.8333727 C25.8827577,9.9092649 26.2188411,10.0104531 26.5580129,10.1369402 C26.8971848,10.2634273 27.2055182,10.4310203 27.4830225,10.639724 C27.7605267,10.8484278 27.9856101,11.1077225 28.1582794,11.4176159 C28.3309487,11.7275093 28.4172821,12.1038029 28.4172821,12.5465078 C28.4172821,13.1030511 28.315532,13.5742086 28.1120289,13.9599943 C27.9085258,14.34578 27.6371924,14.6588309 27.2980206,14.8991564 C26.9588487,15.139482 26.5641819,15.3133991 26.1140084,15.4209132 C25.8523184,15.4834121 25.5854165,15.5261494 25.3133079,15.5519082 C25.1173203,15.5704612 24.9186317,15.5802063 24.717244,15.5821835 C24.6922736,15.5824286 22.6534065,15.5647688 21.6360868,14.9499853 L21.8299962,13.4015408 C23.5130323,14.1044384 25.1334975,13.7987242 25.3,13.7607781 C25.4665025,13.7228319 25.6206693,13.6627514 25.7625048,13.5805348 C25.9043403,13.4983182 26.0184236,13.3876436 26.1047583,13.2485078 C26.1910929,13.109372 26.2342596,12.9386169 26.2342596,12.7362375 C26.2342596,12.3567762 26.0646762,12.0848329 25.7255044,11.9203997 C25.3863325,11.7559664 24.8775824,11.5915356 24.1992387,11.4271024 C23.8662336,11.3512101 23.5424835,11.2531841 23.2279787,11.1330213 C22.9134739,11.0128585 22.6328905,10.854752 22.38622,10.658697 C22.1395496,10.4626419 21.9422162,10.2191579 21.7942139,9.9282375 C21.6462117,9.6373171 21.5722116,9.2768343 21.5722116,8.8467781 C21.5722116,8.3408296 21.6739617,7.9044556 21.8774648,7.5376429 C22.0809679,7.1708303 22.349218,6.8704279 22.6822231,6.6364267 C23.0152282,6.4024255 23.3913949,6.2285084 23.8107347,6.11467 C24.2300744,6.0008315 24.6617412,5.9439132 25.105748,5.9439132 C25.175099,5.9439132 25.2442696,5.9452443 25.3132599,5.9479065 C25.8822768,5.9698636 26.4390248,6.0823695 26.9835173,6.2854267 C27.1464906,6.3462042 27.204874,6.3504669 27.4454098,6.4934468 C27.4454096,6.4934468 27.2980205,8.5043606 27.2980205,8.5043606 L27.2980205,8.5043606 Z M36.5943662,9.8523456 C36.5943662,9.5614253 36.5542829,9.2831578 36.474115,9.0175348 C36.3939471,8.7519119 36.2675304,8.5179142 36.0948611,8.3155348 C35.9221918,8.1131554 35.703275,7.9518868 35.4381043,7.831724 C35.1729336,7.7115612 34.8615168,7.6514808 34.5038447,7.6514808 C33.8378345,7.6514808 33.2735843,7.8570192 32.8110773,8.2681024 C32.3485702,8.6791855 32.0926535,9.2072613 32.0433194,9.8523456 L36.5943662,9.8523456 L36.5943662,9.8523456 Z M38.814389,11.1804537 C38.814389,11.2816434 38.8082224,11.3828316 38.7958888,11.4840213 L32.0433194,11.4840213 C32.0679864,11.8128878 32.1512364,12.1132902 32.2930719,12.3852375 C32.4349074,12.6571848 32.6229908,12.8911825 32.8573278,13.0872375 C33.0916647,13.2832926 33.3568314,13.438237 33.6528359,13.5520754 C33.9488405,13.6659138 34.2571739,13.7228321 34.5778455,13.7228321 C35.1328539,13.7228321 36.5650137,13.7228323 37.9132851,12.8353967 C37.9132849,12.821616 38.4906359,14.5719973 38.5046946,14.5719976 C37.5933762,15.3941635 35.8363373,15.5821835 34.5963456,15.5821835 C33.9056684,15.5821835 33.2705016,15.4715089 32.690826,15.2501564 C32.1111505,15.028804 31.608567,14.7157531 31.1830605,14.3109943 C30.757554,13.9062355 30.4245539,13.409781 30.1840502,12.8216159 C29.9435466,12.2334508 29.8232965,11.5662413 29.8232965,10.8199673 C29.8232965,10.086342 29.9435466,9.4191324 30.1840502,8.8183186 C30.4245539,8.2175048 30.7544707,7.7052396 31.1738104,7.2815078 C31.5931502,6.8577759 32.089567,6.5289144 32.6630758,6.2949132 C33.2365845,6.060912 33.8563347,5.9439132 34.5223449,5.9439132 C35.139021,5.9439132 35.7094378,6.0482635 36.2336125,6.2569673 C36.7577872,6.465671 37.2110373,6.7755598 37.5933765,7.1866429 C37.9757157,7.5977261 38.2747991,8.1099912 38.4906357,8.7234537 C38.7064723,9.3369163 38.814389,10.0547199 38.814389,10.8768862 L38.814389,11.1804537 L38.814389,11.1804537 Z M40.9604111,6.311811 C40.9604111,6.2553254 40.9994618,6.2095348 41.0570851,6.2095348 L43.1136039,6.2095348 C43.1669955,6.2095348 43.2102779,6.2496972 43.2102779,6.3070595 L43.2102779,7.092676 C43.4507803,5.9227688 45.1969514,5.9439132 45.8629616,5.9439132 C46.4426371,5.9439132 46.9390539,6.0482635 47.3522269,6.2569673 C47.7653999,6.465671 48.1045666,6.7407764 48.3697373,7.0822916 C48.6349081,7.4238068 48.8291581,7.815911 48.9524933,8.2586159 C49.0758286,8.7013208 49.1374952,9.1566676 49.1374952,9.62467 L49.1374952,15.2177684 C49.1374952,15.2723305 49.096518,15.3165618 49.0360517,15.3165618 L46.8780709,15.3165618 C46.8220452,15.3165618 46.7766273,15.2729319 46.7766273,15.211152 L46.7766273,10.269751 C46.7766273,10.0041281 46.7581273,9.7258606 46.7211268,9.4349402 C46.6841262,9.1440198 46.6039595,8.881563 46.4806243,8.6475618 C46.3572891,8.4135607 46.1877057,8.2206707 45.9718691,8.0688862 C45.7560324,7.9171016 45.6101274,7.8412105 45.2524553,7.8412105 C44.8947831,7.8412105 44.7272948,7.9139395 44.4682908,8.0593997 C44.2092869,8.2048599 43.9965368,8.3914256 43.8300343,8.6191024 C43.6635317,8.8467792 43.537115,9.109236 43.4507804,9.4064808 C43.3644457,9.7037255 43.321279,10.0041279 43.321279,10.307697 L43.321279,15.2119446 C43.321279,15.2697231 43.2803017,15.3165618 43.2198355,15.3165618 L41.0618547,15.3165618 C41.0058289,15.3165618 40.9604111,15.2759588 40.9604111,15.2142857 L40.9604111,6.311811 L40.9604111,6.311811 Z M57.2405786,14.4480994 C57.2405786,14.4480994 56.6054079,14.895993 56.112067,15.1552916 C55.6187261,15.4145902 55.0575593,15.5442375 54.4285497,15.5442375 C54.0708775,15.5442375 53.6977941,15.4968056 53.3092882,15.4019402 C52.9207822,15.3070749 52.5631155,15.1489684 52.2362771,14.9276159 C51.9094388,14.7062634 51.6381054,14.4153474 51.4222687,14.0548591 C51.2064321,13.6943709 51.0985154,13.2485104 51.0985154,12.7172645 C51.0985154,12.0342341 51.2865988,11.4903477 51.6627712,11.0855889 C52.0389436,10.6808301 52.5230271,10.3709413 53.1150362,10.1559132 C53.7070452,9.9408851 54.3637954,9.7985892 55.0853064,9.7290213 C55.8068175,9.6594534 56.3720559,9.62467 57.0627332,9.62467 L57.0627332,9.3969943 C57.0627332,8.8278022 56.8623164,8.5516833 56.461477,8.279736 C56.0606375,8.0077887 55.5827207,7.8718171 55.0277122,7.8718171 C54.5590384,7.8718171 54.2497167,7.9730053 53.8180434,8.1753847 C53.3863701,8.3777641 53.0287034,8.6244102 52.7450324,8.9153306 L51.5980206,7.3858591 C52.103695,6.9052081 52.6864451,6.5447252 53.3462885,6.3043997 C54.006132,6.0640742 54.6752155,5.9439132 55.3535592,5.9439132 C56.1429046,5.9439132 56.7934881,6.0577499 57.3053293,6.2854267 C57.8171704,6.5131035 58.2210872,6.8103438 58.5170917,7.1771564 C58.8130963,7.5439691 59.0196797,7.9550461 59.1368481,8.4103997 C59.2540166,8.8657533 59.3125999,9.3211001 59.3125999,9.7764537 L59.3125999,15.3165618 L58.2022572,15.3165618 L57.2405786,15.3165618 L57.2405786,14.4480994 L57.2405786,14.4480994 Z M55.4751691,11.3683306 C52.8024192,11.5222445 53.3185383,12.8543566 53.3185383,12.9682075 C53.4286834,13.3100654 53.6700411,13.4825073 53.8180434,13.5710483 C53.9660457,13.6595893 54.1325457,13.7228319 54.3175485,13.7607781 C54.5025514,13.7987242 54.6875514,13.817697 54.8725542,13.817697 C55.6372326,13.817697 56.2168994,13.4645519 56.6115721,13.0471444 C56.9716139,12.6663628 57.0464796,12.0443793 57.0464796,12.0443793 C57.0546305,11.9938623 57.0617111,11.9126377 57.0622601,11.8576644 C57.0622601,11.8576644 57.0627332,11.836173 57.0627332,11.7729102 C57.0627332,11.7729102 56.7571588,11.2602444 55.4751691,11.3683306 L55.4751691,11.3683306 Z M61.939627,0.9729943 L64.1596498,0.9729943 L64.1596498,15.3165618 L61.939627,15.3165618 L61.939627,0.9729943 L61.939627,0.9729943 Z M71.5967263,1.1083443 C71.5967263,1.057913 71.6447202,1.0170303 71.7023651,1.0170303 L75.8702703,1.0170303 C76.6226151,1.0170303 77.3009486,1.0865972 77.9052912,1.225733 C78.5096338,1.3648688 79.0276339,1.5925422 79.4593072,1.90876 C79.8909805,2.2249778 80.2239806,2.6297305 80.4583175,3.1230303 C80.6926544,3.6163301 80.8098211,4.2108106 80.8098211,4.9064898 C80.8098211,5.6527638 80.6741544,6.2788656 80.4028169,6.7848141 C80.1314794,7.2907626 79.7645626,7.6986774 79.3020556,8.0085708 C78.8395485,8.3184643 78.299965,8.5429756 77.6832889,8.6821114 C78.3064466,8.6821114 76.412946,8.8908141 75.7222687,8.8908141 L74.0242314,8.8908141 C73.9709463,8.8908141 73.9277503,8.9318476 73.9277503,8.9816505 L73.9277503,15.2257255 C73.9277503,15.275893 73.887291,15.3165618 73.8275891,15.3165618 L71.6968875,15.3165618 C71.64157,15.3165618 71.5967263,15.2755415 71.5967263,15.2252479 L71.5967263,1.1083443 L71.5967263,1.1083443 Z M75.555767,7.0241234 C77.9324074,7.0241234 78.8271306,6.476209 78.8271306,4.980067 C78.8271306,3.483925 77.6618755,2.883721 75.6297678,2.883721 L73.9277503,2.883721 L73.9277503,7.0241234 L75.555767,7.0241234 L75.555767,7.0241234 Z M88.283898,14.2660168 C88.283898,14.2070293 88.2370694,14.1592105 88.2283974,14.1592105 L88.2283974,14.1592105 C88.006394,14.5639693 87.6487272,14.895993 87.1553864,15.1552916 C86.6620455,15.4145902 86.1008787,15.5442375 85.4718691,15.5442375 C85.1141969,15.5442375 84.7411135,15.4968056 84.3526075,15.4019402 C83.9641016,15.3070749 83.6064348,15.1489684 83.2795965,14.9276159 C82.9527582,14.7062634 82.6814248,14.4153474 82.4655881,14.0548591 C82.2497515,13.6943709 82.1418348,13.2485104 82.1418348,12.7172645 C82.1418348,12.0342341 82.3299182,11.4903477 82.7060906,11.0855889 C83.082263,10.6808301 83.5663465,10.3709413 84.1583555,10.1559132 C84.7503646,9.9408851 85.4071148,9.7985892 86.1286258,9.7290213 C86.8501368,9.6594534 87.5562204,9.62467 88.2468976,9.62467 L88.2468976,9.3969943 C88.2468976,8.8278022 88.0464809,8.4072389 87.6456414,8.1352916 C87.244802,7.8633443 86.7668852,7.7273727 86.2118767,7.7273727 C85.7432028,7.7273727 85.293036,7.8285608 84.8613628,8.0309402 C84.4296895,8.2333196 84.0720227,8.4799658 83.7883517,8.7708862 L82.6413399,7.3858591 C83.1470143,6.9052081 83.7297645,6.5447252 84.3896079,6.3043997 C85.0494513,6.0640742 85.7185349,5.9439132 86.3968786,5.9439132 C87.186224,5.9439132 87.8368075,6.0577499 88.3486486,6.2854267 C88.8604898,6.5131035 89.2644066,6.8103438 89.5604111,7.1771564 C89.8564156,7.5439691 90.062999,7.9550461 90.1801675,8.4103997 C90.2973359,8.8657533 90.3559193,9.3211001 90.3559193,9.7764537 L90.3559193,15.2204029 C90.3559193,15.27351 90.3047005,15.3165618 90.2559814,15.3165618 L88.3838359,15.3165618 C88.3286417,15.3165618 88.283898,15.2668319 88.283898,15.2097555 L88.283898,14.2660168 L88.283898,14.2660168 Z M88.2468976,11.1614808 L87.7473925,11.1614808 C87.3897203,11.1614808 87.0135536,11.1772914 86.6188809,11.2089132 C86.2242082,11.240535 85.8603747,11.3101018 85.5273696,11.4176159 C85.1943645,11.5251299 84.9168645,11.6769122 84.6948611,11.8729673 C84.4728577,12.0690223 84.3618576,12.3378034 84.3618576,12.6793186 C84.3618576,12.8943467 84.4081076,13.0745881 84.5006091,13.2200483 C84.5931105,13.3655085 84.7133605,13.4825073 84.8613628,13.5710483 C85.009365,13.6595893 85.1758651,13.7228319 85.3608679,13.7607781 C85.5458707,13.7987242 85.7308708,13.817697 85.9158736,13.817697 C86.680552,13.817697 87.2602188,13.6089964 87.6548915,13.1915889 C88.0495642,12.7741814 88.2468976,12.2049979 88.2468976,11.4840213 L88.2468976,11.1614808 L88.2468976,11.1614808 Z M91.6583138,6.2972114 C91.6338025,6.248789 91.6566393,6.2095348 91.7196579,6.2095348 L93.9687319,6.2095348 C94.0271225,6.2095348 94.0902881,6.2425949 94.1174857,6.2993935 L96.5104549,11.2967993 C96.5342187,11.3464268 96.5677778,11.3535979 96.5923368,11.2967993 L98.7531523,6.2993935 C98.7746107,6.2497659 98.8321443,6.2095348 98.8913723,6.2095348 L101.005164,6.2095348 C101.060042,6.2095348 101.088091,6.2501587 101.068024,6.2997389 C101.068024,6.2997389 97.4198213,15.3169368 97.2348185,15.6394789 C96.3635611,17.4770372 94.9319019,17.9723094 93.9604873,17.9922976 C93.8054451,17.9922976 93.6482394,17.985635 93.4888667,17.9723096 C93.4580692,17.9697346 93.0108118,17.9100816 92.8134755,17.8594867 L92.8576323,16.4640753 C92.8576323,16.4524418 93.5492957,16.4524418 93.5492958,16.4524417 C95.2553022,16.2804159 95.5491421,14.1141728 95.5491421,14.1141728 C95.5583511,14.0602637 95.5481973,13.9817548 95.521435,13.9288853 L91.6583138,6.2972114 L91.6583138,6.2972114 Z" id="path-1"></path>
    </defs>
    <g id="Page-1" stroke="none" stroke-width="1" fill="none" fill-rule="evenodd" sketch:type="MSPage">
        <g id="logo_arsenalpay" sketch:type="MSLayerGroup" transform="translate(0.000000, -1.000000)">
            <g id="Features">
                <g id="Artboard-2">
                    <g id="Arsenal-Pay-Logo">
                        <g id="Circles" transform="translate(49.596892, 0.000000)" fill="#F48B00" sketch:type="MSShapeGroup">
                            <ellipse id="Oval-1" transform="translate(13.399223, 9.646226) rotate(-29.000000) translate(-13.399223, -9.646226) " cx="13.3992231" cy="9.64622642" rx="1.34045653" ry="2.02358491"></ellipse>
                            <ellipse id="Oval-2" transform="translate(18.425935, 11.485849) rotate(-30.000000) translate(-18.425935, -11.485849) " cx="18.425935" cy="11.4858491" rx="1.34045653" ry="2.02358491"></ellipse>
                            <ellipse id="Oval-3" transform="translate(8.707625, 12.589623) rotate(-41.000000) translate(-8.707625, -12.589623) " cx="8.70762478" cy="12.5896227" rx="1.34045653" ry="2.02358491"></ellipse>
                            <ellipse id="Oval-4" transform="translate(12.896552, 5.231132) rotate(-51.000000) translate(-12.896552, -5.231132) " cx="12.8965519" cy="5.23113228" rx="0.837785333" ry="1.28773585"></ellipse>
                            <ellipse id="Oval-5" transform="translate(11.891209, 1.919811) rotate(-51.000000) translate(-11.891209, -1.919811) " cx="11.8912094" cy="1.91981097" rx="0.5026712" ry="0.919811321"></ellipse>
                            <ellipse id="Oval-6" transform="translate(21.609519, 9.278302) rotate(-30.000000) translate(-21.609519, -9.278302) " cx="21.6095191" cy="9.2783018" rx="0.837785333" ry="1.28773585"></ellipse>
                            <ellipse id="Oval-7" transform="translate(23.285090, 7.806604) rotate(-30.000000) translate(-23.285090, -7.806604) " cx="23.2850897" cy="7.8066039" rx="0.5026712" ry="0.919811321"></ellipse>
                            <ellipse id="Oval-8" transform="translate(4.853813, 10.014151) rotate(-65.000000) translate(-4.853813, -10.014151) " cx="4.85381275" cy="10.0141514" rx="0.837785333" ry="1.28773585"></ellipse>
                            <ellipse id="Oval-9" transform="translate(1.837785, 8.542453) rotate(-85.000000) translate(-1.837785, -8.542453) " cx="1.83778486" cy="8.54245265" rx="0.5026712" ry="0.919811321"></ellipse>
                            <ellipse id="Oval-10" transform="translate(17.755707, 33.193396) rotate(3.000000) translate(-17.755707, -33.193396) " cx="17.7557067" cy="33.1933962" rx="1.34045653" ry="2.02358491"></ellipse>
                            <ellipse id="Oval-11" transform="translate(16.917921, 38.344340) rotate(29.000000) translate(-16.917921, -38.344340) " cx="16.9179215" cy="38.3443398" rx="0.837785333" ry="1.28773585"></ellipse>
                            <ellipse id="Oval-12" transform="translate(27.138902, 30.617924) rotate(-15.000000) translate(-27.138902, -30.617924) " cx="27.1389023" cy="30.6179244" rx="1.0053424" ry="1.65566038"></ellipse>
                            <ellipse id="Oval-13" transform="translate(28.982030, 33.561321) rotate(-9.000000) translate(-28.982030, -33.561321) " cx="28.9820301" cy="33.5613208" rx="0.5026712" ry="0.919811321"></ellipse>
                            <ellipse id="Oval-14" transform="translate(7.534726, 33.009434) rotate(3.000000) translate(-7.534726, -33.009434) " cx="7.53472559" cy="33.009434" rx="1.84312773" ry="1.83962264"></ellipse>
                            <ellipse id="Oval-15" transform="translate(3.132103, 36.589203) rotate(59.000000) translate(-3.132103, -36.589203) " cx="3.13210265" cy="36.5892032" rx="1.12676058" ry="1.37222229"></ellipse>
                        </g>
                        <g id="Arsenal-Pay" transform="translate(0.000000, 14.000000)" fill="#F48B00" sketch:type="MSShapeGroup">
                            <path d="M6.51367042,1.9694766 C6.53376623,1.9221018 6.59990396,1.883697 6.65847401,1.883697 L8.45816093,1.883697 C8.51803794,1.883697 8.58276438,1.9222312 8.60261011,1.9694766 L14.1731036,15.2307822 C14.1930037,15.278157 14.1580075,15.3165618 14.1111266,15.3165618 L11.3614276,15.3165618 C11.3072986,15.3165618 11.2497058,15.2820436 11.2281926,15.2278891 L10.0776315,12.331613 C10.0581769,12.2826404 9.99817613,12.2429402 9.93554713,12.2429402 L5.03308629,12.2429402 C4.97406989,12.2429402 4.90683767,12.2932754 4.89233471,12.3309241 C4.89233471,12.3309241 4.15384469,14.2479981 3.79309098,15.1844922 L3.55140034,15.2804732 C3.50121145,15.3004044 3.41524945,15.3165618 3.36145326,15.3165618 L0.951070534,15.3165618 C0.896354548,15.3165618 0.868344227,15.2780276 0.888385158,15.2307822 L6.51367042,1.9694766 L6.51367042,1.9694766 Z M9.12723162,9.9049702 C9.18310394,9.9049702 9.2133997,9.8627267 9.192163,9.80291 L7.52980121,5.120592 C7.5097895,5.0642257 7.47824923,5.0607754 7.46281336,5.1033451 L5.75248927,9.820157 C5.73550461,9.866998 5.76111728,9.9049702 5.82290161,9.9049702 L9.12723162,9.9049702 L9.12723162,9.9049702 Z M15.3931481,6.311811 C15.3931481,6.2553254 15.4349645,6.2095348 15.4966689,6.2095348 L17.6988393,6.2095348 C17.7560123,6.2095348 17.8023795,6.2468419 17.8024154,6.3159979 L17.8028109,7.0777734 C18.1980206,6.2095348 20.6102014,5.9755347 20.6842025,6.0008321 L20.6842025,8.0878591 C19.9569179,7.9097087 19.227866,8.2323026 18.919528,8.4220333 C18.6111899,8.611764 18.3706899,8.8394374 18.1980206,9.1050603 C18.0253513,9.3706833 17.9081846,9.6426265 17.8465169,9.9208982 C17.7848493,10.1991698 17.754016,10.420519 17.754016,10.5849522 L17.754016,15.2177355 C17.754016,15.2723158 17.7130387,15.3165618 17.6525724,15.3165618 L15.4945916,15.3165618 C15.4385659,15.3165618 15.3931481,15.2759588 15.3931481,15.2142857 L15.3931481,6.311811 L15.3931481,6.311811 Z M27.2980205,8.5043606 C26.5580129,7.7545437 25.4572537,7.6514808 25.0502474,7.6514808 C24.6925753,7.6514808 24.3657419,7.7273719 24.0697373,7.8791564 C23.7737328,8.030941 23.6257328,8.2839114 23.6257328,8.6380754 C23.6257328,8.9922393 23.7891495,9.2420476 24.1159878,9.3875078 C24.4428261,9.532968 24.920743,9.6815881 25.5497526,9.8333727 C25.8827577,9.9092649 26.2188411,10.0104531 26.5580129,10.1369402 C26.8971848,10.2634273 27.2055182,10.4310203 27.4830225,10.639724 C27.7605267,10.8484278 27.9856101,11.1077225 28.1582794,11.4176159 C28.3309487,11.7275093 28.4172821,12.1038029 28.4172821,12.5465078 C28.4172821,13.1030511 28.315532,13.5742086 28.1120289,13.9599943 C27.9085258,14.34578 27.6371924,14.6588309 27.2980206,14.8991564 C26.9588487,15.139482 26.5641819,15.3133991 26.1140084,15.4209132 C25.8523184,15.4834121 25.5854165,15.5261494 25.3133079,15.5519082 C25.1173203,15.5704612 24.9186317,15.5802063 24.717244,15.5821835 C24.6922736,15.5824286 22.6534065,15.5647688 21.6360868,14.9499853 L21.8299962,13.4015408 C23.5130323,14.1044384 25.1334975,13.7987242 25.3,13.7607781 C25.4665025,13.7228319 25.6206693,13.6627514 25.7625048,13.5805348 C25.9043403,13.4983182 26.0184236,13.3876436 26.1047583,13.2485078 C26.1910929,13.109372 26.2342596,12.9386169 26.2342596,12.7362375 C26.2342596,12.3567762 26.0646762,12.0848329 25.7255044,11.9203997 C25.3863325,11.7559664 24.8775824,11.5915356 24.1992387,11.4271024 C23.8662336,11.3512101 23.5424835,11.2531841 23.2279787,11.1330213 C22.9134739,11.0128585 22.6328905,10.854752 22.38622,10.658697 C22.1395496,10.4626419 21.9422162,10.2191579 21.7942139,9.9282375 C21.6462117,9.6373171 21.5722116,9.2768343 21.5722116,8.8467781 C21.5722116,8.3408296 21.6739617,7.9044556 21.8774648,7.5376429 C22.0809679,7.1708303 22.349218,6.8704279 22.6822231,6.6364267 C23.0152282,6.4024255 23.3913949,6.2285084 23.8107347,6.11467 C24.2300744,6.0008315 24.6617412,5.9439132 25.105748,5.9439132 C25.175099,5.9439132 25.2442696,5.9452443 25.3132599,5.9479065 C25.8822768,5.9698636 26.4390248,6.0823695 26.9835173,6.2854267 C27.1464906,6.3462042 27.204874,6.3504669 27.4454098,6.4934468 C27.4454096,6.4934468 27.2980205,8.5043606 27.2980205,8.5043606 L27.2980205,8.5043606 Z M36.5943662,9.8523456 C36.5943662,9.5614253 36.5542829,9.2831578 36.474115,9.0175348 C36.3939471,8.7519119 36.2675304,8.5179142 36.0948611,8.3155348 C35.9221918,8.1131554 35.703275,7.9518868 35.4381043,7.831724 C35.1729336,7.7115612 34.8615168,7.6514808 34.5038447,7.6514808 C33.8378345,7.6514808 33.2735843,7.8570192 32.8110773,8.2681024 C32.3485702,8.6791855 32.0926535,9.2072613 32.0433194,9.8523456 L36.5943662,9.8523456 L36.5943662,9.8523456 Z M38.814389,11.1804537 C38.814389,11.2816434 38.8082224,11.3828316 38.7958888,11.4840213 L32.0433194,11.4840213 C32.0679864,11.8128878 32.1512364,12.1132902 32.2930719,12.3852375 C32.4349074,12.6571848 32.6229908,12.8911825 32.8573278,13.0872375 C33.0916647,13.2832926 33.3568314,13.438237 33.6528359,13.5520754 C33.9488405,13.6659138 34.2571739,13.7228321 34.5778455,13.7228321 C35.1328539,13.7228321 36.5650137,13.7228323 37.9132851,12.8353967 C37.9132849,12.821616 38.4906359,14.5719973 38.5046946,14.5719976 C37.5933762,15.3941635 35.8363373,15.5821835 34.5963456,15.5821835 C33.9056684,15.5821835 33.2705016,15.4715089 32.690826,15.2501564 C32.1111505,15.028804 31.608567,14.7157531 31.1830605,14.3109943 C30.757554,13.9062355 30.4245539,13.409781 30.1840502,12.8216159 C29.9435466,12.2334508 29.8232965,11.5662413 29.8232965,10.8199673 C29.8232965,10.086342 29.9435466,9.4191324 30.1840502,8.8183186 C30.4245539,8.2175048 30.7544707,7.7052396 31.1738104,7.2815078 C31.5931502,6.8577759 32.089567,6.5289144 32.6630758,6.2949132 C33.2365845,6.060912 33.8563347,5.9439132 34.5223449,5.9439132 C35.139021,5.9439132 35.7094378,6.0482635 36.2336125,6.2569673 C36.7577872,6.465671 37.2110373,6.7755598 37.5933765,7.1866429 C37.9757157,7.5977261 38.2747991,8.1099912 38.4906357,8.7234537 C38.7064723,9.3369163 38.814389,10.0547199 38.814389,10.8768862 L38.814389,11.1804537 L38.814389,11.1804537 Z M40.9604111,6.311811 C40.9604111,6.2553254 40.9994618,6.2095348 41.0570851,6.2095348 L43.1136039,6.2095348 C43.1669955,6.2095348 43.2102779,6.2496972 43.2102779,6.3070595 L43.2102779,7.092676 C43.4507803,5.9227688 45.1969514,5.9439132 45.8629616,5.9439132 C46.4426371,5.9439132 46.9390539,6.0482635 47.3522269,6.2569673 C47.7653999,6.465671 48.1045666,6.7407764 48.3697373,7.0822916 C48.6349081,7.4238068 48.8291581,7.815911 48.9524933,8.2586159 C49.0758286,8.7013208 49.1374952,9.1566676 49.1374952,9.62467 L49.1374952,15.2177684 C49.1374952,15.2723305 49.096518,15.3165618 49.0360517,15.3165618 L46.8780709,15.3165618 C46.8220452,15.3165618 46.7766273,15.2729319 46.7766273,15.211152 L46.7766273,10.269751 C46.7766273,10.0041281 46.7581273,9.7258606 46.7211268,9.4349402 C46.6841262,9.1440198 46.6039595,8.881563 46.4806243,8.6475618 C46.3572891,8.4135607 46.1877057,8.2206707 45.9718691,8.0688862 C45.7560324,7.9171016 45.6101274,7.8412105 45.2524553,7.8412105 C44.8947831,7.8412105 44.7272948,7.9139395 44.4682908,8.0593997 C44.2092869,8.2048599 43.9965368,8.3914256 43.8300343,8.6191024 C43.6635317,8.8467792 43.537115,9.109236 43.4507804,9.4064808 C43.3644457,9.7037255 43.321279,10.0041279 43.321279,10.307697 L43.321279,15.2119446 C43.321279,15.2697231 43.2803017,15.3165618 43.2198355,15.3165618 L41.0618547,15.3165618 C41.0058289,15.3165618 40.9604111,15.2759588 40.9604111,15.2142857 L40.9604111,6.311811 L40.9604111,6.311811 Z M57.2405786,14.4480994 C57.2405786,14.4480994 56.6054079,14.895993 56.112067,15.1552916 C55.6187261,15.4145902 55.0575593,15.5442375 54.4285497,15.5442375 C54.0708775,15.5442375 53.6977941,15.4968056 53.3092882,15.4019402 C52.9207822,15.3070749 52.5631155,15.1489684 52.2362771,14.9276159 C51.9094388,14.7062634 51.6381054,14.4153474 51.4222687,14.0548591 C51.2064321,13.6943709 51.0985154,13.2485104 51.0985154,12.7172645 C51.0985154,12.0342341 51.2865988,11.4903477 51.6627712,11.0855889 C52.0389436,10.6808301 52.5230271,10.3709413 53.1150362,10.1559132 C53.7070452,9.9408851 54.3637954,9.7985892 55.0853064,9.7290213 C55.8068175,9.6594534 56.3720559,9.62467 57.0627332,9.62467 L57.0627332,9.3969943 C57.0627332,8.8278022 56.8623164,8.5516833 56.461477,8.279736 C56.0606375,8.0077887 55.5827207,7.8718171 55.0277122,7.8718171 C54.5590384,7.8718171 54.2497167,7.9730053 53.8180434,8.1753847 C53.3863701,8.3777641 53.0287034,8.6244102 52.7450324,8.9153306 L51.5980206,7.3858591 C52.103695,6.9052081 52.6864451,6.5447252 53.3462885,6.3043997 C54.006132,6.0640742 54.6752155,5.9439132 55.3535592,5.9439132 C56.1429046,5.9439132 56.7934881,6.0577499 57.3053293,6.2854267 C57.8171704,6.5131035 58.2210872,6.8103438 58.5170917,7.1771564 C58.8130963,7.5439691 59.0196797,7.9550461 59.1368481,8.4103997 C59.2540166,8.8657533 59.3125999,9.3211001 59.3125999,9.7764537 L59.3125999,15.3165618 L58.2022572,15.3165618 L57.2405786,15.3165618 L57.2405786,14.4480994 L57.2405786,14.4480994 Z M55.4751691,11.3683306 C52.8024192,11.5222445 53.3185383,12.8543566 53.3185383,12.9682075 C53.4286834,13.3100654 53.6700411,13.4825073 53.8180434,13.5710483 C53.9660457,13.6595893 54.1325457,13.7228319 54.3175485,13.7607781 C54.5025514,13.7987242 54.6875514,13.817697 54.8725542,13.817697 C55.6372326,13.817697 56.2168994,13.4645519 56.6115721,13.0471444 C56.9716139,12.6663628 57.0464796,12.0443793 57.0464796,12.0443793 C57.0546305,11.9938623 57.0617111,11.9126377 57.0622601,11.8576644 C57.0622601,11.8576644 57.0627332,11.836173 57.0627332,11.7729102 C57.0627332,11.7729102 56.7571588,11.2602444 55.4751691,11.3683306 L55.4751691,11.3683306 Z M61.939627,0.9729943 L64.1596498,0.9729943 L64.1596498,15.3165618 L61.939627,15.3165618 L61.939627,0.9729943 L61.939627,0.9729943 Z M71.5967263,1.1083443 C71.5967263,1.057913 71.6447202,1.0170303 71.7023651,1.0170303 L75.8702703,1.0170303 C76.6226151,1.0170303 77.3009486,1.0865972 77.9052912,1.225733 C78.5096338,1.3648688 79.0276339,1.5925422 79.4593072,1.90876 C79.8909805,2.2249778 80.2239806,2.6297305 80.4583175,3.1230303 C80.6926544,3.6163301 80.8098211,4.2108106 80.8098211,4.9064898 C80.8098211,5.6527638 80.6741544,6.2788656 80.4028169,6.7848141 C80.1314794,7.2907626 79.7645626,7.6986774 79.3020556,8.0085708 C78.8395485,8.3184643 78.299965,8.5429756 77.6832889,8.6821114 C78.3064466,8.6821114 76.412946,8.8908141 75.7222687,8.8908141 L74.0242314,8.8908141 C73.9709463,8.8908141 73.9277503,8.9318476 73.9277503,8.9816505 L73.9277503,15.2257255 C73.9277503,15.275893 73.887291,15.3165618 73.8275891,15.3165618 L71.6968875,15.3165618 C71.64157,15.3165618 71.5967263,15.2755415 71.5967263,15.2252479 L71.5967263,1.1083443 L71.5967263,1.1083443 Z M75.555767,7.0241234 C77.9324074,7.0241234 78.8271306,6.476209 78.8271306,4.980067 C78.8271306,3.483925 77.6618755,2.883721 75.6297678,2.883721 L73.9277503,2.883721 L73.9277503,7.0241234 L75.555767,7.0241234 L75.555767,7.0241234 Z M88.283898,14.2660168 C88.283898,14.2070293 88.2370694,14.1592105 88.2283974,14.1592105 L88.2283974,14.1592105 C88.006394,14.5639693 87.6487272,14.895993 87.1553864,15.1552916 C86.6620455,15.4145902 86.1008787,15.5442375 85.4718691,15.5442375 C85.1141969,15.5442375 84.7411135,15.4968056 84.3526075,15.4019402 C83.9641016,15.3070749 83.6064348,15.1489684 83.2795965,14.9276159 C82.9527582,14.7062634 82.6814248,14.4153474 82.4655881,14.0548591 C82.2497515,13.6943709 82.1418348,13.2485104 82.1418348,12.7172645 C82.1418348,12.0342341 82.3299182,11.4903477 82.7060906,11.0855889 C83.082263,10.6808301 83.5663465,10.3709413 84.1583555,10.1559132 C84.7503646,9.9408851 85.4071148,9.7985892 86.1286258,9.7290213 C86.8501368,9.6594534 87.5562204,9.62467 88.2468976,9.62467 L88.2468976,9.3969943 C88.2468976,8.8278022 88.0464809,8.4072389 87.6456414,8.1352916 C87.244802,7.8633443 86.7668852,7.7273727 86.2118767,7.7273727 C85.7432028,7.7273727 85.293036,7.8285608 84.8613628,8.0309402 C84.4296895,8.2333196 84.0720227,8.4799658 83.7883517,8.7708862 L82.6413399,7.3858591 C83.1470143,6.9052081 83.7297645,6.5447252 84.3896079,6.3043997 C85.0494513,6.0640742 85.7185349,5.9439132 86.3968786,5.9439132 C87.186224,5.9439132 87.8368075,6.0577499 88.3486486,6.2854267 C88.8604898,6.5131035 89.2644066,6.8103438 89.5604111,7.1771564 C89.8564156,7.5439691 90.062999,7.9550461 90.1801675,8.4103997 C90.2973359,8.8657533 90.3559193,9.3211001 90.3559193,9.7764537 L90.3559193,15.2204029 C90.3559193,15.27351 90.3047005,15.3165618 90.2559814,15.3165618 L88.3838359,15.3165618 C88.3286417,15.3165618 88.283898,15.2668319 88.283898,15.2097555 L88.283898,14.2660168 L88.283898,14.2660168 Z M88.2468976,11.1614808 L87.7473925,11.1614808 C87.3897203,11.1614808 87.0135536,11.1772914 86.6188809,11.2089132 C86.2242082,11.240535 85.8603747,11.3101018 85.5273696,11.4176159 C85.1943645,11.5251299 84.9168645,11.6769122 84.6948611,11.8729673 C84.4728577,12.0690223 84.3618576,12.3378034 84.3618576,12.6793186 C84.3618576,12.8943467 84.4081076,13.0745881 84.5006091,13.2200483 C84.5931105,13.3655085 84.7133605,13.4825073 84.8613628,13.5710483 C85.009365,13.6595893 85.1758651,13.7228319 85.3608679,13.7607781 C85.5458707,13.7987242 85.7308708,13.817697 85.9158736,13.817697 C86.680552,13.817697 87.2602188,13.6089964 87.6548915,13.1915889 C88.0495642,12.7741814 88.2468976,12.2049979 88.2468976,11.4840213 L88.2468976,11.1614808 L88.2468976,11.1614808 Z M91.6583138,6.2972114 C91.6338025,6.248789 91.6566393,6.2095348 91.7196579,6.2095348 L93.9687319,6.2095348 C94.0271225,6.2095348 94.0902881,6.2425949 94.1174857,6.2993935 L96.5104549,11.2967993 C96.5342187,11.3464268 96.5677778,11.3535979 96.5923368,11.2967993 L98.7531523,6.2993935 C98.7746107,6.2497659 98.8321443,6.2095348 98.8913723,6.2095348 L101.005164,6.2095348 C101.060042,6.2095348 101.088091,6.2501587 101.068024,6.2997389 C101.068024,6.2997389 97.4198213,15.3169368 97.2348185,15.6394789 C96.3635611,17.4770372 94.9319019,17.9723094 93.9604873,17.9922976 C93.8054451,17.9922976 93.6482394,17.985635 93.4888667,17.9723096 C93.4580692,17.9697346 93.0108118,17.9100816 92.8134755,17.8594867 L92.8576323,16.4640753 C92.8576323,16.4524418 93.5492957,16.4524418 93.5492958,16.4524417 C95.2553022,16.2804159 95.5491421,14.1141728 95.5491421,14.1141728 C95.5583511,14.0602637 95.5481973,13.9817548 95.521435,13.9288853 L91.6583138,6.2972114 L91.6583138,6.2972114 Z" id="path-1"></path>
                        </g>
                        <g id="Pay-mask-Clipped" transform="translate(0.000000, 14.000000)">
                            <mask id="mask-2" sketch:name="path-1" fill="white">
                                <use xlink:href="#path-1"></use>
                            </mask>
                            <g id="path-1"></g>
                            <rect id="Pay-mask" fill="#F48B00" sketch:type="MSShapeGroup" mask="url(#mask-2)" x="70.0140845" y="0" width="35.2112676" height="20.2222222"></rect>
                        </g>
                    </g>
                </g>
            </g>
        </g>
    </g>
</svg>