<?xml version="1.0" encoding="UTF-8"?>
<svg width="154px" height="33px" viewBox="0 0 154 33" version="1.1" xmlns="http://www.w3.org/2000/svg" xmlns:xlink="http://www.w3.org/1999/xlink">
    <!-- Generator: Sketch 50.2 (55047) - http://www.bohemiancoding.com/sketch -->
    <title>mps_logo_320</title>
    <desc>Created with Sketch.</desc>
    <defs>
        <path d="M18.2991274,0 C18.6065494,1.89626703 20.0694387,3.33333333 21.8299253,3.33333333 L21.8299253,3.33333333 L25.7605861,3.33333333 C25.7923822,3.15362407 25.8095306,2.967938 25.8095306,2.77759206 L25.8095306,2.77759206 C25.8095306,1.24378261 24.7130112,0 23.3606939,0 L23.3606939,0 L18.2991274,0 Z" id="path-1"></path>
    </defs>
    <g id="mps_logo_320" stroke="none" stroke-width="1" fill="none" fill-rule="evenodd">
        <g id="Group-6" transform="translate(-3.371134, 0.000000)">
            <rect id="Rectangle-19" fill-opacity="0" fill="#FFFFFF" x="4" y="0" width="156.371134" height="31"></rect>
            <g id="mps_logo" transform="translate(0.000000, 1.000000)">
                <g id="Group-3">
                    <g id="Group">
                        <rect id="Rectangle-7" fill-opacity="0" fill="#FFFFFF" x="0" y="0" width="33.6494845" height="22"></rect>
                        <g id="icon_mir" transform="translate(3.958763, 7.000000)">
                            <path d="M14.1736423,0.845036801 C14.3863454,0.329719515 14.8471429,0 15.3545359,0 L17.2858482,0 L17.2858482,8 L15.0100493,8 L15.0100493,3.27282674 L14.8476765,3.27282674 L13.2453782,7.1549632 C13.0325861,7.67028049 12.5718776,8 12.0649292,8 L10.1330834,8 L10.1330834,0 L12.4089712,0 L12.4089712,4.72717326 L12.5718776,4.72717326 L14.1736423,0.845036801 Z M5.48138613,1.05155588 C5.63938966,0.428857367 6.13986519,0 6.70864295,0 L8.94095595,0 L8.94095595,8 L6.70558595,8 L6.70558595,3.27252384 L6.54609759,3.27252384 L5.26879321,8 L3.6720754,8 L2.39485836,3.27252384 L2.23484594,3.27252384 L2.23484594,8 L0,8 L0,0 L2.232313,0 C2.80109077,0 3.30156629,0.428857367 3.45956982,1.05155588 L4.3907338,4.72747616 L4.55022216,4.72747616 L5.48138613,1.05155588 Z M18.4779756,4 L25.6307404,4 C25.2887025,4.97039316 24.3701902,5.66673504 23.2875542,5.66673504 L20.7951234,5.66673504 L20.7951234,8 L18.4779756,8 L18.4779756,4 Z" id="Combined-Shape" fill="#20AA4D"></path>
                            <mask id="mask-2" fill="white">
                                <use xlink:href="#path-1"></use>
                            </mask>
                            <use id="Clip-11" fill="#34BCE8" xlink:href="#path-1"></use>
                        </g>
                    </g>
                </g>
                <g id="Group-4" transform="translate(39.587629, 0.000000)">
                    <g id="Group">
                        <rect id="Rectangle-7" fill-opacity="0" fill="#FFFFFF" x="0" y="0" width="33.6494845" height="22"></rect>
                        <path d="M16.2095074,7.05000019 L14.5562428,15.0500002 L12.556701,15.0500002 L14.2106529,7.05000019 L16.2095074,7.05000019 Z M26.85189,15.0500002 L26.6103093,13.8547846 L24.0454754,13.8547846 L23.6284078,15.0500002 L21.5295533,15.0500002 L24.5294387,7.63669927 C24.6730813,7.28086177 24.9966781,7.05000019 25.3805269,7.05000019 L27.0869416,7.05000019 L28.7010309,15.0500002 L26.85189,15.0500002 Z M24.6209622,12.3154186 L26.2792669,12.3154186 L25.673425,9.41017477 L24.6209622,12.3154186 Z M21.6334479,12.4370968 C21.6423826,10.2675607 18.8130584,10.1477823 18.8325315,9.17834514 C18.8387171,8.88359041 19.1026346,8.57019267 19.6805269,8.48989363 C19.9665521,8.45017059 20.7565865,8.41934258 21.6515464,8.8576364 L22.0028637,7.11445282 C21.5214204,6.92863184 20.9027491,6.75 20.1323024,6.75 C18.1563574,6.75 16.7652921,7.86760658 16.754181,9.46737292 C16.741008,10.6515095 17.7468499,11.3113263 18.5046964,11.7050231 C19.2832761,12.1078586 19.5444444,12.3663021 19.5415808,12.726612 C19.5357388,13.2784699 18.9202749,13.5216821 18.3449026,13.5311864 C17.339748,13.5478798 16.7563574,13.2421586 16.2915235,13.0117406 L15.9295533,14.8132902 C16.3962199,15.0413931 17.2585338,15.240252 18.1528064,15.25 C20.2532646,15.25 21.6269187,14.1467717 21.6334479,12.4370968 Z M13.3526919,7.05000019 L10.1134021,15.0500002 L8.00011455,15.0500002 L6.40607102,8.66543839 C6.30927835,8.27236898 6.22531501,8.12806567 5.93104238,7.96277495 C5.45051546,7.69254714 4.65693013,7.43927527 3.95876289,7.28192893 L4.00584192,7.05000019 L7.40801833,7.05000019 C7.84135166,7.05000019 8.23150057,7.34844837 8.32989691,7.86554511 L9.17182131,12.4949897 L11.2526919,7.05000019 L13.3526919,7.05000019 Z" id="icon_visa" fill="#1A6BC8"></path>
                    </g>
                </g>
                <g id="Group-5" transform="translate(79.175258, 0.000000)">
                    <g id="Group">
                        <rect id="Rectangle-7" fill-opacity="0" fill="#FFFFFF" x="0" y="0" width="33.6494845" height="22"></rect>
                        <g id="icon_mastercard" transform="translate(6.927835, 5.000000)">
                            <polygon id="Fill-2" fill="#FF723A" points="7.21052091 10.6901801 12.5554313 10.6901801 12.5554313 1.27967773 7.21052091 1.27967773"></polygon>
                            <path d="M7.55009221,5.98492891 C7.55009221,4.07584834 8.4625232,2.37565877 9.88315023,1.27967773 C8.84394594,0.478123223 7.53308462,0 6.10810412,0 C2.73462285,0 0,2.67969668 0,5.98492891 C0,9.29016114 2.73462285,11.9698578 6.10810412,11.9698578 C7.53308462,11.9698578 8.84394594,11.4917346 9.88315023,10.6901801 C8.4625232,9.59425592 7.55009221,7.89400948 7.55009221,5.98492891" id="Fill-3" fill="#F53B4A"></path>
                            <path d="M13.6581963,11.967273 C12.2332158,11.967273 10.9223545,11.4892371 9.88355655,10.6878291 C11.3041836,9.59250315 12.2162663,7.89222615 12.2162663,5.98343749 C12.2162663,4.07470569 11.3041836,2.37482673 9.88355655,1.27904591 C10.9223545,0.478035875 12.2332158,0 13.6581963,0 C17.0316776,0 19.7663005,2.6788091 19.7663005,5.98343749 C19.7663005,9.28846392 17.0316776,11.967273 13.6581963,11.967273 Z" id="Fill-4" fill="#FFB32B"></path>
                        </g>
                        <g transform="translate(0.000000, 20.000000)" fill="#0B0B09" id="Fill-1">
                            <path d="M35.1877926,4.37699501 L35.1877926,4.4580942 L35.2581368,4.4580942 C35.2740533,4.4580942 35.2869645,4.45490689 35.2967593,4.44853228 C35.3066654,4.44121329 35.3111175,4.43082504 35.3111175,4.41713144 C35.3111175,4.40355588 35.3066654,4.39387592 35.2967593,4.38667497 C35.2869645,4.38030036 35.2740533,4.37699501 35.2581368,4.37699501 L35.1877926,4.37699501 Z M35.2589159,4.31997768 C35.2959802,4.31997768 35.3240288,4.3288313 35.3445088,4.34571221 C35.3642096,4.36341946 35.3740044,4.38750131 35.3740044,4.41713144 C35.3740044,4.44203963 35.3664357,4.46293418 35.3505192,4.47981508 C35.3346027,4.49586965 35.3118967,4.50554961 35.2824011,4.50956326 L35.3762304,4.62430621 L35.302881,4.62430621 L35.2157299,4.51027155 L35.1877926,4.51027155 L35.1877926,4.62430621 L35.1263527,4.62430621 L35.1263527,4.31997768 L35.2589159,4.31997768 Z M35.2407733,4.72877896 C35.2740533,4.72877896 35.3051071,4.7222863 35.3339349,4.70871075 C35.3626513,4.69584348 35.3875835,4.6773099 35.4096217,4.65405438 C35.4315486,4.63079887 35.4482442,4.604238 35.4610442,4.5729552 C35.4731763,4.5416724 35.4791867,4.50873692 35.4791867,4.47344048 C35.4791867,4.43802598 35.4731763,4.40509051 35.4610442,4.37380771 C35.4482442,4.34252491 35.4315486,4.31596404 35.4096217,4.29270852 C35.3875835,4.26945301 35.3626513,4.25174576 35.3339349,4.23817021 C35.3051071,4.22530294 35.2740533,4.21881028 35.2407733,4.21881028 C35.2067143,4.21881028 35.1748813,4.22530294 35.1453857,4.23817021 C35.1157788,4.25174576 35.0908467,4.26945301 35.0689198,4.29270852 C35.0468816,4.31596404 35.0302973,4.34252491 35.017386,4.37380771 C35.0052538,4.40509051 34.9992434,4.43802598 34.9992434,4.47344048 C34.9992434,4.50873692 35.0052538,4.5416724 35.017386,4.5729552 C35.0302973,4.604238 35.0468816,4.63079887 35.0689198,4.65405438 C35.0908467,4.6773099 35.1157788,4.69584348 35.1453857,4.70871075 C35.1748813,4.7222863 35.2067143,4.72877896 35.2407733,4.72877896 Z M35.2407733,4.14573838 C35.283848,4.14573838 35.3248079,4.15376567 35.3634305,4.17147291 C35.4012739,4.18835382 35.4345538,4.21160934 35.4632702,4.24135751 C35.4913189,4.27098763 35.5140249,4.30640213 35.5307205,4.34571221 C35.546637,4.38584863 35.5549848,4.42846407 35.5549848,4.47344048 C35.5549848,4.51829883 35.546637,4.56091427 35.5307205,4.60022435 C35.5140249,4.64036078 35.4913189,4.67494893 35.4632702,4.7046971 C35.4345538,4.73432723 35.4012739,4.75770079 35.3634305,4.77528999 C35.3248079,4.79299723 35.283848,4.80102452 35.2407733,4.80102452 C35.1961404,4.80102452 35.1544013,4.79299723 35.1157788,4.77528999 C35.0771563,4.75770079 35.0438764,4.73432723 35.0158277,4.7046971 C34.9871113,4.67494893 34.9651844,4.64036078 34.9484887,4.60022435 C34.9325723,4.56091427 34.9243357,4.51829883 34.9243357,4.47344048 C34.9243357,4.42846407 34.9325723,4.38584863 34.9484887,4.34571221 C34.9651844,4.30640213 34.9871113,4.27098763 35.0158277,4.24135751 C35.0438764,4.21160934 35.0771563,4.18835382 35.1157788,4.17147291 C35.1544013,4.15376567 35.1961404,4.14573838 35.2407733,4.14573838 Z M6.22713103,2.97422702 C6.22713103,2.3944918 6.58452853,1.91828494 7.17043336,1.91828494 C7.72995912,1.91828494 8.10705745,2.37359725 8.10705745,2.97422702 C8.10705745,3.57485679 7.72995912,4.03016909 7.17043336,4.03016909 C6.58452853,4.03016909 6.22713103,3.55396224 6.22713103,2.97422702 Z M8.74449608,2.97422702 L8.74449608,1.32485611 L8.06843492,1.32485611 L8.06843492,1.72563011 C7.85339538,1.42850253 7.52783086,1.2422223 7.08573093,1.2422223 C6.21355193,1.2422223 5.53058991,1.96727498 5.53058991,2.97422702 C5.53058991,3.98200539 6.21355193,4.70623173 7.08573093,4.70623173 C7.52783086,4.70623173 7.85339538,4.51995151 8.06843492,4.22365027 L8.06843492,4.62347987 L8.74449608,4.62347987 L8.74449608,2.97422702 Z M31.594562,2.97422702 C31.594562,2.3944918 31.9526273,1.91828494 32.5379756,1.91828494 C33.0973901,1.91828494 33.4751562,2.37359725 33.4751562,2.97422702 C33.4751562,3.57485679 33.0973901,4.03016909 32.5379756,4.03016909 C31.9526273,4.03016909 31.594562,3.55396224 31.594562,2.97422702 Z M34.1127062,2.97422702 L34.1127062,0 L33.4358659,0 L33.4358659,1.72563011 C33.2214942,1.42850253 32.896041,1.2422223 32.4538297,1.2422223 C31.5816507,1.2422223 30.8988,1.96727498 30.8988,2.97422702 C30.8988,3.98200539 31.5816507,4.70623173 32.4538297,4.70623173 C32.896041,4.70623173 33.2214942,4.51995151 33.4358659,4.22365027 L33.4358659,4.62347987 L34.1127062,4.62347987 L34.1127062,2.97422702 Z M17.1377164,1.88381483 C17.5738059,1.88381483 17.8531792,2.17362342 17.9250817,2.68441843 L16.3117286,2.68441843 C16.3828519,2.20821157 16.6562148,1.88381483 17.1377164,1.88381483 Z M17.1506277,1.2422223 C16.2398261,1.2422223 15.6023875,1.94638043 15.6023875,2.97422702 C15.6023875,4.02296815 16.2663165,4.70623173 17.1968189,4.70623173 C17.66463,4.70623173 18.09393,4.58180882 18.4716962,4.24371848 L18.1401212,3.7129733 C17.8796696,3.93384168 17.5480946,4.05743825 17.2353301,4.05743825 C16.7993519,4.05743825 16.4025527,3.84388887 16.304939,3.25046005 L18.6148332,3.25046005 C18.6216228,3.16050724 18.6276332,3.07055443 18.6276332,2.97422702 C18.6216228,1.94638043 18.0228067,1.2422223 17.1506277,1.2422223 Z M25.3158972,2.97422702 C25.3158972,2.3944918 25.6740738,1.91828494 26.2599786,1.91828494 C26.8195044,1.91828494 27.1964914,2.37359725 27.1964914,2.97422702 C27.1964914,3.57485679 26.8195044,4.03016909 26.2599786,4.03016909 C25.6740738,4.03016909 25.3158972,3.55396224 25.3158972,2.97422702 Z M27.8340413,2.97422702 L27.8340413,1.32485611 L27.1572011,1.32485611 L27.1572011,1.72563011 C26.9429406,1.42850253 26.6173761,1.2422223 26.1751649,1.2422223 C25.3030972,1.2422223 24.6201352,1.96727498 24.6201352,2.97422702 C24.6201352,3.98200539 25.3030972,4.70623173 26.1751649,4.70623173 C26.6173761,4.70623173 26.9429406,4.51995151 27.1572011,4.22365027 L27.1572011,4.62347987 L27.8340413,4.62347987 L27.8340413,2.97422702 Z M21.4971645,2.97422702 C21.4971645,3.97468639 22.1543039,4.70623173 23.1559296,4.70623173 C23.6245199,4.70623173 23.9371732,4.59621071 24.2749811,4.31277673 L23.9500844,3.73304151 C23.6964224,3.92652268 23.4292925,4.03016909 23.1370079,4.03016909 C22.5964039,4.02296815 22.199716,3.60932689 22.199716,2.97422702 C22.199716,2.33983543 22.5964039,1.92560393 23.1370079,1.91828494 C23.4292925,1.91828494 23.6964224,2.02193135 23.9500844,2.21541252 L24.2749811,1.6356773 C23.9371732,1.35306966 23.6245199,1.2422223 23.1559296,1.2422223 C22.1543039,1.2422223 21.4971645,1.97376764 21.4971645,2.97422702 Z M30.2150589,1.2422223 C29.8252719,1.2422223 29.5716098,1.43570347 29.3959719,1.72563011 L29.3959719,1.32485611 L28.7259212,1.32485611 L28.7259212,4.62347987 L29.4019823,4.62347987 L29.4019823,2.77425319 C29.4019823,2.22910612 29.6238114,1.92560393 30.0660227,1.92560393 C30.2022589,1.92560393 30.3452847,1.94638043 30.4892009,2.00823775 L30.6966717,1.33217511 C30.5475242,1.2703178 30.3521855,1.2422223 30.2150589,1.2422223 Z M12.0886281,1.58751359 C11.7638427,1.35944427 11.3148419,1.2422223 10.820429,1.2422223 C10.0330638,1.2422223 9.52585093,1.64287825 9.52585093,2.29816438 C9.52585093,2.8361105 9.90283795,3.16770819 10.5985999,3.2713546 L10.918154,3.31951831 C11.2883515,3.37488296 11.4639894,3.47770303 11.4639894,3.66398326 C11.4639894,3.91932174 11.2172282,4.0646392 10.7553161,4.0646392 C10.2867258,4.0646392 9.94825003,3.90574618 9.72041052,3.71934791 L9.40163555,4.27830663 C9.77261214,4.56811522 10.2413138,4.70623173 10.7485266,4.70623173 C11.6464168,4.70623173 12.1674314,4.25823842 12.1674314,3.63022144 C12.1674314,3.05048622 11.7569418,2.74698403 11.0801015,2.64333762 L10.7614379,2.59446562 C10.4691533,2.55350286 10.2345242,2.49164555 10.2345242,2.27077717 C10.2345242,2.0291323 10.4555742,1.88381483 10.8265508,1.88381483 C11.2240177,1.88381483 11.6071265,2.0428259 11.7963435,2.16724881 L12.0886281,1.58751359 Z M20.8142024,1.2422223 C20.423525,1.2422223 20.169863,1.43570347 19.9942251,1.72563011 L19.9942251,1.32485611 L19.3242856,1.32485611 L19.3242856,4.62347987 L20.0003468,4.62347987 L20.0003468,2.77425319 C20.0003468,2.22910612 20.2221759,1.92560393 20.6642758,1.92560393 C20.800512,1.92560393 20.9444283,1.94638043 21.0875653,2.00823775 L21.295704,1.33217511 C21.1457774,1.2703178 20.9504387,1.2422223 20.8142024,1.2422223 Z M15.0428617,1.32485611 L13.9367215,1.32485611 L13.9367215,0.324396739 L13.2537595,0.324396739 L13.2537595,1.32485611 L12.6223313,1.32485611 L12.6223313,1.98096859 L13.2537595,1.98096859 L13.2537595,3.48490398 C13.2537595,4.25091942 13.5331328,4.70623173 14.3334093,4.70623173 C14.6264731,4.70623173 14.9648376,4.60990432 15.179098,4.45089325 L14.9845384,3.83668792 C14.7824101,3.96111084 14.5613602,4.02296815 14.3857223,4.02296815 C14.0472465,4.02296815 13.9367215,3.80209977 13.9367215,3.47121038 L13.9367215,1.98096859 L15.0428617,1.98096859 L15.0428617,1.32485611 Z M4.9317738,4.62347987 L4.9317738,2.55350286 C4.9317738,1.77379381 4.46385132,1.24942325 3.70909815,1.2422223 C3.312299,1.23572965 2.90192075,1.36664521 2.61575788,1.82915847 C2.40149747,1.46297263 2.06313298,1.2422223 1.58764182,1.2422223 C1.25595557,1.2422223 0.930502358,1.34575066 0.676840292,1.73200471 L0.676840292,1.32485611 L0,1.32485611 L0,4.62347987 L0.683629842,4.62347987 L0.683629842,2.79514774 C0.683629842,2.22178713 0.982703985,1.91828494 1.44450474,1.91828494 C1.89350552,1.91828494 2.12134503,2.22910612 2.12134503,2.78794679 L2.12134503,4.62347987 L2.80430705,4.62347987 L2.80430705,2.79514774 C2.80430705,2.22178713 3.11696029,1.91828494 3.56596107,1.91828494 C4.02776182,1.91828494 4.24881178,2.22910612 4.24881178,2.78794679 L4.24881178,4.62347987 L4.9317738,4.62347987 Z"></path>
                        </g>
                    </g>
                </g>
                <g id="Group-7" transform="translate(122.721649, 0.000000)">
                    <g id="Group">
                        <rect id="Rectangle-7" fill-opacity="0" fill="#FFFFFF" x="0" y="0" width="33.6494845" height="22"></rect>
                        <g id="icon_maestro" transform="translate(6.927835, 5.000000)">
                            <polygon id="Fill-2" fill="#817CB4" points="7.21052091 10.6901801 12.5554313 10.6901801 12.5554313 1.27967773 7.21052091 1.27967773"></polygon>
                            <path d="M7.55009221,5.98492891 C7.55009221,4.07584834 8.4625232,2.37565877 9.88315023,1.27967773 C8.84394594,0.478123223 7.53308462,0 6.10810412,0 C2.73462285,0 0,2.67969668 0,5.98492891 C0,9.29016114 2.73462285,11.9698578 6.10810412,11.9698578 C7.53308462,11.9698578 8.84394594,11.4917346 9.88315023,10.6901801 C8.4625232,9.59425592 7.55009221,7.89400948 7.55009221,5.98492891" id="Fill-3" fill="#F53B4A"></path>
                            <path d="M13.6581963,11.967273 C12.2332158,11.967273 10.9223545,11.4892371 9.88355655,10.6878291 C11.3041836,9.59250315 12.2162663,7.89222615 12.2162663,5.98343749 C12.2162663,4.07470569 11.3041836,2.37482673 9.88355655,1.27904591 C10.9223545,0.478035875 12.2332158,0 13.6581963,0 C17.0316776,0 19.7663005,2.6788091 19.7663005,5.98343749 C19.7663005,9.28846392 17.0316776,11.967273 13.6581963,11.967273 Z" id="Fill-4" fill="#54B1E5"></path>
                        </g>
                    </g>
                    <g id="Group-2" transform="translate(3.958763, 20.000000)" fill="#121210">
                        <path d="M5.07028437,4.56846824 L5.07028437,2.36861432 C5.07028437,1.54014351 4.58867621,0.982836261 3.8130426,0.975346202 C3.40499419,0.96773911 2.98306659,1.10712444 2.68904113,1.59889367 C2.46857542,1.21034682 2.12020756,0.975346202 1.63165981,0.975346202 C1.29097889,0.975346202 0.956383469,1.08523942 0.695241031,1.49567128 L0.695241031,1.06347143 L0,1.06347143 L0,4.56846824 L0.702180629,4.56846824 L0.702180629,2.62538293 C0.702180629,2.01693262 1.00997852,1.69380676 1.48464708,1.69380676 C1.9463973,1.69380676 2.18063545,2.02360345 2.18063545,2.61789287 L2.18063545,4.56846824 L2.88281608,4.56846824 L2.88281608,2.62538293 C2.88281608,2.01693262 3.20438641,1.69380676 3.66528253,1.69380676 C4.14080519,1.69380676 4.3682105,2.02360345 4.3682105,2.61789287 L4.3682105,4.56846824 L5.07028437,4.56846824 Z M8.98976973,2.81591132 L8.98976973,1.06347143 L8.2945287,1.06347143 L8.2945287,1.48900045 C8.07320889,1.17336465 7.7393608,0.975346202 7.28455018,0.975346202 C6.38795402,0.975346202 5.68588016,1.74494983 5.68588016,2.81591132 C5.68588016,3.88605359 6.38795402,4.65659347 7.28455018,4.65659347 C7.7393608,4.65659347 8.07320889,4.45845799 8.2945287,4.14293923 L8.2945287,4.56846824 L8.98976973,4.56846824 L8.98976973,2.81591132 Z M6.40097911,2.81591132 C6.40097911,2.19985392 6.76931166,1.69380676 7.37113502,1.69380676 C7.94616085,1.69380676 8.33435132,2.17808593 8.33435132,2.81591132 C8.33435132,3.45385374 7.94616085,3.93731369 7.37113502,3.93731369 C6.76931166,3.93731369 6.40097911,3.43196873 6.40097911,2.81591132 Z M24.4830111,0.975346202 C24.7311285,0.975346202 24.9607758,1.02227611 25.1720599,1.11718921 C25.3834507,1.21116605 25.5664426,1.34130583 25.7202882,1.50655527 C25.8749879,1.67192175 25.9952031,1.86748252 26.0824285,2.09241838 C26.1697607,2.31817345 26.2134268,2.56335587 26.2134268,2.82773157 C26.2134268,3.09210727 26.1697607,3.33717266 26.0824285,3.56292774 C25.9952031,3.78786359 25.8749879,3.98424359 25.7202882,4.14961006 C25.5664426,4.31497654 25.3834507,4.44418007 25.1720599,4.53909316 C24.9607758,4.63307001 24.7311285,4.67999991 24.4830111,4.67999991 C24.2348938,4.67999991 24.0052464,4.63307001 23.7938556,4.53909316 C23.5825715,4.44418007 23.4010743,4.31497654 23.2479761,4.14961006 C23.0948778,3.98424359 22.9746626,3.78786359 22.8873305,3.56292774 C22.800105,3.33717266 22.756439,3.09210727 22.756439,2.82773157 C22.756439,2.56335587 22.800105,2.31817345 22.8873305,2.09241838 C22.9746626,1.86748252 23.0948778,1.67192175 23.2479761,1.50655527 C23.4010743,1.34130583 23.5825715,1.21116605 23.7938556,1.11718921 C24.0052464,1.02227611 24.2348938,0.975346202 24.4830111,0.975346202 Z M24.4830111,1.69965837 C24.3398419,1.69965837 24.2073489,1.727395 24.0840376,1.781932 C23.9615803,1.83728822 23.8551376,1.91452946 23.7655634,2.01353868 C23.6759892,2.11254791 23.6055255,2.2318037 23.5542793,2.37025277 C23.5029263,2.50870185 23.4777302,2.66154587 23.4777302,2.82773157 C23.4777302,2.9947365 23.5029263,3.14664427 23.5542793,3.28509334 C23.6055255,3.42354241 23.6759892,3.5427982 23.7655634,3.64180743 C23.8551376,3.74081665 23.9615803,3.81805789 24.0840376,3.87353115 C24.2073489,3.92888737 24.3398419,3.95568774 24.4830111,3.95568774 C24.6261804,3.95568774 24.7594207,3.92888737 24.8818779,3.87353115 C25.0051892,3.81805789 25.1123793,3.74081665 25.2019535,3.64180743 C25.2930224,3.5427982 25.3634861,3.42354241 25.4155864,3.28509334 C25.4668327,3.14664427 25.4921355,2.9947365 25.4921355,2.82773157 C25.4921355,2.66154587 25.4668327,2.50870185 25.4155864,2.37025277 C25.3634861,2.2318037 25.2930224,2.11254791 25.2019535,2.01353868 C25.1123793,1.91452946 25.0051892,1.83728822 24.8818779,1.781932 C24.7594207,1.727395 24.6261804,1.69965837 24.4830111,1.69965837 Z M15.9037453,1.95818246 C15.7099704,1.825585 15.3156944,1.6568246 14.9075393,1.6568246 C14.5262884,1.6568246 14.2988831,1.81130708 14.2988831,2.06807568 C14.2988831,2.30225708 14.5393135,2.36861432 14.8401718,2.41226733 L15.1679343,2.46341039 C15.8639227,2.57423987 16.2849962,2.8965465 16.2849962,3.5126039 C16.2849962,4.17980437 15.749793,4.65659347 14.8271467,4.65659347 C14.3049686,4.65659347 13.8233604,4.50971809 13.4421095,4.20168938 L13.7697653,3.60739997 C14.0041103,3.80553545 14.3524781,3.97417882 14.8340863,3.97417882 C15.3087548,3.97417882 15.5629577,3.8206326 15.5629577,3.54864981 C15.5629577,3.35145059 15.3823146,3.24062111 15.0009569,3.18269018 L14.6733011,3.13154712 C13.957348,3.02071764 13.5691576,2.66903593 13.5691576,2.09745076 C13.5691576,1.40087521 14.0913357,0.975346202 14.9007064,0.975346202 C15.4091121,0.975346202 15.8707556,1.10033657 16.2046036,1.34212506 L15.9037453,1.95818246 Z M12.847119,2.81591132 C12.8402862,1.72318184 12.2246904,0.975346202 11.3280942,0.975346202 C10.3916754,0.975346202 9.73625703,1.72318184 9.73625703,2.81591132 C9.73625703,3.92970659 10.418473,4.65565722 11.375497,4.65565722 C11.8571052,4.65565722 12.2981434,4.52399601 12.6863338,4.16470722 L12.3449056,3.59990991 C12.0776776,3.83491053 11.7361426,3.96668876 11.4153196,3.96668876 C10.9674486,3.96668876 10.5594002,3.7391782 10.4590429,3.10884287 L12.8333466,3.10884287 C12.8402862,3.01322758 12.847119,2.91831448 12.847119,2.81591132 Z M10.4651284,2.50788262 C10.5394355,2.00183547 10.8196885,1.6568246 11.3150691,1.6568246 C11.7629402,1.6568246 12.0508801,1.9648533 12.1243331,2.50788262 L10.4651284,2.50788262 Z M19.3690607,1.76004698 L18.2321409,1.76004698 L18.2321409,3.34384349 C18.2321409,3.6955252 18.3454165,3.93052582 18.6937843,3.93052582 C18.8745342,3.93052582 19.1019395,3.86428561 19.3086328,3.73250737 L19.5092406,4.38461068 C19.2886681,4.55337109 18.9411543,4.65659347 18.6401893,4.65659347 C17.8171529,4.65659347 17.5299602,4.17231431 17.5299602,3.35812142 L17.5299602,1.76004698 L16.8807341,1.76004698 L16.8807341,1.06347143 L17.5299602,1.06347143 L17.5299602,0 L18.2321409,0 L18.2321409,1.06347143 L19.3690607,1.06347143 L19.3690607,1.76004698 Z M21.9402354,0.975346202 C22.0803085,0.975346202 22.2816636,1.00472128 22.435616,1.07096149 L22.2212357,1.78942206 C22.074223,1.72318184 21.9272103,1.70129682 21.786283,1.70129682 C21.3314724,1.70129682 21.1040671,2.02360345 21.1040671,2.60279572 L21.1040671,4.56846824 L20.4080787,4.56846824 L20.4080787,1.06347143 L21.0972343,1.06347143 L21.0972343,1.48900045 C21.2778774,1.18097174 21.5390198,0.975346202 21.9402354,0.975346202 Z" id="Fill-4"></path>
                    </g>
                </g>
            </g>
        </g>
    </g>
</svg>