<?xml version="1.0" encoding="UTF-8"?>
<svg width="158px" height="30px" viewBox="0 0 158 30" version="1.1" xmlns="http://www.w3.org/2000/svg" xmlns:xlink="http://www.w3.org/1999/xlink">
    <!-- Generator: Sketch 48.2 (47327) - http://www.bohemiancoding.com/sketch -->
    <title>phone_logo</title>
    <desc>Created with Sketch.</desc>
    <defs></defs>
    <g id="Page-2" stroke="none" stroke-width="1" fill="none" fill-rule="evenodd">
        <g id="phone_logo">
            <g id="Group-2">
                <rect id="Rectangle-19" fill-opacity="0" fill="#FFFFFF" x="0" y="0" width="158" height="30"></rect>
                <g id="Group-27" transform="translate(4.000000, 4.000000)">
                    <g id="Group-24" fill="#16AF6D">
                        <path d="M10.9349508,11.070037 C10.9349508,10.6088248 11.3166153,10.2335293 11.7868374,10.2335293 C12.2585034,10.2335293 12.6396866,10.6088248 12.6396866,11.070037 C12.6396866,11.5321933 12.2585034,11.9060726 11.7868374,11.9060726 C11.3166153,11.9060726 10.9349508,11.5321933 10.9349508,11.070037 L10.9349508,11.070037 Z M9.37556525,15.6665807 L7.76756918,15.6665807 L7.76756918,9.10669866 C7.76756918,9.04910615 7.7719008,8.99104156 7.84553846,8.99104156 L8.93181416,8.99529019 C9.30722181,8.99529019 9.55219936,8.74131663 9.55219936,8.30229171 L9.55219936,0.0651456335 C13.4862789,0.562707211 16.5251557,3.86058689 16.5251557,7.8552416 C16.5251557,11.9098492 13.3948335,15.2459665 9.37556525,15.6665807 L9.37556525,15.6665807 Z M8.62763771,11.070037 C8.62763771,10.6088248 9.01026474,10.2335293 9.48096817,10.2335293 C9.95263418,10.2335293 10.3338173,10.6088248 10.3338173,11.070037 C10.3338173,11.5321933 9.95263418,11.9060726 9.48096817,11.9060726 C9.01026474,11.9060726 8.62763771,11.5321933 8.62763771,11.070037 L8.62763771,11.070037 Z M13.242264,11.070037 C13.242264,10.6088248 13.6234471,10.2335293 14.0951131,10.2335293 C14.5653353,10.2335293 14.947481,10.6088248 14.947481,11.070037 C14.947481,11.5321933 14.5653353,11.9060726 14.0951131,11.9060726 C13.6234471,11.9060726 13.242264,11.5321933 13.242264,11.070037 L13.242264,11.070037 Z" id="Fill-2"></path>
                        <path d="M0,7.8552416 C0,3.51597593 3.58562429,0 8.00869639,0 C8.19832538,0 8.38362275,0.0061369075 8.57036398,0.0188827923 L8.57036398,7.97656354 C8.57036398,8.03415606 8.56506977,8.09174858 8.492876,8.09174858 L7.40660029,8.08702788 C7.03119265,8.08702788 6.78814026,8.34288971 6.78814026,8.78144257 L6.78814026,15.6198458 C2.94406225,15.0429765 0,11.7852228 0,7.8552416 L0,7.8552416 Z M5.73170465,5.80740278 C5.73170465,5.29284669 6.15476019,4.87742526 6.67840572,4.87742526 C7.20253254,4.87742526 7.62799454,5.29284669 7.62799454,5.80740278 C7.62799454,6.31959852 7.20253254,6.73643616 6.67840572,6.73643616 C6.15476019,6.73643616 5.73170465,6.31959852 5.73170465,5.80740278 L5.73170465,5.80740278 Z" id="Fill-3"></path>
                    </g>
                    <g id="Group" transform="translate(29.000000, 0.000000)" fill="#FF2B2B">
                        <path d="M13.8817467,0.20547018 C14.7073037,0.20547018 15.3778301,0.858777478 15.3778301,1.66343968 L15.3778301,13.33191 C15.3778301,14.1373166 14.7073037,14.7906239 13.8817467,14.7906239 L1.90951583,14.7906239 C1.08268602,14.7906239 0.413687026,14.1373166 0.413687026,13.33191 L0.413687026,1.66343968 C0.413687026,0.858777478 1.08268602,0.20547018 1.90951583,0.20547018 L13.8817467,0.20547018 Z M7.89512213,12.6116095 C10.4863477,12.6116095 11.6461496,10.5869276 11.6461496,8.58035862 C11.6461496,7.20774336 11.1708752,5.62769745 10.3745933,4.3520982 C9.60554992,3.1216573 8.67842118,2.38646948 7.89512213,2.38646948 C7.11233221,2.38646948 6.18673086,3.1216573 5.41819663,4.3520982 C4.62242385,5.62769745 4.14714945,7.20774336 4.14714945,8.58035862 C4.14714945,10.5869276 5.30567853,12.6116095 7.89512213,12.6116095 Z" id="Combined-Shape"></path>
                    </g>
                    <g id="Group-25" transform="translate(57.000000, 0.000000)">
                        <path d="M2.14213161,13.1550824 C4.38382819,13.2133759 6.92591677,13.269196 8.34570743,13.269196 C9.75969957,13.269196 12.2679163,13.214245 14.4875501,13.1563526 C15.3813012,12.2177066 16.0411312,11.0741642 16.3782237,9.80868678 L0.251953089,9.80868678 C0.589399102,11.073362 1.24746126,12.2164364 2.14213161,13.1550824" id="Fill-33" fill="#FFE038"></path>
                        <path d="M2.14213161,13.1550824 C3.66403293,14.7516697 5.86655409,15.7557622 8.3157248,15.7557622 C10.7644712,15.7557622 12.9660731,14.7529398 14.4875501,13.1563526 C12.2679163,13.214245 9.75969957,13.269196 8.34570743,13.269196 C6.92591677,13.269196 4.38382819,13.2133759 2.14213161,13.1550824" id="Fill-34" fill="#262626"></path>
                        <path d="M0,7.87804822 C0,8.54394471 0.0876850494,9.19065515 0.251953089,9.80868678 L16.3782237,9.80868678 C16.5419967,9.19065515 16.6305303,8.54394471 16.6305303,7.87804822 C16.6305303,7.21175062 16.5419967,6.56544128 16.3782237,5.94794445 L0.251953089,5.94794445 C0.0876850494,6.56544128 0,7.21175062 0,7.87804822" id="Fill-35" fill="#262626"></path>
                        <path d="M14.4875501,2.60021183 C12.9660731,1.00362454 10.7644712,0 8.3157248,0 C5.86655409,0 3.66403293,1.00362454 2.14213161,2.60148199 C4.38382819,2.54312162 6.92591677,2.48736841 8.34570743,2.48736841 C9.75969957,2.48736841 12.2679163,2.54278737 14.4875501,2.60021183" id="Fill-36" fill="#262626"></path>
                        <path d="M8.34570743,2.48736841 C6.92591677,2.48736841 4.38382819,2.54312162 2.14213161,2.60148199 C1.24746126,3.53966002 0.589399102,4.68320238 0.251953089,5.94794445 L16.3782237,5.94794445 C16.0411312,4.68320238 15.3813012,3.53925892 14.4875501,2.60021183 C12.2679163,2.54278737 9.75969957,2.48736841 8.34570743,2.48736841" id="Fill-37" fill="#FFE038"></path>
                    </g>
                    <g id="tele2" transform="translate(83.000000, 3.000000)" fill-rule="nonzero">
                        <path d="M0,11 L2.10505952,11 L2.10505952,9 L0,9 L0,11 Z M37.8947129,11 L40,11 L40,9 L37.8947129,9 L37.8947129,11 Z" id="Shape" fill="#2F9EDC"></path>
                        <path d="M2,3.60241476 L8.68092836,3.60241476 L8.68092836,1.44488787 L2,1.44488787 L2,3.60241476 Z M4.04786663,11 L6.64924769,11 L6.64924769,4.10313393 L4.04786663,4.10313393 L4.04786663,11 Z M9.23079525,11 L11.8321763,11 L11.8321763,1.44488787 L9.23079525,1.44488787 L9.23079525,11 Z M16.0694798,11 L18.6708608,11 L18.6708608,1.44488787 L16.0694798,1.44488787 L16.0694798,11 Z M12.3863747,3.60241476 L14.9875278,3.60241476 L14.9875278,1.44488787 L12.3863747,1.44488787 L12.3863747,3.60241476 Z M12.3863747,7.30109596 L14.9875278,7.30109596 L14.9875278,5.14334623 L12.3863747,5.14334623 L12.3863747,7.30109596 Z M12.3863747,11 L14.9875278,11 L14.9875278,8.84202743 L12.3863747,8.84202743 L12.3863747,11 Z M19.2049977,11 L21.8063788,11 L21.8063788,8.84202743 L19.2049977,8.84202743 L19.2049977,11 Z M22.3562457,11 L24.9573988,11 L24.9573988,1.44488787 L22.3562457,1.44488787 L22.3562457,11 Z M25.5118251,3.60241476 L28.1129782,3.60241476 L28.1129782,1.44488787 L25.5118251,1.44488787 L25.5118251,3.60241476 Z M25.5118251,7.30109596 L28.1129782,7.30109596 L28.1129782,5.14334623 L25.5118251,5.14334623 L25.5118251,7.30109596 Z M25.5118251,11 L28.1129782,11 L28.1129782,8.84202743 L25.5118251,8.84202743 L25.5118251,11 Z M33,2.2370804 L33,0 C30.6945257,0.0577152928 29.4333882,1.83886717 29.4333882,4.37299192 L31.8765572,4.37299192 C31.798363,3.40965906 32.172692,2.50448717 33,2.2370804 Z" id="Shape" fill="#000000"></path>
                        <path d="M36.9997495,3.1851883 C37.0209427,1.42946716 35.6968349,-0.0561773832 33.2744452,0.00163240282 L33.2744452,2.22050145 C33.9867742,2.41357274 34.3943913,2.7220404 34.3943913,3.39745512 C34.3943913,4.82528988 32.3991635,6.61962528 29,8.95433711 L29,11 L36.9797336,11 L36.9797336,8.85791306 L32.9490109,8.85791306 C36.3481745,6.29173889 36.9794981,4.86390414 36.9997495,3.1851883 Z" id="Shape" fill="#000000"></path>
                    </g>
                </g>
            </g>
        </g>
    </g>
</svg>