<svg xmlns="http://www.w3.org/2000/svg" xmlns:xlink="http://www.w3.org/1999/xlink" width="182" height="120" viewBox="0 0 182 120">
    <defs>
        <path id="a" d="M19.478.173H.03V39h38.894V.173z"/>
        <path id="c" d="M.506 2.416C.506.429 2.789-.696 4.37.51l5.476 4.176a2.396 2.396 0 0 1-.074 3.866l-5.475 3.855C2.704 13.53.506 12.393.506 10.448V2.416z"/>
    </defs>
    <g fill="none" fill-rule="evenodd">
        <path fill="#FFF" fill-opacity="0" d="M0 0h182v120H0z" opacity=".494"/>
        <g transform="translate(2 45)">
            <mask id="b" fill="#fff">
                <use xlink:href="#a"/>
            </mask>
            <path fill="#BB252C" d="M38.925 19.586C38.925 30.308 30.21 39 19.463 39 8.713 39 0 30.308 0 19.586 0 8.864 8.714.173 19.463.173c10.748 0 19.462 8.691 19.462 19.413" mask="url(#b)"/>
        </g>
        <path fill="#FFFFFE" d="M11.766 63.837v8.032c0 1.945 2.199 3.082 3.792 1.96l5.475-3.855a2.396 2.396 0 0 0 .074-3.866l-5.476-4.176c-1.582-1.207-3.865-.082-3.865 1.905"/>
        <g transform="translate(11.26 61.421)">
            <mask id="d" fill="#fff">
                <use xlink:href="#c"/>
            </mask>
            <path fill="#FFFFFE" d="M20.14 5.032c0 7.973-6.48 14.437-14.473 14.437S-8.806 13.005-8.806 5.032c0-7.974 6.48-14.438 14.473-14.438 7.994 0 14.474 6.464 14.474 14.438" mask="url(#d)"/>
        </g>
        <path fill="#FFFFFE" d="M31.16 57.399c0-1.216-.922-2.397-2.102-2.527-.187-.037-.583-.06-.583-.06l-14.567.002c-1.18 0-2.138 1.146-2.138 2.324 0 1.177.88 2.325 2.06 2.325h11.844c.34 0 .614.189.615.528v11.894c0 1.156.986 2.273 2.015 2.44 1.151.187 2.433-.377 2.762-1.57.077-.279.087-.585.088-.878.007-2.274.004-5.02.004-7.294l.001-7.184"/>
        <path fill="#BB252C" d="M122.89 61.609c0-1.816.022-1.888 1.813-1.888h3.934c1.151 0 2.05 1.154 2.05 2.192 0 1.045-.884 2.256-2.05 2.256h-5.748v-2.56zm6.789 6.938c5.788 0 7.006-7.214 4.464-10.616-1.256-1.68-3.288-2.394-5.294-2.451-2.726-.078-5.455-.038-8.182-.02-1.397.01-2.524 1.084-2.537 2.49-.024 2.4-.026 11.942 0 14.313.017 1.572.955 2.611 2.3 2.635a2.386 2.386 0 0 0 2.443-2.32 56.748 56.748 0 0 0 0-3.348c-.014-.491.105-.61.625-.676 0 0 2.552-.007 6.181-.007zM82.535 70.792c-3.067.011-5.612-2.626-5.58-5.782.03-3.019 2.594-5.586 5.534-5.543 3.102.046 5.511 2.51 5.499 5.623-.012 3.114-2.477 5.692-5.453 5.702zm-.023-15.913c-5.8.015-10.387 4.51-10.371 10.16.016 5.788 4.604 10.322 10.423 10.298 5.745-.023 10.292-4.608 10.265-10.353-.026-5.615-4.625-10.12-10.317-10.105zM150.173 64.127h-5.88c-1.166 0-2.05-1.147-2.05-2.286 0-1.146.854-2.12 2.05-2.12l4.645-.028c1.178 0 1.258.077 1.235 1.865-.01.859 0 2.57 0 2.57zm4.628-6.241c-.014-1.412-1.14-2.49-2.538-2.5-2.727-.018-5.456-.078-8.181 0-2.006.058-3.819.743-5.106 2.405-2.483 3.202-1.568 7.749 1.977 9.796.453.262.459.398.133.758-.804.889-1.576 1.808-2.357 2.72-.474.553-.73 1.188-.615 1.928.14.904.636 1.58 1.508 1.822.943.26 1.808.03 2.475-.766 1.003-1.198 2.05-2.372 2.995-3.599 1.289-1.672 2.482-2.16 4.34-1.92.52.067.641.185.626.679a57.616 57.616 0 0 0-.001 3.36 2.39 2.39 0 0 0 2.443 2.328c1.345-.023 2.284-1.066 2.3-2.644.026-2.38.025-11.959 0-14.367zM101.82 60.415c.021-.54.148-.687.667-.676h5.05c.455 0 .575.13.572.597-.02 3.047-.012 6.416-.008 9.462 0 .299.003.529-.358.56l-7.061.003c.995-3.213 1.017-6.75 1.138-9.946zm13.994 12.031a2.05 2.05 0 0 0-2.052-2.047h-.752c-.305-.075-.345-.34-.342-.756.023-3.683.02-7.689.01-11.372-.006-2.036-1.073-2.97-3.181-2.826-3.14.215-6.29.091-9.434-.01-1.833-.06-2.777.86-2.8 2.683-.022 1.855.052 3.532-.082 5.563-.127 1.905-.708 5.014-1.081 5.88-.238.55-.335.872-1.158.838h-.054a2.05 2.05 0 0 0-2.052 2.047v.26a2.05 2.05 0 0 0 2.052 2.047h18.375l.498-.001a2.051 2.051 0 0 0 2.053-2.048v-.258zM165.973 60.415c.021-.54.148-.687.667-.676h5.05c.455 0 .575.13.572.597-.02 3.047-.012 6.416-.008 9.462 0 .299.003.529-.358.56l-7.061.003c.996-3.213 1.017-6.75 1.138-9.946zm13.995 12.031a2.05 2.05 0 0 0-2.053-2.047h-.752c-.305-.075-.345-.34-.342-.756.023-3.683.02-7.689.01-11.372-.006-2.036-1.073-2.97-3.181-2.826-3.14.215-6.289.091-9.434-.01-1.833-.06-2.777.86-2.8 2.683-.022 1.855.052 3.532-.082 5.563-.127 1.905-.708 5.014-1.081 5.88-.238.55-.335.872-1.158.838h-.054a2.05 2.05 0 0 0-2.052 2.047v.26a2.05 2.05 0 0 0 2.052 2.047h18.375l.498-.001a2.052 2.052 0 0 0 2.054-2.048v-.258zM69.752 57.822a2.365 2.365 0 0 0-2.112-2.348 5.974 5.974 0 0 0-.586-.06h-14.09s-.398.023-.586.06a2.365 2.365 0 0 0-2.112 2.348v7.222c0 2.286-.002 5.046.004 7.332.001.295.012.603.09.883.33 1.2 1.619 1.766 2.775 1.579 1.035-.168 1.933-1.216 1.936-2.453.008-3.207.09-9.994.09-11.988.001-.34.278-.616.619-.616h8.458c.341 0 .618.275.618.616.001 1.994.083 8.781.091 11.988.003 1.237.901 2.285 1.936 2.453 1.156.187 2.445-.38 2.776-1.58.077-.28.087-.587.089-.882.006-2.286.003-5.046.003-7.332l.001-7.222"/>
    </g>
</svg>
