<?xml version="1.0" encoding="UTF-8" standalone="no"?>
<svg width="160px" height="90px" viewBox="0 0 160 90" version="1.1" xmlns="http://www.w3.org/2000/svg" xmlns:xlink="http://www.w3.org/1999/xlink" xmlns:sketch="http://www.bohemiancoding.com/sketch/ns">
    <!-- Generator: Sketch 3.2.2 (9983) - http://www.bohemiancoding.com/sketch -->
    <title>Slice 2</title>
    <desc>Created with Sketch.</desc>
    <defs></defs>
    <g id="Page-1" stroke="none" stroke-width="1" fill="none" fill-rule="evenodd" sketch:type="MSPage">
        <g id="Group" sketch:type="MSLayerGroup" transform="translate(0.000000, 1.000000)">
            <g id="Oval-1-+-Path-1-+-Path-2" transform="translate(43.028721, 0.000000)" sketch:type="MSShapeGroup">
                <ellipse id="Oval-1" fill="#8E1E1D" cx="36.7624021" cy="36.8761905" rx="36.7624021" ry="36.8761905"></ellipse>
                <path d="M23.5138764,30.5298961 C23.5138764,30.5298961 23.8050785,30.8328104 24.0623275,30.5298961 C24.3195765,30.2269817 23.9765356,29.5877918 23.9765356,29.5877918 C23.9765356,29.5877918 22.8078558,27.6388289 22.6817106,26.7875625 C22.5555655,25.9362961 22.4381895,23.7232093 22.4914786,23.2313513 C22.5447677,22.7394934 22.9519888,22.1536557 23.2054098,21.9538231 C23.550594,21.6816315 24.1630036,21.4311865 24.8471663,21.3192947 C25.5313289,21.2074029 25.7560116,21.2745045 27.2602159,21.4715767 C32.6839337,22.8876493 32.917394,23.6386577 37.997358,24.2950777 C42.4422383,24.8907447 46.6042517,24.0815285 48.208393,24.25092 C48.4678227,24.2950777 48.5934564,24.3138949 48.5934564,24.4092578 C48.5934564,24.5046207 48.5354315,24.5545866 48.4678227,24.6063218 C45.8586935,26.6028629 40.3744318,31.0550954 33.1866658,36.5756576 C28.3662989,40.2779393 24.8569415,43.5915241 16.6104042,48.5562674 C15.8903746,48.8916539 11.811041,49.0363864 9.1319561,49.0582696 C9.04371894,49.0589904 8.81774741,49.1011073 8.66835632,49.1946411 C8.51896523,49.2881748 8.33801406,49.4862052 8.32700443,49.5488031 C7.97525321,51.5487682 9.07693712,52.4051443 9.72701529,52.8596517 C10.4276351,53.3494957 11.9195592,53.3021069 12.4815004,53.0602141 C13.0434416,52.8183213 16.0647577,51.0118675 17.7850806,50.6939851 C19.5054035,50.3761027 45.1638756,48.2981224 68.5874089,51.2386348 C53.8269858,48.2981224 38.5752341,47.5224757 19.9066688,48.7703165 C30.0569965,42.5484754 41.3019651,32.0056761 49.0473926,26.2549538 C51.4355546,24.481823 53.4910203,23.1642678 55.0791222,22.5694156 C55.1531548,22.4965529 55.1751902,22.4206392 55.1531548,22.3198292 C55.1311194,22.2190192 55.0791222,22.1289747 54.9828492,22.1289747 C50.6844284,21.8472461 48.6678596,22.4804689 45.4256487,22.5694156 C42.1834378,22.6583623 41.1051056,22.7733837 38.9282696,22.5694156 C36.7514336,22.3654475 28.5849768,19.3341893 27.0891342,19.3341893 C27.0891342,19.3341893 24.1475345,19.1117396 23.4213117,19.3341893 C22.0728029,19.5202199 20.8682071,20.7366564 20.7640976,22.1289747 C20.659988,23.521293 20.7640976,28.0645041 20.7640976,28.0645041 L23.5138764,30.5298961 Z" id="Path-1" fill="#FFFFFF"></path>
                <path d="M10.0053915,50.3525205 C10.0053915,50.3525205 10.1953982,50.2638962 10.471303,50.2613978 C11.4616963,50.2524298 13.7362849,50.2613978 13.8900103,50.2613978 C14.0865606,50.2613978 13.9797774,50.6580084 13.9797774,50.6580084 L11.9401633,51.9095268 C11.9401633,51.9095268 11.6545748,52.0194829 11.4022834,52.0194829 C11.1499921,52.0194829 10.8399216,51.9810788 10.8399216,51.9810788 C10.8399216,51.9810788 10.5414642,51.8805231 10.3004211,51.5922767 C10.059378,51.3040304 10.0053915,50.9831234 10.0053915,50.9831234 L10.0053915,50.3525205 Z" id="Path-2" fill="#8E1E1D"></path>
            </g>
            <path d="M4.8591402,80.2425816 C5.11578517,80.1460923 5.0065141,79.9424869 5.0065141,79.9424869 C5.0065141,79.9424869 4.6342468,79.3216709 4.59406494,79.0505114 C4.55388309,78.7793518 4.51649454,78.0744027 4.53346906,77.9177279 C4.55044359,77.7610532 4.68015843,77.5744424 4.7608823,77.5107884 C4.8708361,77.4240854 5.06591098,77.3443095 5.28384183,77.3086679 C5.50177268,77.2730263 5.57334234,77.2944006 6.05248646,77.3571753 C7.78013912,77.8082463 7.85450476,78.0474699 9.47265925,78.2565637 C10.8885163,78.4463055 12.2142699,78.1885405 12.7252477,78.2424979 C12.8078855,78.2565637 12.8479044,78.2625577 12.8479044,78.2929342 C12.8479044,78.3233108 12.8294214,78.3392268 12.8078855,78.3557063 C11.9767824,78.9916778 10.2298443,80.4098768 7.94027769,82.1683779 C6.4048144,83.3476902 5.28695558,84.4031882 2.66013161,85.9846407 C2.43077582,86.0914736 1.13135876,86.1375762 0.277972139,86.1445468 C0.249865374,86.1447764 0.17788517,86.1581921 0.130298639,86.1879861 C0.082712109,86.21778 0.0250725396,86.2808599 0.0215655694,86.3007996 C-0.0904800717,86.9378618 0.260446581,87.2106489 0.467520275,87.3554261 C0.690693329,87.5114594 1.16592578,87.4963643 1.34492461,87.4193126 C1.52392345,87.3422609 2.48632323,86.7668392 3.03430904,86.665582 C16.3894996,85.6924644 24.2310834,87.6377705 32.3371557,87.4067447 C42.3372312,87.1217392 50.3024921,85.9922521 53.3948551,84.5717081 C53.6236294,84.7460645 54.1700366,85.7174463 54.4963628,85.8510435 C54.8226889,85.9846407 55.4292413,86.3255021 55.6847539,86.3255021 L58.1084711,86.3255021 C58.1084711,86.3255021 59.3004447,86.1065357 60.0362896,85.3870369 C60.0362896,85.3870369 60.4259648,85.0960284 60.5399651,85.3870369 C60.6539654,85.6780455 61.1095331,86.5422593 61.9062857,86.7066659 C62.5045258,86.8323799 63.2160077,86.8742853 64.3141306,86.874285 C65.4122534,86.8742847 66.4785615,86.8174343 67.2459663,86.7066659 C69.64831,86.1445466 70.2278986,85.3870369 70.2278986,85.3870369 C70.2278986,85.3870369 70.5642392,85.312003 70.6399162,85.3870369 C70.9679361,85.7122697 71.2659412,86.4994529 71.3089762,86.5422593 C71.3520113,86.5850657 71.7908065,86.63078 71.8664583,86.5422593 C72.0407861,86.1445466 72.9406704,85.1730868 72.9509526,85.0952355 C72.9518002,85.0888175 73.3137889,84.9622685 73.6734304,84.9414943 C73.9687423,84.924436 74.2058819,85.0059927 74.3095474,85.05086 C74.5394603,85.1503683 75.0469413,86.0537535 75.0469668,85.9846407 C75.0469699,85.9761379 75.5200769,86.9210237 75.5200769,86.9210237 C75.5200769,86.9210237 75.6764563,87.1341254 75.7892931,87.1402156 C75.867787,87.1444522 75.9871186,86.9210237 75.9871186,86.9210237 C76.0216935,86.7901249 76.1606815,86.4183061 76.1606815,86.3718933 C76.1606815,86.3718933 77.0586855,85.2060335 77.1865566,85.0952355 C77.3144276,84.9844375 77.879457,84.9414943 78.1165093,84.9414943 C78.3535615,84.9414943 79.0040592,84.9844375 79.0953921,85.05086 C79.1867249,85.1172826 80.8897683,86.3869835 81.1976022,87.52719 C81.3659483,87.6506681 81.4723911,86.8889226 81.4723911,86.7580238 C81.1446944,86.095947 79.4908746,84.8458018 79.3480999,84.7515366 C79.2053252,84.6572715 78.6507947,84.5290771 78.1165093,84.5423453 C77.4959786,84.5577553 77.1234132,84.7078341 77.0604704,84.7515366 C76.9526405,84.6937079 75.8981825,86.2430638 75.7477205,86.3255021 C75.5952442,86.3255021 74.7574912,84.7515366 74.3644439,84.6541152 C74.118646,84.5566938 74.0154001,84.5521197 73.6734304,84.5423453 C73.4535469,84.5360605 73.1937163,84.5717081 73.0730612,84.6204052 C72.4815397,84.8630764 71.9526994,85.8742799 71.8664583,85.9271092 C71.5940152,86.0528232 71.5055891,85.9271092 71.4735385,85.8852722 C71.4414878,85.8434352 71.2740137,85.5690313 71.2539012,85.5288618 C71.0559013,85.1334096 71.0324839,84.8196426 71.0249827,84.801897 C70.9794888,84.6942733 70.7013543,84.5857209 70.6000632,84.6204052 C70.3694447,84.6993742 70.2340204,84.9166025 70.0118054,85.0952355 C69.4484808,85.5480779 68.6587257,86.1065199 67.2107284,86.3255021 C66.6655936,86.5051308 64.6596756,86.5350264 64.3141306,86.5350259 C63.9685855,86.5350254 63.2751114,86.5422593 62.3751836,86.3674069 C60.9863154,85.9271092 60.5841782,84.2682597 60.5841782,84.2682597 C60.5841782,84.2682597 60.4515135,84.1016855 60.2221361,84.2682597 C59.7718209,85.3870369 58.0172785,85.8510435 58.0172785,85.8510435 C58.0172785,85.8510435 56.2443714,85.8285904 55.6847539,85.8510435 C55.2684384,85.867747 54.8197413,85.5389747 54.5303325,85.265145 C54.4307137,85.1708887 54.349968,85.0831422 54.2959125,85.0182362 C54.0848169,84.7647678 54.2413601,84.1563811 54.2413601,84.1563811 C54.2413601,84.1563811 54.4507027,84.1563811 54.5556577,84.0024481 C54.7052655,83.8634814 54.7067253,83.5806062 54.6299389,83.5007416 C54.5531525,83.4208769 54.2586495,83.4514468 54.2413601,83.461989 C53.3948551,83.9781439 51.2872647,84.8447 49.8767887,85.1503683 C48.3860233,85.4734364 39.6304493,86.8327021 33.3479202,86.8889226 C22.0035933,86.7058281 16.0396177,86.0063642 11.9863445,85.9271089 C7.93307134,85.8478536 3.98194652,86.0271425 3.71011253,86.0528232 C6.94336347,84.070939 10.5252976,80.7126715 12.9924998,78.880856 C13.7532168,78.3160489 14.4079578,77.8963594 14.9138264,77.7068772 C14.9374085,77.6836677 14.9444276,77.6594864 14.9374085,77.6273748 C14.9303894,77.5952631 14.9138264,77.5665806 14.8831599,77.5665806 C13.5139556,77.4768397 12.8716046,77.6785444 11.8388417,77.7068772 C10.8060789,77.7352099 10.4625906,77.7718485 9.76918867,77.7068772 C9.07578671,77.6419059 6.47447129,76.6763391 5.99799067,76.6763391 C5.99799067,76.6763391 5.06098349,76.6054808 4.82965496,76.6763391 C4.40010554,76.7355967 4.0163977,77.1230763 3.98323499,77.5665806 C3.95007229,78.010085 3.98323499,79.457264 3.98323499,79.457264 L4.8591402,80.2425816 Z" id="Path-3" fill="#8E1E1D" sketch:type="MSShapeGroup"></path>
            <path id="Path-5" fill="#FFFFFF" sketch:type="MSShapeGroup" d="M0.626631854,86.6397662 C0.626631854,86.6397662 0.666286803,86.61869 0.723868916,86.6180959 C0.930566841,86.6159631 1.40528,86.6180959 1.43736293,86.6180959 C1.47838354,86.6180959 1.45609758,86.712416 1.45609758,86.712416 L1.03042428,87.0100463 C1.03042428,87.0100463 0.97082113,87.0361956 0.918167205,87.0361956 C0.86551328,87.0361956 0.80080067,87.0270625 0.80080067,87.0270625 C0.80080067,87.0270625 0.738511771,87.0031488 0.688205384,86.9345994 C0.637898997,86.86605 0.626631854,86.7897333 0.626631854,86.7897333 L0.626631854,86.6397662 Z"></path>
            <path d="M85.6307552,85.8724789 C85.5272649,85.7955698 84.9604141,85.0925961 84.731499,85.0265475 C84.8236791,84.897076 83.0172802,84.6862297 82.988051,85.7608127 C82.9588218,86.8353958 84.4520861,87.0761453 85.7620035,86.7134807 C86.6318218,86.5097976 86.5038054,85.5003786 86.9071465,85.5003786 C87.9005873,86.2637877 89.5105481,86.9536648 91.4734124,87.3010018 C93.0361416,87.5775332 94.7677894,87.4384745 96.6996334,87.3434861 C100.574209,86.8696831 105.768964,86.0805885 109.95685,85.5702031 C113.141411,85.3591794 119.948622,85.4358988 122.255953,85.4358988 C124.563283,85.4358988 129.368204,86.4641595 131.009514,86.7134807 C132.650824,86.962802 134.878703,87.3344315 142.40094,87.201289 C149.923177,87.0681464 157.41191,85.872479 159.110374,85.2869187 C160.265761,85.0925961 159.087066,85.4358988 159.194284,85.4358988 C159.301502,85.4358988 158.744797,85.6188355 158.370223,85.872479 C157.995649,86.1261225 145.817436,87.7747475 142.725099,87.7747475 C139.632761,87.7747475 138.454705,88.0115922 132.166598,87.4885224 C125.878492,86.9654526 127.203354,86.5238492 123.419529,86.3122679 C120.123214,86.1279469 112.76493,86.3468313 110.078385,86.2534094 C106.421826,86.0710732 102.542553,87.4101552 96.6429185,87.7747473 C90.5676177,88.3002031 89.1020504,87.1280367 86.9071465,86.3468313 C86.8321502,86.4422071 86.7042305,86.7828372 86.237753,86.9871865 C85.9705884,87.0688066 84.5716032,87.4936602 83.6786043,87.2012889 C82.7856055,86.9089176 82.4038341,86.2749346 82.4038341,85.7205817 C82.4038341,85.1662287 82.9940987,84.6888969 83.1758289,84.6013879 C83.3575591,84.5138789 83.9581235,84.2757339 84.493162,84.3668026 C85.0282005,84.4578713 85.4455199,84.8348271 85.6735685,85.0925961 C85.9016171,85.3503651 86.0379091,85.8074771 85.9886681,85.8724789 C85.9394271,85.9374808 85.757713,85.9668281 85.6307552,85.8724789 Z" id="Path-4" fill="#8E1E1D" sketch:type="MSShapeGroup"></path>
        </g>
    </g>
</svg>