<?xml version="1.0" encoding="UTF-8" standalone="no"?>
<svg width="160px" height="90px" viewBox="0 0 160 90" version="1.1" xmlns="http://www.w3.org/2000/svg" xmlns:xlink="http://www.w3.org/1999/xlink" xmlns:sketch="http://www.bohemiancoding.com/sketch/ns">
    <!-- Generator: Sketch 3.2.2 (9983) - http://www.bohemiancoding.com/sketch -->
    <title>Slice 3</title>
    <desc>Created with Sketch.</desc>
    <defs></defs>
    <g id="Page-1" stroke="none" stroke-width="1" fill="none" fill-rule="evenodd" sketch:type="MSPage">
        <g id="АльянсТелеком" sketch:type="MSLayerGroup" transform="translate(0.000000, 9.000000)">
            <g id="Group" transform="translate(59.296482, 0.000000)" sketch:type="MSShapeGroup">
                <ellipse id="Oval-2" fill="#F3342C" cx="20.9045226" cy="21.0971429" rx="20.9045226" ry="21.0971429"></ellipse>
                <ellipse id="Oval-3" fill="#FEFFFF" cx="20.9045226" cy="21.0971429" rx="17.8894472" ry="18.0542857"></ellipse>
                <ellipse id="Oval-4" fill="#F3342C" cx="20.9045226" cy="21.0971429" rx="14.8743719" ry="15.0114286"></ellipse>
                <g id="Path-53-+-Path-54" transform="translate(11.256281, 14.605714)" fill="#FFFFFF">
                    <path d="M0.000579784628,10.4187111 L3.27483955,10.4187111 L7.39835992,3.89118365 L11.5164975,10.3841825 L14.9340727,10.3841825 L8.56179201,0.18523724 L6.30700805,0.18523724 L0.000579784628,10.4187111 Z" id="Path-53"></path>
                    <path d="M16.0199381,10.4154571 L19.1730496,10.4154571 L12.8339791,0.20223036 L9.5580978,0.20223036 L16.0199381,10.4154571 Z" id="Path-54"></path>
                </g>
            </g>
            <g id="Group" transform="translate(0.000000, 57.814286)" sketch:type="MSShapeGroup">
                <path d="M0.193554955,12.9751478 C0.193554549,12.9751397 3.64412857,12.9751478 3.64412857,12.9751478 L4.31289988,10.764279 L8.83523666,10.764279 L9.51589198,12.9429138 L12.9631434,12.9429138 L9.09041253,0.146325746 L3.9175351,0.146325746 C3.9175351,0.146325746 0.193555361,12.9751559 0.193554955,12.9751478 Z M4.99806538,8.41505014 L8.2130152,8.41505014 L6.61998805,2.79594147 L4.99806538,8.41505014 Z" id="Path-55" fill="#000000"></path>
                <path d="M13.2933748,10.3956759 L13.2933748,13.1133849 L15.8896528,13.1133849 C15.8896528,13.1133849 17.0327286,12.9998386 17.7796428,12.1800059 C18.526557,11.3601731 18.72663,9.99944366 18.72663,9.99944366 L18.72663,3.17055848 L22.5724143,3.17055848 L22.5724143,12.9961478 L25.8962553,12.9961478 L25.8962553,0.235208292 L15.6358023,0.235208292 L15.6358023,9.0330072 C15.6358023,9.0330072 15.4970674,9.73799508 15.3297214,9.99944401 C15.1623753,10.2608929 14.7869019,10.3592654 14.7869019,10.3592654 L13.2933748,10.3956759 Z" id="Path-57" fill="#000000"></path>
                <path d="M28.1460288,12.9859403 L36.1566178,12.9859403 C36.1566178,12.9859403 37.0817949,12.803328 37.6921788,12.0907388 C38.3025627,11.3781495 38.5327995,10.1414817 38.5327995,10.1414817 L38.5327995,7.92050311 C38.5327995,7.92050311 38.3524632,6.87731363 37.6921788,6.16275833 C37.0318943,5.44820303 35.7506621,5.27948762 35.7506621,5.27948762 L31.6196105,5.27948762 L31.6196105,0.147143757 L28.1515623,0.147143757 L28.1460288,12.9859403 Z M31.5801472,7.85838231 L31.5801472,10.4593667 L34.6712539,10.4593667 C34.6712539,10.4593667 34.8595041,10.3746438 34.9934187,10.2428793 C35.1273333,10.1111147 35.1909981,9.94796694 35.1909981,9.94796694 L35.1909981,8.37572448 C35.1909981,8.37572448 35.0679089,8.14065528 34.9283376,8.03775755 C34.7887664,7.93485981 34.4858799,7.85588206 34.4858799,7.85588206 L31.5801472,7.85838231 Z" id="Path-58" fill="#000000"></path>
                <path d="M39.8118484,12.9992652 L43.6080831,12.9992652 L45.9073977,8.48267146 L47.46436,8.48267146 L47.46436,12.9577226 L50.8847341,12.9577226 L50.8847341,0.224410133 L43.2008712,0.224410133 C43.2008712,0.224410133 41.8179833,0.589703214 41.1932623,1.1880691 C40.5685414,1.78643499 40.2876802,3.01470253 40.2876802,3.01470253 L40.2876802,5.36225875 C40.2876802,5.36225875 40.345033,6.29946524 40.9360163,7.06092119 C41.5269996,7.82237714 42.4969242,8.20877224 42.4969242,8.20877224 L39.8118484,12.9992652 Z M47.4865087,3.03492203 L47.4865087,5.70459045 L44.4549799,5.70459045 C44.4549799,5.70459045 44.14184,5.63545261 43.9368437,5.46882142 C43.7318475,5.30219023 43.6266736,5.03130185 43.6266736,5.03130185 L43.6266736,3.64847999 C43.6266736,3.64847999 43.7048268,3.38261048 43.7791386,3.2787945 C43.85661,3.17056449 44.0820229,3.01234202 44.0820229,3.01234202 L47.4865087,3.03492203 Z" id="Path-59" fill="#000000"></path>
                <path d="M56.4864058,12.9468724 L53.1221104,12.9468724 L53.1221104,0.19642836 L56.4877291,0.19642836 L56.4877291,5.03720686 L60.9038414,5.03720686 L60.9038414,0.183408753 L64.3756736,0.183408753 L64.3756736,12.9893375 L60.9520916,12.9893375 L60.9520916,7.91248194 L56.4727933,7.91248194 L56.4864058,12.9468724 Z" id="Path-62" fill="#000000"></path>
                <path d="M73.9708431,8.3680529 L77.414325,8.3680529 L77.414325,10.3591155 C77.414325,10.3591155 77.0651041,11.6484489 76.2892308,12.3240716 C75.5133574,12.9996944 74.222482,13.1385403 74.222482,13.1385403 L69.8107833,13.1385403 C69.8107833,13.1385403 68.1433384,12.8436658 67.3832473,12.1352829 C66.6231562,11.4269 66.3419794,9.90571544 66.3419794,9.90571544 L66.3419794,3.14507691 C66.3419794,3.14507691 67.0241948,1.67920314 67.5693612,1.20291594 C68.1391981,0.705075251 69.6869895,0.222693249 69.6869895,0.222693249 L74.5141793,0.222693249 C74.5141793,0.222693249 75.7447271,0.489845813 76.455754,1.20291594 C77.1667809,1.91598607 77.371773,3.08849849 77.371773,3.08849849 L77.371773,4.5875779 L74.008787,4.5875779 L74.008787,3.89960805 C74.008787,3.89960805 73.8525698,3.59251752 73.5569605,3.36472303 C73.2613513,3.13692854 72.9038977,3.04818776 72.9038977,3.04818776 L70.8854909,3.04818776 C70.8854909,3.04818776 70.3820267,3.21140266 70.1821838,3.36472303 C70.0074746,3.49876061 69.7618345,3.9102616 69.7618345,3.9102616 L69.7618345,9.19745474 C69.7618345,9.19745474 69.8115587,9.56612949 70.1821838,9.90571538 C70.5528088,10.2453013 71.0643466,10.3908839 71.0643466,10.3908839 L72.930336,10.3908839 C72.930336,10.3908839 73.4369056,10.1384272 73.6655671,9.90571538 C73.8942285,9.67300361 73.948385,9.35480208 73.948385,9.35480208 L73.9708431,8.3680529 Z" id="Path-63" fill="#000000"></path>
                <path d="M82.6620913,12.9870612 L84.0617745,12.9870612 L84.0617745,1.446203 L88.0765465,1.446203 L88.0765465,0.152426148 L78.4769279,0.152426148 L78.4769279,1.43348205 L82.6183908,1.43348205 L82.6620913,12.9870612 Z" id="Path-64" fill="#000000"></path>
                <path d="M97.680085,13.0298947 L89.7268541,13.0298947 L89.7268541,0.194653789 L97.833032,0.194653789 L97.833032,1.32332894 L91.0812588,1.383298 L91.0812588,5.90067456 L97.5174896,5.90067456 L97.5173383,7.07789048 L91.0376652,7.07789048 L91.0376652,11.915069 L97.6743377,11.915069 L97.680085,13.0298947 Z" id="Path-65" fill="#000000"></path>
                <path d="M120.192648,13.0298947 L112.239417,13.0298947 L112.239417,0.194653789 L120.345595,0.194653789 L120.345595,1.32332894 L113.593822,1.383298 L113.593822,5.90067456 L120.030052,5.90067456 L120.029901,7.07789048 L113.550228,7.07789048 L113.550228,11.915069 L120.186901,11.915069 L120.192648,13.0298947 Z" id="Path-67" fill="#000000"></path>
                <path d="M98.9446039,11.8645571 L98.9446039,12.9676475 L100.527017,12.9676475 C100.527017,12.9676475 101.312106,12.6711002 101.569824,12.3661299 C101.835788,12.0514015 102.098064,11.1085514 102.098064,11.1085514 L102.098064,1.40363175 L108.350484,1.40363175 L108.350484,12.9725486 L109.784587,12.9725486 L109.784587,0.163902512 L100.813508,0.163902512 L100.813508,10.3071443 C100.813508,10.3071443 100.66637,11.0510076 100.527017,11.2984771 C100.392644,11.5371042 99.9923306,11.765434 99.9923306,11.765434 L98.9446039,11.8645571 Z" id="Path-66" fill="#000000"></path>
                <path d="M122.426583,12.939529 L123.664293,12.939529 L123.664293,7.11437105 L124.994437,7.11437105 L130.706468,12.9230231 L132.64602,12.9230231 L126.24632,6.46435451 L132.092676,0.216742124 L130.177539,0.216742124 L125.098625,5.87986028 L123.662208,5.87986028 L123.662208,0.238101217 L122.381335,0.238101217 L122.426583,12.939529 Z" id="Path-68" fill="#000000"></path>
                <path d="M133.266332,5.42021619 C133.266332,2.42671345 135.702242,0 138.693467,0 C141.690792,0 144.120603,2.43382951 144.120603,5.42021619 L144.120603,7.7654981 C144.120603,10.7590008 141.684693,13.1857143 138.693467,13.1857143 C135.696143,13.1857143 133.266332,10.7518848 133.266332,7.7654981 L133.266332,5.42021619 Z M134.552769,5.34317747 C134.552769,3.06443148 136.402256,1.21714286 138.673372,1.21714286 C140.949118,1.21714286 142.793975,3.06537932 142.793975,5.34317747 L142.793975,7.84253682 C142.793975,10.1212828 140.944487,11.9685714 138.673372,11.9685714 C136.397626,11.9685714 134.552769,10.120335 134.552769,7.84253682 L134.552769,5.34317747 Z" id="Rectangle-1" fill="#010101"></path>
                <path d="M146.192232,12.9705003 L147.539007,12.9705003 L147.539007,1.55257829 L152.358014,12.9993058 L153.662302,12.9993058 L158.340309,1.48391387 L158.340309,12.9714332 L159.85204,12.9714332 L159.85204,0.165262368 L157.460995,0.165262368 L153.005056,11.0167894 L148.498666,0.183347606 L146.115949,0.183347606 L146.192232,12.9705003 Z" id="Path-69" fill="#010101"></path>
            </g>
        </g>
    </g>
</svg>