<?xml version="1.0" encoding="UTF-8" standalone="no"?>
<svg width="160px" height="90px" viewBox="0 0 160 90" version="1.1" xmlns="http://www.w3.org/2000/svg" xmlns:xlink="http://www.w3.org/1999/xlink" xmlns:sketch="http://www.bohemiancoding.com/sketch/ns">
    <!-- Generator: Sketch 3.2.2 (9983) - http://www.bohemiancoding.com/sketch -->
    <title>Slice 5</title>
    <desc>Created with Sketch.</desc>
    <defs>
        <path id="path-1" d="M4.95370282,27.1077011 L4.95370282,11.1062112 L8.13731655,11.1062112 L8.13731655,7.02940098 L4.92997531,7.02940098 L4.92997531,0.000786952889 L0.092189732,0.000786952889 L-0.0504331561,22.1088711 L0.421129587,23.6465159 C0.421129587,23.6465159 1.06251093,25.0298675 1.33299944,25.4233471 C1.91525435,26.2703532 3.65674331,27.136932 3.65674331,27.136932 L4.95370282,27.1077011 Z"></path>
        <path id="path-3" d="M1.68481783,20.2344789 C0.93327144,19.5620993 -0.0116133607,17.6127535 -0.0116133607,17.6127535 L3.55298133,15.2755696 L5.34813345,17.6127535 L7.44025112,17.6127535 L8.49733098,16.3845456 L8.49733098,14.609639 C7.96117187,13.1719367 2.6207655,11.1066206 2.6207655,11.1066206 C2.6207655,11.1066206 1.61277585,10.4164151 1.01656937,9.18969187 C0.420362889,7.9629686 0.244984523,6.21833789 0.244984523,6.21833789 C0.244984523,6.21833789 0.243980826,3.79136326 2.16757567,1.93522204 C4.09117051,0.0790808227 6.61930837,0.0675388776 6.61930837,0.0675388776 C6.61930837,0.0675388776 8.43743098,0.144817759 9.64454711,0.686335856 C10.8516632,1.22785395 11.2808329,2.15872119 11.2808329,2.15872119 C11.2808329,2.15872119 11.5132404,3.24502478 11.4018381,3.67177635 C11.266411,4.19055993 10.5403448,4.99532663 10.5403448,4.99532663 C10.5403448,4.99532663 9.44724146,5.37754087 9.00050224,5.28163075 C8.45234354,5.16394696 7.55565104,4.19621158 7.55565104,4.19621158 L5.62564807,4.19621158 L4.47828502,5.28163075 C4.47828502,5.28163075 4.47828502,5.85047688 4.56566752,6.21833806 C5.34813345,7.52842946 10.2848303,9.81919226 10.2848303,9.81919226 C10.2848303,9.81919226 11.3166644,10.6194798 11.9210875,11.4037692 C12.5255106,12.1880586 12.9806371,13.1719365 12.9806371,13.1719365 L13.0994494,16.5881848 C13.0994494,16.5881848 12.6779942,18.3091551 11.2808335,19.7197398 C9.88367275,21.1303245 8.21133793,21.5232614 8.21133793,21.5232614 L4.35932294,21.5232622 C4.35932294,21.5232622 2.39025021,20.8656022 1.68481783,20.2344789 Z"></path>
        <path d="M10.859375,22.0083333 C16.8568422,22.0083333 21.71875,17.0816001 21.71875,11.0041667 C21.71875,4.92673323 16.8568422,0 10.859375,0 C4.8619078,0 0,4.92673323 0,11.0041667 C0,17.0816001 4.8619078,22.0083333 10.859375,22.0083333 Z M10.9375,16.625 C13.9578072,16.625 16.40625,14.1439113 16.40625,11.0833333 C16.40625,8.02275534 13.9578072,5.54166667 10.9375,5.54166667 C7.91719277,5.54166667 5.46875,8.02275534 5.46875,11.0833333 C5.46875,14.1439113 7.91719277,16.625 10.9375,16.625 Z" id="path-5"></path>
        <path d="M-0.0586931273,27.9571795 L5.44386715,27.9571795 L5.44386715,18.0875986 L10.773404,18.0875986 C10.773404,18.0875986 14.46341,16.6477014 15.5574484,15.2000004 C16.8092627,13.5435203 17.6400598,11.7135246 17.6400598,8.82248856 C17.6400598,5.93145249 17.6032941,5.5172591 15.8306463,3.1008523 C14.0579985,0.684445494 11.1729708,-0.0606103613 11.1729708,-0.0606103613 L4.60807001,-0.0606103613 C4.60807001,-0.0606103613 2.42647448,0.623549939 1.62841992,1.40436421 C0.891469419,2.12539444 0.0030548143,4.44492314 0.0030548143,4.44492314 L-0.0586931273,27.9571795 Z M5.57431264,13.2725151 L9.80398263,13.2725151 C9.80398263,13.2725151 10.7640956,12.8601402 11.4313486,12.1104123 C12.0986017,11.3606844 12.2957874,10.2971514 12.2957874,10.2971514 L12.3334337,7.50566636 C12.3334337,7.50566636 11.171265,5.26956181 9.29002851,4.82453212 C8.37636749,4.60839433 7.44083443,4.76521797 6.74242585,4.95181433 C6.04401728,5.13841069 5.47013789,5.84510619 5.47013789,5.84510619 L5.57431264,13.2725151 Z" id="path-7"></path>
        <path id="path-9" d="M0.0135504494,20.5294658 L4.99720591,20.5294658 L4.99720591,8.11948287 C4.99720591,8.11948287 5.51959014,6.55170798 6.06711679,5.96183916 C6.63286399,5.35234073 8.33702748,4.52138112 8.33702748,4.52138112 C8.33702748,4.52138112 9.19018844,3.29353257 9.50416856,2.18827611 C9.81814868,1.08301965 9.64220944,-0.0730524157 9.64220944,-0.0730524157 C9.64220944,-0.0730524157 4.56514163,0.466466214 2.84181498,1.80903071 C1.11848833,3.15159521 0.0363416352,7.41043721 0.0363416352,7.41043721 L0.0135504494,20.5294658 Z"></path>
        <path d="M10.78125,21.85 C13.2299295,21.85 15.4879428,21.0227765 17.2979856,19.6290644 C18.92416,21.85 21.8763137,21.58044 21.8763137,21.58044 C21.8763137,21.58044 21.943297,13.285041 21.8763137,10.925 C21.8648153,10.5198745 21.5625,10.955734 21.5625,10.925 C21.5625,4.89128911 16.73557,0 10.78125,0 C4.82693004,0 0,4.89128911 0,10.925 C0,16.9587109 4.82693004,21.85 10.78125,21.85 Z M10.9375,16.625 C13.9578072,16.625 16.40625,14.1439113 16.40625,11.0833333 C16.40625,8.02275534 13.9578072,5.54166667 10.9375,5.54166667 C7.91719277,5.54166667 5.46875,8.02275534 5.46875,11.0833333 C5.46875,14.1439113 7.91719277,16.625 10.9375,16.625 Z" id="path-11"></path>
        <path id="path-13" d="M-0.0286357461,28.1168953 L5.42780758,28.1168953 L5.42780758,17.8612278 L14.7752026,17.8612278 L14.7752026,13.0650305 L5.5039434,13.0650305 L5.5039434,6.96960768 C5.5039434,6.96960768 5.63288979,6.12341944 5.83337971,5.84371883 C6.05577617,5.53345671 6.77260254,5.19971948 6.77260254,5.19971948 L18.6839112,5.19971948 C18.6839112,5.19971948 18.0520931,2.50128361 17.3818112,1.65974129 C16.6881387,0.788831946 14.5920482,0.0623645012 14.5920482,0.0623645012 L5.9763257,0.0662849219 C5.9763257,0.0662849219 2.93708401,0.803564939 1.66544162,2.14242107 C0.393799229,3.48127721 -0.0406836673,6.40132844 -0.0406836673,6.40132844 L-0.0286357461,28.1168953 Z"></path>
    </defs>
    <g id="Page-1" stroke="none" stroke-width="1" fill="none" fill-rule="evenodd" sketch:type="MSPage">
        <g id="Farpost-logo" sketch:type="MSLayerGroup" transform="translate(0.000000, 26.000000)">
            <g id="Symbol" fill="#FF7700" sketch:type="MSShapeGroup">
                <ellipse id="Oval-1" cx="19.84375" cy="35.4666667" rx="2.5" ry="2.53333333"></ellipse>
                <path d="M15.9521362,15.2 C10.5921623,18.6802421 5.49486191,27.2641321 14.6059411,34.3705687 C14.6059415,32.7024893 16.8261048,30.9011239 17.3851943,30.6529182 C10.7245955,25.5749549 16.7260572,20.6866331 17.114291,20.0487718 C17.114291,20.0487718 21.1397597,24.0514822 21.3446352,24.2248115 C23.8895366,25.7264438 24.9741815,22.7879327 24.9741815,22.7879327 C24.9741815,22.7879327 24.8241302,8.20436334 24.8241314,6.27600541 C24.8241302,0.82493294 18.9797538,-0.0333525741 18.9797538,-0.0333525741 L2.17654453,0.135176606 C2.17654453,0.135176606 -0.227374571,1.36196732 1.31597393,3.65529257 C1.55494766,3.98339722 4.73311932,7.41871547 5.17838756,7.92900532 C2.01344104,10.5647153 0.0875678967,15.5166666 0.0875678967,15.5166666 C0.0875678967,15.5166666 -0.0234077941,17.29764 0.0875678961,18.1080646 C2.4332871,22.459362 2.71463083,22.0868991 2.71463083,22.0868991 C3.50814883,22.838421 4.08547898,22.5573377 4.02778582,21.4523256 C4.02778582,21.4523256 3.76293396,19.1013308 4.22911739,17.7376749 C4.65639417,15.6630723 6.42516255,13.2487787 8.32838898,11.3185792 C9.75728993,10.3175526 10.6309519,9.38290909 10.7485015,8.78174813 C11.0885734,6.56607382 8.70932524,5.85146347 8.36843058,4.54015486 C8.36843058,4.54015486 18.1024284,4.20027567 19.6837312,5.02527977 C21.1217171,6.11116507 20.0479728,15.2 20.3797051,17.0102743 C18.2355806,14.9356041 17.7256176,14.3888497 15.9521362,15.2 Z" id="Path-1"></path>
            </g>
            <g id="t" transform="translate(151.875000, 0.950000)">
                <mask id="mask-2" sketch:name="Path 7" fill="white">
                    <use xlink:href="#path-1"></use>
                </mask>
                <use id="Path-7" fill="#D8D8D8" sketch:type="MSShapeGroup" xlink:href="#path-1"></use>
                <rect id="Rectangle-1" fill="#2266FF" sketch:type="MSShapeGroup" mask="url(#mask-2)" x="-1.09375" y="17.575" width="14.375" height="12.35"></rect>
                <rect id="Rectangle-14" fill="#2277FF" sketch:type="MSShapeGroup" mask="url(#mask-2)" x="-1.5625" y="10.1333333" width="14.6875" height="7.91666667"></rect>
                <rect id="Rectangle-15" fill="#2288FF" sketch:type="MSShapeGroup" mask="url(#mask-2)" x="-118.28125" y="1.26666667" width="19.6875" height="8.23333333"></rect>
                <rect id="Rectangle-23" fill="#2288FF" sketch:type="MSShapeGroup" mask="url(#mask-2)" x="-2.65625" y="2.21666667" width="14.53125" height="8.075"></rect>
                <rect id="Rectangle-30" fill="#3399FF" sketch:type="MSShapeGroup" mask="url(#mask-2)" x="-4.0625" y="-1.10833333" width="16.40625" height="3.64166667"></rect>
            </g>
            <g id="s" transform="translate(135.625000, 6.491667)">
                <mask id="mask-4" sketch:name="Path 6" fill="white">
                    <use xlink:href="#path-3"></use>
                </mask>
                <use id="Path-6" fill="#D8D8D8" sketch:type="MSShapeGroup" xlink:href="#path-3"></use>
                <rect id="Rectangle-2" fill="#2266FF" sketch:type="MSShapeGroup" mask="url(#mask-4)" x="-0.625" y="14.0916667" width="14.375" height="12.35"></rect>
                <rect id="Rectangle-13" fill="#2277FF" sketch:type="MSShapeGroup" mask="url(#mask-4)" x="0" y="8.075" width="14.6875" height="6.49166667"></rect>
                <rect id="Rectangle-22" fill="#2288FF" sketch:type="MSShapeGroup" mask="url(#mask-4)" x="-1.40625" y="2.05833333" width="14.53125" height="6.01666667"></rect>
                <rect id="Rectangle-29" fill="#3399FF" sketch:type="MSShapeGroup" mask="url(#mask-4)" x="-2.03125" y="-1.26666667" width="16.40625" height="3.64166667"></rect>
            </g>
            <g id="o" transform="translate(111.875000, 6.333333)">
                <mask id="mask-6" sketch:name="Oval 4" fill="white">
                    <use xlink:href="#path-5"></use>
                </mask>
                <use id="Oval-4" fill="#D8D8D8" sketch:type="MSShapeGroup" xlink:href="#path-5"></use>
                <rect id="Rectangle-3" fill="#2266FF" sketch:type="MSShapeGroup" mask="url(#mask-6)" x="0" y="14.25" width="21.71875" height="12.35"></rect>
                <rect id="Rectangle-12" fill="#2277FF" sketch:type="MSShapeGroup" mask="url(#mask-6)" x="0" y="8.39166667" width="23.75" height="6.01666667"></rect>
                <rect id="Rectangle-21" fill="#2288FF" sketch:type="MSShapeGroup" mask="url(#mask-6)" x="0" y="2.69166667" width="21.71875" height="5.85833333"></rect>
                <rect id="Rectangle-28" fill="#3399FF" sketch:type="MSShapeGroup" mask="url(#mask-6)" x="2.65625" y="-0.791666667" width="16.40625" height="3.64166667"></rect>
            </g>
            <g id="P" transform="translate(92.500000, 0.158333)">
                <mask id="mask-8" sketch:name="Path 4" fill="white">
                    <use xlink:href="#path-7"></use>
                </mask>
                <use id="Path-4" fill="#D8D8D8" sketch:type="MSShapeGroup" xlink:href="#path-7"></use>
                <rect id="Rectangle-4" fill="#2266FF" sketch:type="MSShapeGroup" mask="url(#mask-8)" x="-4.21875" y="18.3666667" width="14.375" height="12.35"></rect>
                <rect id="Rectangle-11" fill="#2277FF" sketch:type="MSShapeGroup" mask="url(#mask-8)" x="-2.96875" y="10.45" width="20.625" height="8.075"></rect>
                <rect id="Rectangle-20" fill="#2288FF" sketch:type="MSShapeGroup" mask="url(#mask-8)" x="-0.46875" y="2.375" width="18.125" height="8.23333333"></rect>
                <rect id="Rectangle-27" fill="#3399FF" sketch:type="MSShapeGroup" mask="url(#mask-8)" x="0" y="-1.10833333" width="16.40625" height="3.64166667"></rect>
            </g>
            <g id="r" transform="translate(78.593750, 7.600000)">
                <mask id="mask-10" sketch:name="Path 3" fill="white">
                    <use xlink:href="#path-9"></use>
                </mask>
                <use id="Path-3" fill="#D8D8D8" sketch:type="MSShapeGroup" xlink:href="#path-9"></use>
                <rect id="Rectangle-5" fill="#2266FF" sketch:type="MSShapeGroup" mask="url(#mask-10)" x="-2.34375" y="12.9833333" width="9.6875" height="12.35"></rect>
                <rect id="Rectangle-10" fill="#2277FF" sketch:type="MSShapeGroup" mask="url(#mask-10)" x="0" y="7.28333333" width="8.125" height="6.01666667"></rect>
                <rect id="Rectangle-19" fill="#2288FF" sketch:type="MSShapeGroup" mask="url(#mask-10)" x="0" y="1.9" width="11.71875" height="5.85833333"></rect>
                <rect id="Rectangle-26" fill="#3399FF" sketch:type="MSShapeGroup" mask="url(#mask-10)" x="0" y="-1.58333333" width="13.4375" height="3.64166667"></rect>
            </g>
            <g id="a" transform="translate(52.968750, 6.333333)">
                <mask id="mask-12" sketch:name="Oval 2" fill="white">
                    <use xlink:href="#path-11"></use>
                </mask>
                <use id="Oval-2" fill="#D8D8D8" sketch:type="MSShapeGroup" xlink:href="#path-11"></use>
                <rect id="Rectangle-6" fill="#2266FF" sketch:type="MSShapeGroup" mask="url(#mask-12)" x="0.15625" y="14.4083333" width="21.71875" height="12.35"></rect>
                <rect id="Rectangle-9" fill="#2277FF" sketch:type="MSShapeGroup" mask="url(#mask-12)" x="-2.34375" y="8.55" width="25" height="6.01666667"></rect>
                <rect id="Rectangle-18" fill="#2288FF" sketch:type="MSShapeGroup" mask="url(#mask-12)" x="-0.15625" y="2.21666667" width="23.125" height="6.175"></rect>
                <rect id="Rectangle-25" fill="#3399FF" sketch:type="MSShapeGroup" mask="url(#mask-12)" x="1.5625" y="-1.26666667" width="18.75" height="3.64166667"></rect>
                <rect id="Rectangle-16" fill="#2288FF" sketch:type="MSShapeGroup" mask="url(#mask-12)" x="-0.46875" y="2.85" width="24.375" height="5.85833333"></rect>
            </g>
            <g id="F" transform="translate(33.593750, 0.000000)">
                <mask id="mask-14" sketch:name="Path 2" fill="white">
                    <use xlink:href="#path-13"></use>
                </mask>
                <use id="Path-2" fill="#D8D8D8" sketch:type="MSShapeGroup" xlink:href="#path-13"></use>
                <rect id="Rectangle-7" fill="#2266FF" sketch:type="MSShapeGroup" mask="url(#mask-14)" x="-2.03125" y="18.525" width="9.6875" height="12.35"></rect>
                <rect id="Rectangle-8" fill="#2277FF" sketch:type="MSShapeGroup" mask="url(#mask-14)" x="-1.40625" y="10.7666667" width="17.65625" height="7.91666667"></rect>
                <rect id="Rectangle-17" fill="#2288FF" sketch:type="MSShapeGroup" mask="url(#mask-14)" x="-4.21875" y="2.05833333" width="24.0625" height="8.86666667"></rect>
                <rect id="Rectangle-24" fill="#3399FF" sketch:type="MSShapeGroup" mask="url(#mask-14)" x="1.09375" y="0" width="18.75" height="2.21666667"></rect>
            </g>
        </g>
    </g>
</svg>