<?xml version="1.0" encoding="UTF-8" standalone="no"?>
<svg width="160px" height="90px" viewBox="0 0 160 90" version="1.1" xmlns="http://www.w3.org/2000/svg" xmlns:xlink="http://www.w3.org/1999/xlink" xmlns:sketch="http://www.bohemiancoding.com/sketch/ns">
    <!-- Generator: Sketch 3.2.2 (9983) - http://www.bohemiancoding.com/sketch -->
    <title>Slice 1</title>
    <desc>Created with Sketch.</desc>
    <defs></defs>
    <g id="Page-1" stroke="none" stroke-width="1" fill="none" fill-rule="evenodd" sketch:type="MSPage">
        <g id="Group" sketch:type="MSLayerGroup" transform="translate(0.000000, 8.000000)">
            <path d="M121.767034,16.9947752 L140.832825,12.9337735 L145.458485,34.7411292 L126.392694,38.8021309 L121.767034,16.9947752 L121.767034,16.9947752 Z" id="Rectangle-32" fill="#06120A" sketch:type="MSShapeGroup"></path>
            <path d="M119.411503,16.6087703 L140.102231,12.2016578 L144.657534,33.6773212 L123.966806,38.0844336 L119.411503,16.6087703 L119.411503,16.6087703 Z" id="Rectangle-31" fill="#87D0F5" sketch:type="MSShapeGroup"></path>
            <rect id="Rectangle-28" fill="#0D0A01" sketch:type="MSShapeGroup" x="79.638009" y="13.7843137" width="21.719457" height="22.4901961"></rect>
            <rect id="Rectangle-27" fill="#FFFFFF" sketch:type="MSShapeGroup" x="78.9140271" y="12.3333333" width="20.9954751" height="22.4901961"></rect>
            <path d="M59.3644683,13.7393228 L78.4809088,12.9626199 L78.7177235,35.3124276 L58.9947004,34.9674438 L59.3644683,13.7393228 L59.3644683,13.7393228 Z" id="Rectangle-26" fill="#160E1C" sketch:type="MSShapeGroup"></path>
            <path d="M58.8232084,12.107502 L78.5372193,12.7973646 L77.7977961,34.0157857 L58.0837853,33.325923 L58.8232084,12.107502 L58.8232084,12.107502 Z" id="Rectangle-25" fill="#FECE00" sketch:type="MSShapeGroup"></path>
            <path d="M102.620822,12.0998598 L123.708275,13.1675229 L122.395327,33.3105552 L101.906653,32.5935844 L102.620822,12.0998598 L102.620822,12.0998598 Z" id="Rectangle-30" fill="#211910" sketch:type="MSShapeGroup"></path>
            <path d="M102.671574,9.91137793 L122.385584,10.6012406 L121.620664,32.5513314 L101.906653,31.8614687 L102.671574,9.91137793 L102.671574,9.91137793 Z" id="Rectangle-29" fill="#B3CF12" sketch:type="MSShapeGroup"></path>
            <text id="К" sketch:type="MSTextLayer" font-family="Consolas" font-size="23.6923077" font-weight="bold" fill="#0557A8">
                <tspan x="104.253394" y="28.1568627">К</tspan>
            </text>
            <text id="Б" sketch:type="MSTextLayer" font-family="Arial" font-size="20.125" font-weight="bold" fill="#0761BC">
                <tspan x="60.8144796" y="29.6078431">Б</tspan>
            </text>
            <text id="У" sketch:type="MSTextLayer" font-family="Arial" font-size="21.1764706" font-weight="bold" fill="#1C63A4">
                <tspan x="82.5339367" y="30.6078431">У</tspan>
            </text>
            <path d="M38.687924,14.6783527 L59.8235276,13.1973283 L61.4034002,35.837629 L40.2677966,37.3186534 L38.687924,14.6783527 L38.687924,14.6783527 Z" id="Rectangle-24" fill="#07080C" sketch:type="MSShapeGroup"></path>
            <path d="M37.9573304,13.2141214 L59.092934,11.733097 L60.6728066,34.3733976 L39.537203,35.8544221 L37.9573304,13.2141214 L37.9573304,13.2141214 Z" id="Rectangle-23" fill="#FBFCFC" sketch:type="MSShapeGroup"></path>
            <path d="M15.5226435,12.9879856 L37.2082273,13.0737467 L37.3758696,34.4057143 L15.1656262,33.4841024 L15.5226435,12.9879856 L15.5226435,12.9879856 Z" id="Rectangle-22" fill="#1B191B" sketch:type="MSShapeGroup"></path>
            <path d="M15.3903774,12.1842844 L37.1857553,12.9469814 L36.0003005,32.9177668 L14.0451951,31.8698653 L15.3903774,12.1842844 L15.3903774,12.1842844 Z" id="Rectangle-21" fill="#E23C1F" sketch:type="MSShapeGroup"></path>
            <path d="M33.9616406,29.5992078 L28.865872,29.5992078 L27.7602595,26.1160681 L22.5794208,26.1160681 L21.3980439,28.9474224 L16.1197293,28.9474224 L22.579421,13.7255023 L28.8658715,13.7255023 L33.9616406,29.5992078 Z M26.3198332,23.0813625 L25.9094011,18.3236614 L24.6581663,18.3236614 L24.0428872,23.0813625 L26.3198332,23.0813625 Z" id="A" fill="#F4F4F1" sketch:type="MSShapeGroup"></path>
            <path d="M125.027571,34.2428147 L130.091754,33.3480025 L130.581417,29.6923087 L135.730142,28.7825582 L137.399314,31.3889134 L142.644911,30.4620463 L133.563408,16.4687962 L127.315924,17.5726911 L125.027571,34.2428147 L125.027571,34.2428147 Z M131.482237,26.4234764 L131.058147,21.6231947 L132.301626,21.403479 L133.745069,26.0236467 L131.482237,26.4234764 L131.482237,26.4234764 Z" id="A-2" fill="#0557A8" sketch:type="MSShapeGroup"></path>
            <path d="M42.1776018,28.1721707 C43.1354473,28.4681217 44.0054772,28.6820831 44.7877177,28.8140612 C45.5699581,28.9460393 46.3920965,29.0120274 47.2541574,29.0120274 C47.7250981,29.0120274 48.1401582,28.9460393 48.4993503,28.8140612 C48.8585423,28.6820831 49.1578646,28.5021156 49.3973259,28.2741533 C49.6367873,28.0461911 49.8183761,27.7822388 49.9420978,27.4822885 C50.0658195,27.1823382 50.1276794,26.8643956 50.1276794,26.5284513 C50.1276794,26.1925069 50.063824,25.8825629 49.9361113,25.59861 C49.8083986,25.314657 49.6168324,25.0727007 49.3614069,24.8727339 C49.1059814,24.672767 48.7847089,24.5167952 48.3975797,24.4048137 C48.0104505,24.2928323 47.5574762,24.2368424 47.0386433,24.2368424 L43.3030646,24.2368424 L43.3030646,21.9812274 L46.8590481,21.9812274 C47.3459529,21.9812274 47.7630085,21.9192386 48.1102275,21.7952591 C48.4574465,21.6712797 48.7428003,21.5013104 48.9662976,21.2853461 C49.1897949,21.0693819 49.3534244,20.8194271 49.457191,20.5354741 C49.5609576,20.2515212 49.6128401,19.953575 49.6128401,19.6416267 C49.6128401,19.3456757 49.562953,19.0717252 49.4631775,18.819767 C49.3634019,18.5678087 49.2057589,18.3498481 48.9902436,18.1658786 C48.7747284,17.981909 48.4933655,17.8379351 48.1461465,17.7339523 C47.7989276,17.6299695 47.377881,17.5779789 46.8829941,17.5779789 C46.51582,17.5779789 46.1666108,17.593976 45.8353559,17.6259707 C45.504101,17.6579654 45.1708556,17.7039571 44.8356097,17.7639472 C44.5003638,17.8239372 44.1511545,17.9019231 43.7879715,17.9979072 C43.4247884,18.0938913 43.0276876,18.2018718 42.5966571,18.3218519 L42.5966571,15.8622717 C43.275131,15.6543062 43.9974953,15.4963347 44.7637716,15.3883526 C45.530048,15.2803705 46.3122767,15.2263803 47.1104813,15.2263803 C48.9702979,15.2263803 50.363144,15.5703181 51.2890613,16.2582042 C52.2149786,16.9460902 52.6779303,17.9699052 52.6779303,19.3296799 C52.6779303,20.2175328 52.4963414,20.9514002 52.1331584,21.5313042 C51.7699753,22.1112081 51.1813083,22.5411304 50.3671396,22.821084 C50.7582598,22.8850734 51.1314149,23.0170496 51.4866159,23.2170165 C51.8418169,23.4169833 52.153112,23.6749367 52.4205106,23.9908844 C52.6879091,24.306832 52.8994301,24.6747656 53.05508,25.094696 C53.2107299,25.5146264 53.2885537,25.976543 53.2885537,26.4804595 C53.2885537,28.0881931 52.7597511,29.3179709 51.7021301,30.1698298 C50.644509,31.0216887 49.0980109,31.4476117 47.0625893,31.4476117 C46.144654,31.4476117 45.2965744,31.3896222 44.518325,31.2736414 C43.7400755,31.1576606 42.9598423,30.9756935 42.1776018,30.7277346 L42.1776018,28.1721707 Z" id="З" fill="#0062A8" sketch:type="MSShapeGroup"></path>
            <g id="МЕБЕЛИ-2-+-МЕБЕЛИ" transform="translate(13.135747, 33.470588)" font-weight="686" font-family="Arial Black" letter-spacing="1.42105258" font-size="26" sketch:type="MSTextLayer">
                <text id="МЕБЕЛИ-2" fill="#06120A">
                    <tspan x="1.4479638" y="29.7254902">МЕБЕЛИ</tspan>
                </text>
                <text id="МЕБЕЛИ" fill="#EB3313">
                    <tspan x="0" y="29">МЕБЕЛИ</tspan>
                </text>
            </g>
        </g>
    </g>
</svg>