<?xml version="1.0" encoding="UTF-8" standalone="no"?>
<svg width="160px" height="90px" viewBox="0 0 160 90" version="1.1" xmlns="http://www.w3.org/2000/svg" xmlns:xlink="http://www.w3.org/1999/xlink" xmlns:sketch="http://www.bohemiancoding.com/sketch/ns">
    <!-- Generator: Sketch 3.2.2 (9983) - http://www.bohemiancoding.com/sketch -->
    <title>Slice 4</title>
    <desc>Created with Sketch.</desc>
    <defs></defs>
    <g id="Page-1" stroke="none" stroke-width="1" fill="none" fill-rule="evenodd" sketch:type="MSPage">
        <g id="Group" sketch:type="MSLayerGroup" transform="translate(0.000000, 27.000000)">
            <path d="M118.495625,17.6253966 L118.495625,30.2864138 L114.4375,30.2864138 L114.4375,17.6253966 C114.39875,15.8972414 113.000625,14.9339655 111.819375,14.9537414 C110.341875,14.9339655 109.1625,16.2270517 109.190625,17.6253966 L109.190625,30.2864138 L105.135625,30.2864138 L105.135625,17.6253966 C105.144375,16.012069 103.78625,14.9237586 102.51625,14.9537414 C101.015,14.9639483 99.94,16.1868621 99.94,17.6253966 L99.94,30.2864138 L95.83125,30.2864138 L95.83125,11.3672931 L99.94,11.3672931 L99.94,12.2285 C100.461875,11.7978966 101.07875,11.1816552 102.51625,11.1714483 C104.54125,11.0483276 106.1425,11.7691897 107.1675,13.1050172 C108.455625,11.8202241 110.159375,11.1523103 111.819375,11.1714483 C115.35375,11.1395517 118.325625,14.0383103 118.495625,17.6253966" id="Fill-39" fill="#1A1918" sketch:type="MSShapeGroup"></path>
            <path d="M83.940625,26.8964483 L84.63625,26.8836897 C86.4375,26.8964483 87.998125,25.5791207 87.969375,23.485431 L87.969375,18.3666724 C88.080625,16.3712241 86.428125,14.9537414 84.63625,14.9537414 L83.940625,14.9537414 C82.14875,14.9537414 80.56625,16.2902069 80.598125,18.3666724 L80.598125,23.485431 C80.548125,25.5567931 82.188125,26.8964483 83.940625,26.8964483 L83.940625,26.8964483 Z M83.3375,30.5135172 C79.308125,30.5135172 76.440625,27.1420517 76.440625,23.485431 L76.440625,18.2091034 C76.440625,14.5218621 79.350625,11.1714483 83.32625,11.1714483 L85.14875,11.1714483 C89.165625,11.1714483 92.035625,14.5626897 92.035625,18.2091034 L92.035625,23.485431 C92.045625,27.4597414 88.865,30.5135172 85.14875,30.5135172 L83.3375,30.5135172 L83.3375,30.5135172 Z" id="Fill-40" fill="#1A1918" sketch:type="MSShapeGroup"></path>
            <path d="M52.064375,26.8836897 C54.06875,26.8626379 55.3875,25.2505862 55.40625,23.485431 L55.40625,18.3137241 C55.428125,16.8656207 54.380625,14.9537414 52.064375,14.8421034 C50.303125,14.7496034 48.62125,16.2079138 48.641875,18.3137241 L48.6325,23.485431 C48.58,25.5567931 50.3125,26.8836897 52.064375,26.8836897 L52.064375,26.8836897 Z M51.46125,30.5135172 C47.44375,30.5135172 44.573125,27.1005862 44.573125,23.4426897 L44.573125,18.3137241 C44.4525,14.4102241 47.915625,10.9666724 52.064375,11.201431 C53.383125,11.3251897 54.33875,11.6747759 55.355625,12.477931 L55.3575,3.12458621 L59.485625,3.12458621 L59.485625,30.2864138 L55.355625,30.2864138 L55.355625,28.9499483 C54.583125,29.9062069 53.383125,30.4911897 52.25625,30.5135172 L51.46125,30.5135172 L51.46125,30.5135172 Z" id="Fill-41" fill="#1A1918" sketch:type="MSShapeGroup"></path>
            <path d="M68.98,30.2462241 L64.911875,30.2462241 L64.911875,11.3360345 L68.98,11.3360345 L68.98,12.6935517 C69.5725,11.8897586 70.9125,11.1210517 72.170625,11.1210517 L72.835,11.1210517 C73.418125,11.1523103 74.265625,11.293931 74.534375,11.3672931 L74.205,14.9435345 C73.580625,14.8918621 72.945,14.8606034 72.310625,14.8606034 C70.338125,14.8606034 68.98,16.5377241 68.98,18.2652414 L68.98,30.2462241" id="Fill-42" fill="#1A1918" sketch:type="MSShapeGroup"></path>
            <path d="M151.751875,30.3176724 C148.34625,30.3176724 144.904375,27.5503276 144.904375,23.3597586 L144.904375,11.3060517 L148.941875,11.3060517 L148.951875,23.3304138 C148.951875,24.9928621 150.241875,26.7006034 152.27625,26.7095345 C154.2375,26.7006034 155.58625,25.0464483 155.58625,23.3304138 L155.58625,11.3060517 L159.635,11.3060517 L159.635,30.1020517 L155.58625,30.1020517 L155.58625,28.7547414 C155.0025,29.5457759 153.6625,30.3272414 152.41625,30.3176724 L151.751875,30.3176724" id="Fill-43" fill="#1A1918" sketch:type="MSShapeGroup"></path>
            <path d="M136.86,30.3176724 L132.811875,30.3176724 L132.811875,11.5223103 L136.86,11.5223103 L136.86,12.8689828 C137.454375,12.0766724 138.78375,11.293931 140.03375,11.3060517 L140.69625,11.3060517 C141.269375,11.3251897 142.1075,11.4687241 142.386875,11.5408103 L142.056875,15.1081207 C141.4325,15.0462414 140.806875,15.0168966 140.170625,15.0264655 C138.21125,15.0264655 136.86,16.6793448 136.86,18.3960172 L136.86,30.3176724" id="Fill-44" fill="#1A1918" sketch:type="MSShapeGroup"></path>
            <path d="M125.743125,25.0553793 C127.1725,25.0553793 128.343125,26.2578793 128.343125,27.7385172 C128.343125,29.2172414 127.1725,30.4203793 125.743125,30.4203793 C124.31375,30.4203793 123.145625,29.2172414 123.145625,27.7385172 C123.145625,26.2578793 124.31375,25.0553793 125.743125,25.0553793" id="Fill-45" fill="#1A1918" sketch:type="MSShapeGroup"></path>
            <path d="M36.5475,18.5752759 C36.5475,28.6896724 28.51625,36.8915517 18.6025,36.8915517 C8.6925,36.8915517 0.659375,28.6896724 0.659375,18.5752759 C0.659375,8.45896552 8.6925,0.258362069 18.6025,0.258362069 C28.51625,0.258362069 36.5475,8.45896552 36.5475,18.5752759" id="Fill-46" fill="#DB3341" sketch:type="MSShapeGroup"></path>
            <path d="M18.085625,17.8537759 C17.070625,19.9806379 17.71,23.1460517 17.500625,25.2729138 C16.99125,25.4878966 16.443125,25.1070517 16.775,26.3018966 C16.8775,26.5825862 17.195625,26.742069 17.549375,26.7356897 C18.144375,26.7312241 18.855625,26.2763793 18.88125,25.2014655 C18.908125,24.2751897 18.78125,21.1825 18.9025,20.7818793 C19.864375,17.695569 25.585625,20.4584483 27.61125,19.1596207 C24.81125,17.5513966 21.45375,17.9035345 18.085625,17.8537759" id="Fill-47" fill="#FFFFFF" sketch:type="MSShapeGroup"></path>
            <path d="M34.0075,23.9224138 C33.996875,23.7642069 33.9225,23.6008966 33.846875,23.4407759 C33.32625,22.7333103 31.338125,22.5202414 29.951875,22.1030345 C29.46875,21.451069 29.383125,19.9481034 28.15875,19.5978793 L28.15875,21.8070345 C28.17375,24.0876379 32.31125,22.3339655 32.805625,24.1814138 C33.17625,25.5459483 32.795,26.7191034 31.4725,26.8237241 C31.536875,27.0655 31.671875,27.2792069 32.03125,27.3946724 L32.418125,27.3946724 C33.895625,27.1363103 34.206875,25.7928276 34.0075,23.9224138" id="Fill-48" fill="#FFFFFF" sketch:type="MSShapeGroup"></path>
            <path d="M24.01125,25.2346379 C23.9575,25.1127931 23.888125,24.9986034 23.8125,24.8946207 C23.673125,24.7019655 23.49625,24.5207931 23.308125,24.3900172 C22.921875,24.1042241 22.459375,23.9568621 21.9425,23.9626034 C21.781875,23.9626034 21.63625,23.9900345 21.493125,24.0174655 C21.29375,24.059569 21.09,24.1373966 20.91625,24.2413793 C20.853125,24.2751897 20.771875,24.3236724 20.703125,24.3683276 C20.515625,24.5048448 20.326875,24.6796379 20.186875,24.8780345 C19.9075,25.261431 19.740625,25.7213793 19.773125,26.2534138 C19.8325,26.7682241 19.96625,27.185431 20.28875,27.6134828 C20.703125,28.1512586 21.28125,28.4408793 21.928125,28.4740517 L22.125,28.4740517 C22.58375,28.4574655 22.979375,28.2992586 23.324375,28.0517414 C23.785,27.7123621 24.103125,27.1962759 24.200625,26.6374483 C24.236875,26.4237414 24.253125,26.1762241 24.2225,25.946569 C24.188125,25.6888448 24.119375,25.4489828 24.01125,25.2346379" id="Fill-49" fill="#FFFFFF" sketch:type="MSShapeGroup"></path>
            <path d="M29.753125,25.0853621 C29.56,24.9214138 29.35125,24.7791552 29.11375,24.707069 C28.71125,24.5488621 28.190625,24.5048448 27.820625,24.5762931 C27.745,24.5871379 27.664375,24.6132931 27.595,24.6426379 C27.1975,24.79 26.8275,25.0853621 26.605625,25.4751379 C26.413125,25.8100517 26.300625,26.1934483 26.32125,26.6266034 C26.326875,26.7312241 26.33125,26.8237241 26.35375,26.9181379 C26.413125,27.2792069 26.56875,27.6039138 26.795,27.8769483 C26.911875,28.018569 27.053125,28.157 27.1975,28.2597069 C27.373125,28.3872931 27.5625,28.4848966 27.7775,28.5499655 C27.84125,28.5671897 27.90625,28.5901552 27.98125,28.5997241 C28.003125,28.6067414 28.024375,28.6112069 28.04,28.6175862 C28.071875,28.6175862 28.105,28.6277931 28.13,28.6322586 C28.18,28.6322586 28.2225,28.6443793 28.265,28.6443793 C28.330625,28.6443793 28.400625,28.6494828 28.46375,28.6443793 C28.534375,28.6443793 28.599375,28.6443793 28.664375,28.6322586 C29.17375,28.5671897 29.62,28.3209483 29.9625,27.926069 C30.125625,27.7455345 30.259375,27.5311897 30.334375,27.3008966 C30.383125,27.1650172 30.425625,27.0214828 30.44125,26.8734828 C30.543125,26.1545345 30.26375,25.5140517 29.753125,25.0853621" id="Fill-50" fill="#FFFFFF" sketch:type="MSShapeGroup"></path>
            <path d="M3.410625,22.6127414 C3.410625,22.7511724 3.368125,22.8596207 3.2925,22.9910345 C3.05625,23.374431 2.7925,23.8458621 2.706875,24.3294138 C2.566875,25.0853621 2.95,25.6990517 3.47,25.9031897 C3.99125,26.1009483 4.64625,25.8878793 5.04875,24.9756379 C5.5225,23.2653448 6.87,22.4602759 7.955625,22.3990345 C10.3775,22.3282241 12.156875,24.1093276 12.23125,25.8368448 C12.236875,25.9733621 12.241875,26.1117931 12.204375,26.2534138 C11.645,26.6151207 11.03375,27.3557586 10.97,28.3541207 C10.9625,28.4242931 10.97,28.6935 10.985,28.7649483 C11.055,29.1917241 11.409375,29.7633103 12.058125,29.6905862 C12.5225,29.6376379 12.79625,29.220431 12.96125,28.7164655 C13.036875,28.3764483 13.14875,28.0517414 13.3225,27.7455345 C13.455625,27.5535172 13.665625,27.3723448 13.9075,27.2900517 C14.149375,27.2071207 14.416875,27.2186034 14.67,27.3991379 C15.266875,27.7072586 17.269375,29.9151379 18.419375,30.0912069 C18.531875,30.1020517 18.645,30.0912069 18.75875,30.0880172 L18.746875,30.0707931 C17.92,29.6421034 17.17375,28.3917586 16.416875,27.3391724 C15.829375,26.6438276 15.255625,26.0346034 14.035625,25.9031897 C13.869375,25.8878793 13.70875,25.8878793 13.541875,25.9127586 L13.541875,25.8642759 C13.62875,22.5202414 9.2875,18.5612414 4.963125,21.5276207 C5.225625,18.6486379 3.220625,16.7769483 1.98,16.0943621 C1.3275,15.7371207 1.029375,15.5648793 0.870625,15.4915172 C0.730625,16.3380517 0.645,17.2056379 0.623125,18.0878966 C0.759375,18.1140517 1.05,18.2276034 1.64375,18.6212069 C2.65375,19.2903966 3.459375,20.7282931 3.410625,22.6127414" id="Fill-51" fill="#FFFFFF" sketch:type="MSShapeGroup"></path>
        </g>
    </g>
</svg>