<svg xmlns="http://www.w3.org/2000/svg" width="66" height="60" viewBox="0 0 66 60">
    <g fill="none" fill-rule="evenodd">
        <path d="M0 0h66v60H0z"/>
        <path fill="#AF53FF" d="M30.5 45C21.94 45 15 38.06 15 29.5 15 20.94 21.94 14 30.5 14 39.06 14 46 20.94 46 29.5 46 38.06 39.06 45 30.5 45zm0-.969c8.025 0 14.531-6.506 14.531-14.531S38.525 14.969 30.5 14.969 15.969 21.475 15.969 29.5 22.475 44.031 30.5 44.031z"/>
        <path fill="#AF53FF" d="M23.893 29.614l5.304 5.303a.5.5 0 0 1-.707.707l-5.657-5.656a.5.5 0 0 1 0-.708l5.657-5.656a.5.5 0 0 1 .707.707l-5.304 5.303z"/>
        <rect width="10" height="1" x="28" y="29" fill="#AF53FF" rx=".5"/>
    </g>
</svg>
