<?xml version="1.0" encoding="UTF-8" standalone="no"?>
<svg width="210px" height="110px" viewBox="0 0 210 110" version="1.1" xmlns="http://www.w3.org/2000/svg" xmlns:xlink="http://www.w3.org/1999/xlink" xmlns:sketch="http://www.bohemiancoding.com/sketch/ns">
    <!-- Generator: Sketch 3.3 (11970) - http://www.bohemiancoding.com/sketch -->
    <title>Rectangle 1 + Visa_Inc._logo</title>
    <desc>Created with Sketch.</desc>
    <defs></defs>
    <g id="Page-1" stroke="none" stroke-width="1" fill="none" fill-rule="evenodd" sketch:type="MSPage">
        <g id="Rectangle-1-+-Visa_Inc._logo" sketch:type="MSLayerGroup">
            <rect id="Rectangle-1" fill="#F2EEE8" sketch:type="MSShapeGroup" x="0" y="0" width="210" height="110" rx="14"></rect>
            <g id="Visa_Inc._logo" transform="translate(19.000000, 28.000000)" sketch:type="MSShapeGroup">
                <path d="M58.340257,1.83956983 L66.5903223,53.0376141 L79.7777554,53.0376141 L71.5284443,1.83956983 L58.340257,1.83956983" id="path14" fill="#2B3894" transform="translate(69.059006, 27.438592) scale(1, -1) translate(-69.059006, -27.438592) "></path>
                <path d="M119.363437,51.6478957 C116.755969,52.6754405 112.655073,53.7967422 107.546489,53.7967422 C94.5083988,53.7967422 85.330597,46.8481499 85.254417,36.8993385 C85.1714488,29.5409381 91.8036324,25.4360516 96.8036035,22.9900564 C101.942358,20.4828168 103.668853,18.8783649 103.648488,16.6365176 C103.613038,13.2075877 99.546837,11.6364044 95.7551859,11.6364044 C90.4753855,11.6364044 87.6703029,12.4098984 83.3333239,14.3213284 L81.6369995,15.1364081 L79.7928406,3.67614552 C82.8679472,2.2501341 88.5686232,1.01239247 94.4850168,0.947367562 C108.341476,0.947367562 117.345044,7.81127621 117.45064,18.4352882 C117.498159,24.2708959 113.984074,28.6948582 106.373619,32.3468386 C101.765107,34.7202479 98.9366429,36.2929434 98.9690759,38.6958407 C98.972093,40.8242724 101.358563,43.1016565 106.523716,43.1016565 C110.837313,43.171218 113.959938,42.1754296 116.393172,41.135031 L117.577356,40.5490507 L119.363437,51.6478957" id="path18" fill="#2B3894" transform="translate(99.578139, 27.372055) scale(1, -1) translate(-99.578139, -27.372055) "></path>
                <path d="M136.923299,20.061667 C138.016218,23.0044223 142.1767,34.3716841 142.1767,34.3716841 C142.099766,34.2370977 143.263585,37.3378786 143.929594,39.2568696 L144.819618,34.8412245 C144.819618,34.8412245 147.350151,22.6210778 147.871342,20.061667 L136.923299,20.061667 L136.923299,20.061667 Z M153.192627,53.0557606 L143.001103,53.0557606 C139.840011,53.0557606 137.473907,52.1499485 136.08909,48.811751 L116.504802,1.89174098 L130.355981,1.89174098 C130.355981,1.89174098 132.615736,8.20369399 133.128631,9.58887582 C134.639408,9.58887582 148.098374,9.56241219 150.019467,9.56241219 C150.414698,7.77573934 151.62528,1.89174098 151.62528,1.89174098 L163.865366,1.89174098 L153.192627,53.0557606 L153.192627,53.0557606 Z" id="path22" fill="#2B3894" transform="translate(140.185084, 27.473751) scale(1, -1) translate(-140.185084, -27.473751) "></path>
                <path d="M47.2768122,52.993004 L34.3692085,18.0882366 L32.9866551,25.1835129 C30.5813288,33.3585053 23.0938175,42.2192836 14.7185454,46.659124 L26.5271963,1.88266774 L40.4839717,1.89098488 L61.2516898,52.993004 L47.2768122,52.993004" id="path26" fill="#2B3894" transform="translate(37.985118, 27.437836) scale(1, -1) translate(-37.985118, -27.437836) "></path>
                <path d="M22.3870785,29.6921588 L1.12079639,29.6921588 L0.945054458,28.6313454 C17.4934577,24.3903603 28.4422554,14.1534734 32.9866551,1.84788697 L28.3653211,25.3725389 C27.5680713,28.6169795 25.2509931,29.5787433 22.3870785,29.6921588" id="path30" fill="#F79510" transform="translate(16.965855, 15.770023) scale(1, -1) translate(-16.965855, -15.770023) "></path>
                <path d="M167.617796,50.0434438 L168.242321,50.0434438 C168.683561,50.0434438 168.774072,50.3020313 168.774072,50.5099598 C168.774072,50.8675968 168.542515,50.9507682 168.183489,50.9507682 L167.617796,50.9507682 L167.617796,50.0434438 L167.617796,50.0434438 Z M167.078502,51.3484787 L168.366019,51.3484787 C168.666214,51.3484787 169.32468,51.2690878 169.32468,50.5099598 C169.32468,50.3088362 169.265094,50.0252973 168.834413,49.840808 L168.834413,49.8249299 C169.206262,49.7614172 169.225872,49.4090729 169.247746,49.125534 C169.274899,48.6733841 169.247746,48.592481 169.36541,48.4329431 L168.806505,48.4329431 C168.700155,48.5403098 168.724291,48.6242373 168.700155,49.0983143 C168.700155,49.3674872 168.666214,49.6419528 168.061299,49.6419528 L167.617796,49.6419528 L167.617796,48.4329431 L167.078502,48.4329431 L167.078502,51.3484787 L167.078502,51.3484787 Z M168.142005,47.3910323 C169.464972,47.3910323 170.504338,48.4919192 170.504338,49.8672717 C170.504338,51.2441364 169.464972,52.3442671 168.142005,52.3442671 C166.819792,52.3442671 165.78118,51.2441364 165.78118,49.8672717 C165.78118,48.4919192 166.819792,47.3910323 168.142005,47.3910323 L168.142005,47.3910323 Z M168.142005,52.7873438 C169.773463,52.7873438 171.054946,51.4785285 171.054946,49.8672717 C171.054946,48.256771 169.773463,46.9479556 168.142005,46.9479556 C166.511301,46.9479556 165.231326,48.256771 165.231326,49.8672717 C165.231326,51.4785285 166.511301,52.7873438 168.142005,52.7873438 L168.142005,52.7873438 Z" id="path34" fill="#2B3894" transform="translate(168.143136, 49.867650) scale(1, -1) translate(-168.143136, -49.867650) "></path>
            </g>
        </g>
    </g>
</svg>