<?xml version="1.0" encoding="UTF-8" standalone="no"?>
<svg width="210px" height="110px" viewBox="0 0 210 110" version="1.1" xmlns="http://www.w3.org/2000/svg" xmlns:xlink="http://www.w3.org/1999/xlink" xmlns:sketch="http://www.bohemiancoding.com/sketch/ns">
    <!-- Generator: Sketch 3.3 (11970) - http://www.bohemiancoding.com/sketch -->
    <title>Rectangle 1 Copy + MasterCard_Logo</title>
    <desc>Created with Sketch.</desc>
    <defs></defs>
    <g id="Page-1" stroke="none" stroke-width="1" fill="none" fill-rule="evenodd" sketch:type="MSPage">
        <g id="Rectangle-1-Copy-+-MasterCard_Logo" sketch:type="MSLayerGroup">
            <rect id="Rectangle-1-Copy" fill="#F2EEE8" sketch:type="MSShapeGroup" x="0" y="0" width="210" height="110" rx="14"></rect>
            <g id="MasterCard_Logo" transform="translate(37.500000, 14.500000)" sketch:type="MSShapeGroup">
                <g id="layer1">
                    <g id="g10305">
                        <path d="M134.561477,40.5 C134.567819,62.6442235 116.60104,80.5990726 94.432047,80.6049553 C72.2626007,80.6103855 54.2881208,62.6645866 54.2822315,40.5203631 L54.2822315,40.5 C54.2763423,18.3562291 72.2431208,0.40047486 94.4112081,0.394592179 C116.580654,0.388709497 134.555587,18.3354134 134.561477,40.4796369 L134.561477,40.5 L134.561477,40.5 Z" id="path2268" fill="#FF9900"></path>
                        <path d="M40.319245,0.405 C18.2816275,0.544826816 0.43807047,18.4539721 0.43807047,40.5 C0.43807047,62.6320056 18.4207047,80.5945475 40.5779195,80.5945475 C50.9769966,80.5945475 60.4559899,76.6359553 67.5887919,70.1478101 C67.5883389,70.1478101 67.5874329,70.146905 67.5856208,70.146 L67.5942282,70.146 C69.0547651,68.816514 70.4169966,67.3820447 71.6691443,65.8525475 L63.4454698,65.8525475 C62.347349,64.5275866 61.3493456,63.1469665 60.4528188,61.7224525 L74.6359732,61.7224525 C75.4985235,60.3436425 76.2795302,58.9118883 76.972651,57.429 L58.1111577,57.429 C57.4683221,56.0524525 56.9102013,54.6446816 56.4336242,53.2165475 L78.6519966,53.2165475 C79.9911242,49.2199441 80.7177685,44.9441397 80.7177685,40.4995475 C80.7177685,37.5527765 80.3979362,34.6797654 79.7927013,31.9135475 L55.2553188,31.9135475 C55.5592953,30.4899385 55.9430034,29.0835251 56.4005537,27.7015475 L78.6270805,27.7015475 C78.1301174,26.2308771 77.5529698,24.7977654 76.8965436,23.4085475 L58.1088926,23.4085475 C58.7866107,21.9623128 59.5544799,20.5554469 60.412047,19.197 L74.5847819,19.197 C73.641594,17.6960112 72.5978356,16.2619944 71.4693624,14.9035475 L63.5673322,14.9035475 C64.7891275,13.4672682 66.1341443,12.1147039 67.5942282,10.8535475 C60.4609732,4.36449721 50.9792617,0.405 40.5779195,0.405 C40.4913926,0.405 40.4057718,0.404547486 40.319245,0.405 L40.319245,0.405 Z" id="path1350" fill="#CC0000"></path>
                        <path d="M130.534581,61.4604469 C130.752936,61.4604469 130.965403,61.5170112 131.172886,61.6283296 C131.381275,61.739648 131.541644,61.9002905 131.657617,62.1088994 C131.773591,62.3152458 131.831577,62.532905 131.831577,62.758257 C131.831577,62.9808939 131.774044,63.1962905 131.659883,63.4026369 C131.546174,63.6085307 131.385805,63.7691732 131.179228,63.8836592 C130.974916,63.9963352 130.758826,64.053352 130.534128,64.053352 C130.30943,64.053352 130.093792,63.9963352 129.888121,63.8836592 C129.681997,63.7687207 129.522534,63.6089832 129.40656,63.4026369 C129.292399,63.1962905 129.235772,62.9808939 129.235772,62.758257 C129.235772,62.532905 129.293305,62.3152458 129.409732,62.1088994 C129.526611,61.9002905 129.687886,61.7410056 129.894916,61.6283296 C130.104211,61.5170112 130.316678,61.4604469 130.534581,61.4604469 M130.534581,61.6753911 C130.352919,61.6753911 130.175336,61.7224525 130.001829,61.8161229 C129.829681,61.9097933 129.695134,62.0423799 129.598188,62.2179553 C129.499883,62.3908156 129.450956,62.5700112 129.450956,62.758257 C129.450956,62.9446927 129.498977,63.1247933 129.593658,63.2958436 C129.690604,63.4664413 129.824698,63.6003855 129.99594,63.6963184 C130.16854,63.7917989 130.347483,63.8388603 130.534128,63.8388603 C130.721678,63.8388603 130.901074,63.7917989 131.072768,63.6963184 C131.24401,63.6003855 131.377651,63.4664413 131.473238,63.2958436 C131.567919,63.1247933 131.615034,62.9451453 131.615034,62.758257 C131.615034,62.5700112 131.567013,62.3903631 131.469614,62.2179553 C131.373121,62.0423799 131.238121,61.9097933 131.064614,61.8161229 C130.892919,61.722 130.716242,61.6753911 130.534581,61.6753911 M129.965587,63.4741341 L129.965587,62.079486 L130.446695,62.079486 C130.609782,62.079486 130.728473,62.0921564 130.801862,62.1193073 C130.875252,62.1451006 130.933691,62.1889944 130.977634,62.2537039 C131.020671,62.3175084 131.042869,62.3853855 131.042869,62.4577877 C131.042869,62.5600559 131.006628,62.6487486 130.933238,62.7238659 C130.861661,62.7989832 130.764262,62.8419721 130.643758,62.8510223 C130.693138,62.8713855 130.73255,62.8971788 130.763356,62.9252346 C130.819983,62.9795363 130.887936,63.0713966 130.96948,63.2012682 L131.139362,63.4741341 L130.864832,63.4741341 L130.741611,63.2546648 C130.644211,63.0818045 130.565839,62.9741061 130.505587,62.9297598 C130.464362,62.8985363 130.404111,62.8822458 130.325738,62.8822458 L130.193003,62.8822458 L130.193003,63.4754916 L129.966493,63.4754916 M130.191191,62.6890223 L130.464815,62.6890223 C130.595285,62.6890223 130.683624,62.6691117 130.731191,62.630648 C130.779211,62.5908268 130.803221,62.5401453 130.803221,62.4758883 C130.803221,62.434257 130.792349,62.3971508 130.769245,62.3654749 C130.745688,62.3324413 130.713977,62.3089106 130.672752,62.2921676 C130.632433,62.2763296 130.557232,62.2672793 130.447601,62.2672793 L130.192097,62.2672793 L130.192097,62.6890223" id="use9412" fill="#FCB340"></path>
                    </g>
                    <g id="g16480" transform="translate(2.718121, 29.865922)">
                        <g id="g13802" transform="translate(0.115951, 0.902268)" fill="#000066">
                            <path d="M51.0639765,21.2346704 L51.5985403,17.6055084 C51.3063423,17.6055084 50.8768792,17.7317598 50.4972483,17.7317598 C49.0095302,17.7317598 48.8237919,16.9375978 48.9406711,16.3574749 L50.4066443,9.05842458 L52.6681208,9.05842458 L53.1342785,4.93918994 L51.0028188,4.93918994 L51.4368121,2.44312291 L46.9781879,2.44312291 C46.8839597,2.53724581 44.4557718,16.4810112 44.4557718,18.1797486 C44.4557718,20.6934637 45.8682886,21.8120782 47.8606711,21.7944302 C49.4199664,21.7813073 50.6354195,21.3500615 51.0639765,21.2346704 L51.0639765,21.2346704 Z" id="path13804"></path>
                            <path d="M52.4171477,14.3166369 C52.4171477,20.3495531 56.4032718,21.7826648 59.8000168,21.7826648 C62.9353691,21.7826648 64.5793792,21.0568324 64.5793792,21.0568324 L65.3322987,16.9389553 C65.3322987,16.9389553 62.6830369,18.0150335 60.5298322,18.0150335 C55.9402852,18.0150335 56.744849,14.596743 56.744849,14.596743 L65.5619799,14.6234413 C65.5619799,14.6234413 66.1232718,11.8581285 66.1232718,10.7309162 C66.1232718,7.91763687 64.5888926,4.46405028 59.8965101,4.46405028 C55.5991611,4.46495531 52.4171477,9.09010056 52.4171477,14.3166369 L52.4171477,14.3166369 Z M59.9128188,8.28688827 C62.324698,8.28688827 61.8798322,10.9947318 61.8798322,11.2142011 L57.1348993,11.2142011 C57.1348993,10.9336425 57.5829362,8.28688827 59.9128188,8.28688827 L59.9128188,8.28688827 Z" id="path13806"></path>
                            <path d="M86.9753356,21.2333128 L87.7404866,16.5796592 C87.7404866,16.5796592 85.6420973,17.6299441 84.2037584,17.6299441 C81.1716946,17.6299441 79.9553356,15.3175978 79.9553356,12.8328436 C79.9553356,7.79319553 82.5638255,5.02018994 85.4676846,5.02018994 C87.6458054,5.02018994 89.393104,6.24152514 89.393104,6.24152514 L90.090755,1.71955307 C90.090755,1.71955307 88.0277013,0.231234637 85.8069966,0.222636872 C79.1272148,0.196391061 75.3050839,4.84189944 75.3050839,12.8726648 C75.3050839,18.1955866 78.1355537,21.8179609 83.2356544,21.8179609 C84.6776174,21.8179609 86.9753356,21.2333128 86.9753356,21.2333128 L86.9753356,21.2333128 Z" id="path13808"></path>
                            <path d="M27.5572148,4.53056983 C24.6266275,4.53056983 22.3805537,5.47134637 22.3805537,5.47134637 L21.7599161,9.14892737 C21.7599161,9.14892737 23.6141275,8.39639665 26.4174161,8.39639665 C28.0088758,8.39639665 29.1731376,8.57513966 29.1731376,9.86706704 C29.1731376,10.6517263 29.0308893,10.9413352 29.0308893,10.9413352 C29.0308893,10.9413352 27.7751174,10.8368045 27.1934396,10.8368045 C23.0211242,10.8368045 19.6148658,12.4124581 19.6148658,17.1629497 C19.6148658,20.9065978 22.162198,21.7650168 23.7409732,21.7650168 C26.7567282,21.7650168 27.9504362,19.8631006 28.0192953,19.8576704 L27.9844128,21.4360391 L31.747651,21.4360391 L33.4265436,9.67972626 C33.4265436,4.69075978 29.070302,4.53056983 27.5572148,4.53056983 L27.5572148,4.53056983 Z M28.2086577,14.0768045 C28.2906544,14.7944916 28.0229195,18.1883464 25.4488591,18.1883464 C24.1215101,18.1883464 23.7767617,17.1747151 23.7767617,16.5764916 C23.7767617,15.4071955 24.412349,14.0048547 27.5436242,14.0048547 C28.2729866,14.0048547 28.0858893,14.0573464 28.2086577,14.0768045 L28.2086577,14.0768045 Z" id="path13810"></path>
                            <path d="M37.4262584,21.6781341 C38.3889262,21.6781341 43.8917617,21.9229441 43.8917617,16.2506816 C43.8917617,10.9467654 38.7980034,11.9952402 38.7980034,9.86389944 C38.7980034,8.80411173 39.6283893,8.47015642 41.1464597,8.47015642 C41.7485235,8.47015642 44.0670805,8.66156983 44.0670805,8.66156983 L44.6057215,4.89212849 C44.6057215,4.89258101 43.1053188,4.55681564 40.6626342,4.55681564 C37.5010067,4.55681564 34.2918121,5.81751955 34.2918121,10.1308827 C34.2918121,15.0189385 39.6428859,14.5279609 39.6428859,16.5868994 C39.6428859,17.9611844 38.1479195,18.0743128 36.9954362,18.0743128 C35.0016946,18.0743128 33.2068289,17.3905642 33.2004866,17.4235978 L32.6301342,21.1545754 C32.7338758,21.1862514 33.8415101,21.6781341 37.4262584,21.6781341 L37.4262584,21.6781341 Z" id="path13812"></path>
                            <path d="M122.228003,1.11092179 L121.455604,6.86192179 C121.455604,6.86192179 119.846023,4.64234078 117.327685,4.64234078 C112.589547,4.64234078 110.147768,9.35889385 110.147768,14.7768436 C110.147768,18.2747765 111.889178,21.7034749 115.447651,21.7034749 C118.007668,21.7034749 119.42698,19.9201173 119.42698,19.9201173 L119.238977,21.4428268 L123.396795,21.4428268 L126.661711,1.14214525 L122.228003,1.11092179 L122.228003,1.11092179 Z M120.392366,12.2884693 C120.392366,14.5433464 119.274312,17.5557318 116.95802,17.5557318 C115.419564,17.5557318 114.698356,16.2656145 114.698356,14.2415196 C114.698356,10.9313799 116.186527,8.748 118.065201,8.748 C119.602752,8.748 120.392366,9.80235754 120.392366,12.2884693 L120.392366,12.2884693 Z" id="path13814"></path>
                            <path d="M4.41649329,21.4595698 L7.01818792,6.13292179 L7.40053691,21.4595698 L10.3447148,21.4595698 L15.8375839,6.13292179 L13.4044128,21.4595698 L17.7796812,21.4595698 L21.1487919,1.13173743 L14.198557,1.0787933 L10.0642953,13.5247374 L9.95104027,1.13173743 L3.58157718,1.13173743 L0.163993289,21.4595698 L4.41649329,21.4595698 L4.41649329,21.4595698 Z" id="path13816"></path>
                            <path d="M70.2638758,21.4885307 C71.5078691,14.4225251 71.9509228,8.84212291 75.5787081,9.99784358 C76.0996812,7.26284916 77.3414094,4.88443575 77.9085906,3.72690503 C77.9085906,3.72690503 77.7291946,3.4603743 76.6079698,3.4603743 C74.6939597,3.4603743 72.1384732,7.34022905 72.1384732,7.34022905 L72.5203691,4.94145251 L68.5401342,4.94145251 L65.8745638,21.4880782 L70.2638758,21.4880782 L70.2638758,21.4885307 Z" id="path13818"></path>
                            <g id="use14699" transform="translate(87.568837, 4.525140)">
                                <path d="M8.35822148,0.0054301676 C5.42627517,0.0054301676 3.18020134,0.946206704 3.18020134,0.946206704 L2.56001678,4.62378771 C2.56001678,4.62378771 4.41513423,3.87125698 7.21706376,3.87125698 C8.80897651,3.87125698 9.97278523,4.05 9.97278523,5.34192737 C9.97278523,6.12658659 9.83098993,6.41619553 9.83098993,6.41619553 C9.83098993,6.41619553 8.57567114,6.3116648 7.99399329,6.3116648 C3.82122483,6.3116648 0.415419463,7.88731844 0.415419463,12.6378101 C0.415419463,16.3814581 2.96229866,17.2398771 4.54107383,17.2398771 C7.55592282,17.2398771 8.75053691,15.3379609 8.81894295,15.3325307 L8.78360738,16.9108994 L12.5477517,16.9108994 L14.2261913,5.15458659 C14.2266443,0.165620112 9.87040268,0.0054301676 8.35822148,0.0054301676 L8.35822148,0.0054301676 Z M9.00875839,9.5516648 C9.09030201,10.269352 8.82256711,13.6632067 6.24895973,13.6632067 C4.9207047,13.6632067 4.5764094,12.6495754 4.5764094,12.051352 C4.5764094,10.8820559 5.21154362,9.47971508 8.34327181,9.47971508 C9.07308725,9.47971508 8.88644295,9.5322067 9.00875839,9.5516648 L9.00875839,9.5516648 Z" id="path13810_1_"></path>
                            </g>
                            <path d="M106.127215,21.4885307 C106.810369,16.2900503 108.074748,8.99190503 111.441594,9.99784358 C111.962114,7.26284916 111.460168,7.27008939 110.339396,7.27008939 C108.424027,7.27008939 108,7.33977654 108,7.33977654 L108.382349,4.941 L104.402567,4.941 L101.736997,21.4880782 L106.127215,21.4880782 L106.127215,21.4885307 L106.127215,21.4885307 Z" id="use14701"></path>
                        </g>
                        <g id="g10289" transform="translate(1.359060, 0.000000)" fill="#FFFFFF">
                            <path d="M50.9348658,20.8423408 L51.4698826,17.2136313 C51.1776846,17.2136313 50.7477685,17.3385251 50.3685906,17.3385251 C48.8808725,17.3385251 48.7168792,16.5484358 48.8115604,15.9642402 L50.0134228,8.5602067 L52.2744463,8.5602067 L52.8203356,4.54640782 L50.6884228,4.54640782 L51.1224161,2.05034078 L46.8486242,2.05034078 C46.754396,2.14446369 44.325755,16.0886816 44.325755,17.786514 C44.325755,20.3002291 45.7387248,21.4197486 47.7311074,21.401648 C49.2913087,21.3885251 50.5063087,20.9572793 50.9348658,20.8423408 L50.9348658,20.8423408 Z" id="path4157"></path>
                            <path d="M52.288943,13.9238547 C52.288943,19.9567709 56.2755201,21.3903352 59.6718121,21.3903352 C62.8067114,21.3903352 64.1861577,20.6902961 64.1861577,20.6902961 L64.9390772,16.5728715 C64.9390772,16.5728715 62.5543792,17.6222514 60.4007215,17.6222514 C55.8116275,17.6222514 56.6152852,14.2044134 56.6152852,14.2044134 L65.3005872,14.2044134 C65.3005872,14.2044134 65.8614262,11.4381955 65.8614262,10.3109832 C65.8614262,7.49815642 64.4597819,4.07081564 59.7673993,4.07081564 C55.4700503,4.07172067 52.288943,8.69686592 52.288943,13.9238547 L52.288943,13.9238547 Z M59.7837081,7.89410615 C62.1955872,7.89410615 61.7507215,10.6014972 61.7507215,10.820514 L57.0057886,10.820514 C57.0057886,10.5408603 57.4542785,7.89410615 59.7837081,7.89410615 L59.7837081,7.89410615 Z" id="path4155"></path>
                            <path d="M86.8471309,20.8405307 L87.6118289,16.1864246 C87.6118289,16.1864246 85.5147987,17.2367095 84.0755537,17.2367095 C81.043943,17.2367095 79.8280369,14.9243631 79.8280369,12.4400615 C79.8280369,7.40041341 82.4365268,4.62786034 85.3403859,4.62786034 C87.5180537,4.62786034 89.2658054,5.84919553 89.2658054,5.84919553 L89.9634564,1.32722346 C89.9634564,1.32722346 87.3717282,0.279653631 85.1501174,0.279653631 C80.2162752,0.279653631 75.4165268,4.55500559 75.4165268,12.5844134 C75.4165268,17.9086927 78.008255,21.4251788 83.1083557,21.4251788 C84.5503188,21.4256313 86.8471309,20.8405307 86.8471309,20.8405307 L86.8471309,20.8405307 Z" id="path4151"></path>
                            <path d="M27.4290101,4.1373352 C24.4984228,4.1373352 22.251896,5.07811173 22.251896,5.07811173 L21.6317114,8.75569274 C21.6317114,8.75569274 23.4859228,8.00316201 26.2887584,8.00316201 C27.8802181,8.00316201 29.0444799,8.18190503 29.0444799,9.4738324 C29.0444799,10.2584916 28.9017785,10.5481006 28.9017785,10.5481006 C28.9017785,10.5481006 27.6464597,10.4431173 27.0652349,10.4431173 C23.3690436,10.4431173 19.4862081,12.0187709 19.4862081,16.7692626 C19.4862081,20.5124581 22.0335403,21.3713296 23.6123154,21.3713296 C26.6276174,21.3713296 27.9273322,19.4169218 27.9966443,19.4110391 L27.855755,21.042352 L31.6189933,21.042352 L33.2978859,9.28558659 C33.2978859,4.29797765 28.9420973,4.1373352 27.4290101,4.1373352 L27.4290101,4.1373352 Z M28.3445638,13.7098156 C28.4261074,14.4279553 27.8938087,17.7942067 25.3206544,17.7942067 C23.9933054,17.7942067 23.648104,16.7814804 23.648104,16.182352 C23.648104,15.0139609 24.2836913,13.6111676 27.4154195,13.6111676 C28.1438758,13.6120726 28.2217953,13.689905 28.3445638,13.7098156 L28.3445638,13.7098156 Z" id="path4149"></path>
                            <path d="M37.2976007,21.285352 C38.2602685,21.285352 43.763557,21.5297095 43.763557,15.8574469 C43.763557,10.5544358 38.6693456,11.6020056 38.6693456,9.47156983 C38.6693456,8.41087709 39.4997315,8.07692179 41.017349,8.07692179 C41.6198658,8.07692179 43.9379698,8.2683352 43.9379698,8.2683352 L44.4770638,4.49889385 C44.4770638,4.49934637 42.9766611,4.16358101 40.5339765,4.16358101 C37.372349,4.16358101 34.1631544,5.42428492 34.1631544,9.73764804 C34.1631544,14.6252514 39.5142282,14.1347263 39.5142282,16.1936648 C39.5142282,17.5679497 38.0192617,17.6797207 36.8672315,17.6797207 C34.8734899,17.6797207 33.0781711,16.9964246 33.0718289,17.0290056 L32.5019295,20.7604358 C32.6052181,20.7921117 33.7123993,21.285352 37.2976007,21.285352 L37.2976007,21.285352 Z" id="path4145"></path>
                            <path d="M122.248389,0.754793296 L121.326493,6.46868715 C121.326493,6.46868715 119.717819,4.24910615 117.19948,4.24910615 C113.283574,4.24910615 110.019564,8.9652067 110.019564,14.3840615 C110.019564,17.8819944 111.76052,21.3093352 115.319446,21.3093352 C117.879463,21.3093352 119.298775,19.5264302 119.298775,19.5264302 L119.110772,21.0491397 L123.267685,21.0491397 L126.532601,0.748005587 L122.248389,0.754793296 L122.248389,0.754793296 Z M120.263708,11.8956872 C120.263708,14.1505642 119.146107,17.1624972 116.828909,17.1624972 C115.290906,17.1624972 114.570151,15.8728324 114.570151,13.8487374 C114.570151,10.5390503 116.058322,8.35521788 117.936091,8.35521788 C119.474547,8.35476536 120.263708,9.41048045 120.263708,11.8956872 L120.263708,11.8956872 Z" id="path4139"></path>
                            <path d="M4.28828859,21.0667877 L6.88998322,5.74013966 L7.27187919,21.0667877 L10.2165101,21.0667877 L15.7093792,5.74013966 L13.2762081,21.0667877 L17.6514765,21.0667877 L21.0210403,0.738502793 L14.2551846,0.738502793 L10.0416443,13.2111453 L9.82238255,0.738502793 L3.58565436,0.738502793 L0.16761745,21.0667877 L4.28828859,21.0667877 L4.28828859,21.0667877 Z" id="path4133"></path>
                            <path d="M70.1356711,21.0948436 C71.3796644,14.0283855 71.6102517,8.29050838 74.5788926,9.3407933 C75.0985067,6.60579888 75.6,5.54782123 76.1671812,4.3902905 C76.1671812,4.3902905 75.9012584,4.33463128 75.3431376,4.33463128 C73.4291275,4.33463128 72.0111745,6.9465419 72.0111745,6.9465419 L72.3921644,4.54776536 L68.4128356,4.54776536 L65.7468121,21.0948436 L70.1356711,21.0948436 L70.1356711,21.0948436 Z" id="path4131"></path>
                            <g id="use8523" transform="translate(88.341735, 4.072626)">
                                <path d="M8.36682886,0.0647094972 C5.43624161,0.0647094972 3.18971477,1.00548603 3.18971477,1.00548603 L2.56998322,4.68306704 C2.56998322,4.68306704 4.42419463,3.93053631 7.2270302,3.93053631 C8.81848993,3.93053631 9.98184564,4.10927933 9.98184564,5.4012067 C9.98184564,6.18586592 9.84005034,6.47547486 9.84005034,6.47547486 C9.84005034,6.47547486 8.58473154,6.37049162 8.00305369,6.37049162 C4.30731544,6.37049162 0.424479866,7.94614525 0.424479866,12.6966369 C0.424479866,16.4398324 2.97135906,17.2987039 4.55013423,17.2987039 C7.56543624,17.2987039 8.86515101,15.3442961 8.93401007,15.3384134 L8.79402685,16.9697263 L12.5572651,16.9697263 L14.2357047,5.21296089 C14.2361577,0.225351955 9.87991611,0.0647094972 8.36682886,0.0647094972 L8.36682886,0.0647094972 Z M9.28374161,9.63718994 C9.36528523,10.3553296 8.83253356,13.721581 6.25847315,13.721581 C4.93112416,13.721581 4.58682886,12.7088547 4.58682886,12.1097263 C4.58682886,10.9413352 5.22241611,9.5385419 8.35369128,9.5385419 C9.08214765,9.53944693 9.15961409,9.61727933 9.28374161,9.63718994 L9.28374161,9.63718994 Z" id="path4149_1_"></path>
                            </g>
                            <g id="use8525" transform="translate(101.605938, 4.072626)">
                                <path d="M4.41105705,17.0222179 C5.65550336,9.95575978 5.8860906,4.21788268 8.8538255,5.2681676 C9.37434564,2.53317318 9.87629195,1.47519553 10.4430201,0.317664804 C10.4430201,0.317664804 10.1770973,0.262005587 9.61897651,0.262005587 C7.70496644,0.262005587 6.28701342,2.8739162 6.28701342,2.8739162 L6.66800336,0.475139665 L2.6886745,0.475139665 L0.0226510067,17.0222179 L4.41105705,17.0222179 L4.41105705,17.0222179 Z" id="path4131_1_"></path>
                            </g>
                            <path d="M126.440185,18.5417598 C126.657181,18.5417598 126.871007,18.597419 127.077131,18.7105475 C127.285067,18.8200559 127.446795,18.9811508 127.562768,19.1897598 C127.679195,19.3970112 127.736275,19.6128603 127.736275,19.8386648 C127.736275,20.0617542 127.679195,20.2771508 127.564581,20.4830447 C127.450872,20.6889385 127.290956,20.850486 127.084832,20.964067 C126.879161,21.0771955 126.663523,21.1342123 126.439732,21.1342123 C126.214128,21.1342123 125.99849,21.0771955 125.792366,20.964067 C125.586695,20.849581 125.427232,20.6889385 125.31307,20.4830447 C125.197097,20.2771508 125.14047,20.0617542 125.14047,19.8386648 C125.14047,19.6128603 125.198003,19.3970112 125.31443,19.1897598 C125.431309,18.9811508 125.59349,18.8209609 125.80052,18.7105475 C126.009362,18.597419 126.223188,18.5417598 126.440185,18.5417598 M126.440185,18.7553464 C126.258523,18.7553464 126.08094,18.8024078 125.907433,18.8969832 C125.734379,18.9892961 125.599832,19.1227877 125.502433,19.2974581 C125.405487,19.4698659 125.35656,19.650419 125.35656,19.8377598 C125.35656,20.0251006 125.403674,20.2042961 125.498356,20.3753464 C125.594849,20.5459441 125.728943,20.6798883 125.901997,20.7762737 C126.073238,20.8703966 126.252181,20.9179106 126.440185,20.9179106 C126.626829,20.9179106 126.807131,20.8703966 126.978372,20.7762737 C127.149614,20.6798883 127.283708,20.5459441 127.378842,20.3753464 C127.47443,20.2029385 127.521091,20.0251006 127.521091,19.8377598 C127.521091,19.650419 127.472617,19.4698659 127.375671,19.2974581 C127.279178,19.1227877 127.144631,18.9892961 126.970671,18.8969832 C126.798523,18.8028603 126.622299,18.7553464 126.440185,18.7553464 M125.871644,20.5545419 L125.871644,19.1594413 L126.352299,19.1594413 C126.515839,19.1594413 126.635436,19.1725642 126.707919,19.1992626 C126.781309,19.2241508 126.838842,19.2689497 126.883691,19.3336592 C126.927634,19.3979162 126.949832,19.4653408 126.949832,19.537743 C126.949832,19.6395587 126.912685,19.7287039 126.839295,19.8038212 C126.767718,19.8789385 126.671225,19.9223799 126.550721,19.9305251 C126.598742,19.9513408 126.638607,19.9762291 126.669413,20.0042849 C126.725134,20.0594916 126.793993,20.1518045 126.875537,20.2807709 L127.046326,20.5540894 L126.770436,20.5540894 L126.647668,20.3346201 C126.549815,20.1613073 126.471443,20.0536089 126.411644,20.0097151 C126.370419,19.9775866 126.310168,19.9617486 126.230889,19.9617486 L126.09906,19.9617486 L126.09906,20.5549944 L125.871644,20.5545419 M126.097248,19.7694302 L126.370872,19.7694302 C126.501795,19.7694302 126.590134,19.7499721 126.637248,19.7110559 C126.684815,19.6730447 126.709732,19.6210056 126.709732,19.5562961 C126.709732,19.5151173 126.698406,19.4780112 126.675755,19.4467877 C126.652651,19.4133017 126.620487,19.3893184 126.579262,19.3725754 C126.538037,19.3567374 126.464195,19.3485922 126.353658,19.3485922 L126.097701,19.3485922 L126.097701,19.7694302" id="text9407"></path>
                        </g>
                    </g>
                </g>
            </g>
        </g>
    </g>
</svg>