<?xml version="1.0" encoding="UTF-8"?>
<svg width="158px" height="30px" viewBox="0 0 158 30" version="1.1" xmlns="http://www.w3.org/2000/svg" xmlns:xlink="http://www.w3.org/1999/xlink">
    <!-- Generator: Sketch 48.2 (47327) - http://www.bohemiancoding.com/sketch -->
    <title>wallet_logo</title>
    <desc>Created with Sketch.</desc>
    <defs></defs>
    <g id="Page-2" stroke="none" stroke-width="1" fill="none" fill-rule="evenodd">
        <g id="wallet_logo">
            <g id="Group-2">
                <rect id="Rectangle-19" fill-opacity="0" fill="#FFFFFF" x="0" y="0" width="158" height="30"></rect>
                <g id="Group-28" transform="translate(4.000000, 5.000000)">
                    <path d="M10.7641605,14.0284212 C12.1347751,14.0284212 13.6217653,14.4958773 15.2676933,15.9469606 C15.4325837,16.092365 15.6520904,15.91172 15.5083321,15.731223 C13.8908284,13.6992622 12.3947603,13.312208 10.9027102,12.985122 C9.07775406,12.5850376 8.13900962,11.5633566 7.48480534,10.4415804 C7.35458952,10.2182912 7.29625283,10.2576778 7.2844962,10.5444888 C7.27020966,10.8954141 7.29446701,11.3597607 7.37348941,11.8165558 C7.29982446,11.8199614 7.22571306,11.8189249 7.15130402,11.8189249 C4.54043962,11.8189249 2.42394889,9.71307736 2.42394889,7.11534223 C2.42394889,4.51760709 4.54043962,2.41175957 7.15130402,2.41175957 C9.76216841,2.41175957 11.878808,4.51760709 11.878808,7.11534223 C11.878808,7.30013323 11.8697301,7.48285127 11.8488955,7.6621637 C11.5034888,7.60027055 10.8241342,7.59331128 10.3474699,7.63432659 C10.1681441,7.64972584 10.1932944,7.73279295 10.3288677,7.75722445 C11.8916063,8.03811271 12.9653288,9.00175043 13.2107298,10.7503057 C13.2163849,10.7905807 13.2692153,10.8025743 13.2901986,10.767778 C13.9332416,9.70019529 14.302608,8.45063494 14.302608,7.11534223 C14.302608,3.18571998 11.1009359,-1.13686838e-12 7.15130402,-1.13686838e-12 C3.20182099,-1.13686838e-12 0,3.18571998 0,7.11534223 C0,11.0451125 3.20182099,14.2311287 7.15130402,14.2311287 C8.19913212,14.2311287 9.23862641,14.0284212 10.7641605,14.0284212 Z M11.2964828,11.4449008 C11.6146559,11.7126108 11.7115364,12.0308127 11.5432232,12.2552863 C11.4496166,12.3783323 11.297971,12.4461482 11.1161153,12.4461482 C10.9375336,12.4461482 10.7556779,12.3804053 10.6294802,12.2708337 C10.3401778,12.0192632 10.2552027,11.6114792 10.4440529,11.3797501 C10.5178666,11.2891314 10.637814,11.2392319 10.7815723,11.2392319 C10.9561359,11.2392319 11.1390333,11.3123784 11.2964828,11.4449008 Z M12.7645732,10.7652608 C12.8113021,11.0770956 12.7121892,11.2062124 12.6127787,11.2062124 C12.5042904,11.2062124 12.3681218,11.0797609 12.2073983,10.8304115 C12.048907,10.5841715 11.990868,10.3016545 12.0694439,10.1589153 C12.1213814,10.0644468 12.2300186,10.0234315 12.3670801,10.0749597 C12.6324227,10.1747587 12.7365954,10.5789891 12.7645732,10.7652608 Z M22.6776431,9.13575353 L21.853191,8.149165 C21.7668765,8.04566426 21.8408391,7.88885843 21.9759659,7.88885843 L23.7007674,7.88885843 C23.782915,7.64557989 23.8293462,7.38571753 23.8293462,7.11578644 C23.8293462,5.8798485 22.9047395,4.81419074 21.6357677,4.81419074 C20.366796,4.81419074 19.4421892,5.8798485 19.4421892,7.11578644 C19.4421892,8.35172437 20.366796,9.40227902 21.6357677,9.40227902 C22.0203137,9.40227902 22.3725661,9.30455301 22.6776431,9.13575353 Z M26.4080659,10.8031666 C26.4976544,10.9017811 26.4241383,11.0605118 26.2891603,11.0605118 L24.4069092,11.0605118 C24.3304167,11.0605118 24.2576447,11.0266038 24.2086835,10.9679682 L23.8896176,10.5862445 C23.2398778,11.0054299 22.4661726,11.250041 21.6357677,11.250041 C19.3445646,11.250041 17.4806181,9.39546781 17.4806181,7.11578644 C17.4806181,4.83610506 19.3445646,2.98138377 21.6357677,2.98138377 C23.9269709,2.98138377 25.7909174,4.83610506 25.7909174,7.11578644 C25.7909174,7.93757337 25.5477486,8.70338995 25.1306115,9.34764129 L26.4080659,10.8031666 Z M43.7956728,3.17165336 L42.2595726,3.17165336 C42.1467684,3.17165336 42.0552453,3.26271624 42.0552453,3.37510115 L42.0552453,10.8564717 C42.0552453,10.9687086 42.1467684,11.0597714 42.2595726,11.0597714 L43.7956728,11.0597714 C43.9084769,11.0597714 44,10.9687086 44,10.8564717 L44,3.37510115 C44,3.26271624 43.9084769,3.17165336 43.7956728,3.17165336 Z M41.2108515,3.17165336 L39.4921515,3.17165336 C39.4022654,3.17165336 39.3229454,3.22969669 39.2967534,3.31454064 L37.936705,7.73575434 L36.4419762,3.30965434 C36.4141472,3.22732757 36.3361665,3.17165336 36.248215,3.17165336 L35.0488901,3.17165336 C34.9609386,3.17165336 34.8828091,3.22732757 34.8549802,3.30965434 L33.3602514,7.73575434 L32.0002029,3.31454064 C31.974011,3.22969669 31.8946909,3.17165336 31.8048048,3.17165336 L30.0861048,3.17165336 C30.020476,3.17165336 29.9587165,3.20289607 29.9203214,3.25546082 C29.8819264,3.30802557 29.8715091,3.37569343 29.8923436,3.43714236 L32.4165959,10.9226589 C32.4444249,11.0049856 32.5225544,11.0605118 32.6105059,11.0605118 L33.9745724,11.0605118 C34.0625239,11.0605118 34.1405046,11.0049856 34.1684824,10.922807 L35.6484782,6.54956783 L37.128474,10.922807 C37.1564518,11.0049856 37.2344324,11.0605118 37.3223839,11.0605118 L38.6864505,11.0605118 C38.7744019,11.0605118 38.8525314,11.0049856 38.8803604,10.9226589 L41.4046127,3.43714236 C41.4254472,3.37569343 41.4150299,3.30802557 41.3766349,3.25546082 C41.3382398,3.20289607 41.2764803,3.17165336 41.2108515,3.17165336 Z M29.241711,3.37510115 L29.241711,10.8564717 C29.241711,10.9687086 29.1501879,11.0597714 29.0373838,11.0597714 L27.5012836,11.0597714 C27.3884795,11.0597714 27.2969563,10.9687086 27.2969563,10.8564717 L27.2969563,3.37510115 C27.2969563,3.26271624 27.3884795,3.17165336 27.5012836,3.17165336 L29.0373838,3.17165336 C29.1501879,3.17165336 29.241711,3.26271624 29.241711,3.37510115 Z" id="qiwi_logo_rgb_small" fill="#F4892E"></path>
                    <path d="M91.6270808,3.92702833 C91.9289343,3.64357412 92.287702,3.50927376 92.7328838,3.50927376 C93.1923687,3.50927376 93.5943434,3.67359056 93.881596,3.95673533 C94.1977525,4.28475002 94.3696869,4.76222802 94.3696869,5.3436805 C94.3696869,5.3436805 94.3696869,10.4585437 94.3696869,10.5779905 C94.2692677,10.5779905 93.4796212,10.5779905 93.379202,10.5779905 C93.379202,10.4585437 93.379202,5.3436805 93.379202,5.3436805 C93.379202,5.04537279 93.3073889,4.8364955 93.1637626,4.68734165 C93.0201364,4.56820424 92.847904,4.5381878 92.7328838,4.5381878 C92.5752525,4.5381878 92.0868636,4.59791123 92.0868636,5.3436805 C92.0868636,5.3436805 92.0868636,10.4585437 92.0868636,10.5779905 C91.9861465,10.5779905 91.1965,10.5779905 91.0957828,10.5779905 C91.0957828,10.4585437 91.0957828,5.3436805 91.0957828,5.3436805 C91.0957828,5.04537279 91.0242677,4.8364955 90.8803434,4.68734165 C90.7370152,4.56820424 90.5644848,4.5381878 90.4497626,4.5381878 C90.2918333,4.5381878 89.8034444,4.59791123 89.8034444,5.3436805 C89.8034444,5.3436805 89.8034444,10.4585437 89.8034444,10.5779905 C89.7030253,10.5779905 88.9133788,10.5779905 88.8126616,10.5779905 C88.8126616,10.4585437 88.8126616,5.3436805 88.8126616,5.3436805 C88.8126616,4.22533604 89.4589798,3.50927376 90.4497626,3.50927376 C90.8803434,3.50927376 91.2251061,3.62872063 91.5409646,3.92702833 L91.5838737,3.95673533 L91.6270808,3.92702833 Z M98.8504091,5.92513297 C99.367404,6.50689488 99.4675253,7.32724108 99.4675253,7.96810753 C99.4675253,8.59442994 99.367404,9.41508558 98.8504091,9.99653805 C98.5202475,10.3542597 97.9743485,10.6674209 97.2276111,10.6674209 C96.5094798,10.6674209 95.9638788,10.3542597 95.6334192,9.99653805 C95.1167222,9.41508558 95.0160051,8.59442994 95.0160051,7.96810753 C95.0160051,7.32724108 95.1167222,6.50689488 95.6334192,5.92513297 C95.9638788,5.56741128 96.5094798,5.25425007 97.2276111,5.25425007 C97.9743485,5.25425007 98.5202475,5.56741128 98.8504091,5.92513297 Z M98.4624394,8.19214776 L98.4624394,7.72952326 C98.4624394,7.23781066 98.4624394,6.68575573 98.1033737,6.2980176 C97.9597475,6.1343197 97.687096,5.93998646 97.2276111,5.93998646 C96.7967323,5.93998646 96.5240808,6.1343197 96.3801566,6.2980176 C96.0210909,6.68575573 96.0210909,7.23781066 96.0210909,7.72952326 L96.0210909,8.19214776 C96.0210909,8.68386036 96.0210909,9.23591529 96.3801566,9.63850691 C96.5240808,9.78766077 96.7967323,9.98168456 97.2276111,9.98168456 C97.687096,9.98168456 97.9597475,9.78766077 98.1033737,9.63850691 C98.4624394,9.23591529 98.4624394,8.68386036 98.4624394,8.19214776 Z M100.286076,5.3436805 L101.119227,5.35853399 L101.119227,5.82084905 C101.363273,5.6419882 101.578414,5.50768784 101.823056,5.41825742 C102.124611,5.28395706 102.339753,5.25425007 102.641308,5.25425007 C103.072187,5.25425007 103.517071,5.3436805 103.876136,5.76143506 C104.220899,6.17888019 104.292712,6.67121168 104.292712,7.0886568 L104.292712,10.563137 L103.373444,10.563137 L103.373444,7.01377043 C103.373444,6.16402669 102.857045,5.93998646 102.425869,5.93998646 C101.99499,5.93998646 101.550106,6.1343197 101.191338,6.47687845 L101.191338,10.563137 L100.286076,10.563137 L100.286076,5.3436805 Z M108.787439,9.54907649 L109.074692,10.160236 C108.916465,10.2499758 108.672419,10.3691132 108.45698,10.4585437 C108.055303,10.622551 107.65303,10.6674209 107.279662,10.6674209 C106.44651,10.6674209 105.858,10.3242433 105.52754,9.92165168 C105.010843,9.32565516 104.924429,8.46043903 104.924429,7.87867711 C104.924429,7.35663862 104.981939,6.55176482 105.499232,5.93998646 C105.814793,5.56741128 106.331788,5.25425007 107.035318,5.25425007 C107.667333,5.25425007 108.170025,5.50768784 108.500187,5.88026303 C109.002879,6.43200851 109.031485,7.11836379 109.031485,7.95356349 L109.031485,8.19214776 L105.929813,8.19214776 L105.929813,8.32613867 C105.929813,8.95277053 106.116348,9.31049222 106.288581,9.48935306 C106.518621,9.75795378 106.9495,9.92165168 107.42299,9.92165168 C107.71054,9.92165168 107.925682,9.87740064 108.198631,9.78766077 C108.428374,9.71308384 108.614909,9.63850691 108.787439,9.54907649 Z M105.929813,7.38696451 L105.929813,7.50610192 L108.055303,7.50610192 L108.055303,7.28237114 C108.055303,6.92434001 108.055303,6.52174838 107.724843,6.19373368 C107.53801,5.99970989 107.279662,5.93998646 107.021015,5.93998646 C106.633343,5.93998646 106.403601,6.11915675 106.260273,6.2831641 C106.116348,6.44717145 105.929813,6.79003965 105.929813,7.38696451 Z M114,5.35853399 L112.032737,11.5026206 C111.960924,11.7712214 111.774389,12.2183735 111.558949,12.4718112 C111.300303,12.7701189 110.955838,12.9044193 110.567869,12.9044193 C110.294919,12.9044193 110.036869,12.8446959 109.778222,12.695542 C109.620591,12.5909487 109.462066,12.4866647 109.361646,12.3675273 L109.792525,11.8006189 C109.864338,11.8755053 109.964758,11.9500822 110.051172,12.0091867 C110.194798,12.0992361 110.367328,12.1437965 110.52496,12.1437965 C110.797909,12.1437965 110.970141,11.9949521 111.056258,11.8755053 C111.156677,11.7412049 111.257096,11.4283532 111.329207,11.2343294 L111.444227,10.8165748 L109.333338,5.35853399 L110.323823,5.35853399 L111.587258,8.62444638 C111.716879,8.93729813 111.846202,9.41508558 111.874808,9.54907649 L111.917717,9.54907649 C112.075646,8.92275409 112.147758,8.71356735 112.277081,8.32613867 L113.181449,5.35853399 L114,5.35853399 Z M75.3570859,10.2648293 C75.0412273,10.53343 74.6824596,10.6822744 74.2372778,10.6822744 C73.792096,10.6822744 73.3755202,10.5182671 73.0885657,10.2199594 C72.7724091,9.89194469 72.6001768,9.41508558 72.6001768,8.84817716 C72.6001768,8.84817716 72.6001768,3.71815105 72.6001768,3.61386713 C72.700596,3.61386713 73.5048434,3.61386713 73.6052626,3.61386713 C73.6052626,3.71815105 73.6052626,8.84817716 73.6052626,8.84817716 C73.6052626,9.13163137 73.6770758,9.3550527 73.820702,9.48935306 C73.9500253,9.62365342 74.1222576,9.63850691 74.2372778,9.63850691 C74.3952071,9.63850691 74.883298,9.59363698 74.883298,8.84817716 C74.883298,8.84817716 74.883298,3.71815105 74.883298,3.61386713 C74.9837172,3.61386713 75.7879646,3.61386713 75.8886818,3.61386713 C75.8886818,3.71815105 75.8886818,8.84817716 75.8886818,8.84817716 C75.8886818,9.13163137 75.960197,9.3550527 76.1038232,9.48935306 C76.2331465,9.62365342 76.4053788,9.63850691 76.535,9.63850691 C76.6783283,9.63850691 77.1667172,9.59363698 77.1667172,8.84817716 C77.1667172,8.84817716 77.1667172,3.71815105 77.1667172,3.61386713 C77.2671364,3.61386713 78.0710859,3.61386713 78.171803,3.61386713 C78.171803,3.71815105 78.171803,8.84817716 78.171803,8.84817716 C78.171803,9.95135867 77.5254848,10.6822744 76.535,10.6822744 C76.0895202,10.6822744 75.7590606,10.5482835 75.429197,10.2648293 L75.3859899,10.2199594 L75.3570859,10.2648293 Z M82.7815505,9.54907649 L83.0685051,10.1453825 C82.9105758,10.2348129 82.6808333,10.3691132 82.4653939,10.4436902 C82.0488182,10.6076975 81.6614444,10.6674209 81.2880758,10.6674209 C80.4549242,10.6674209 79.8807172,10.3096993 79.5359545,9.92165168 C79.0189596,9.32565516 78.9471465,8.46043903 78.9471465,7.87867711 C78.9471465,7.37149212 78.9903535,6.56661832 79.5216515,5.93998646 C79.8378081,5.58226477 80.3545051,5.26910357 81.0294293,5.26910357 C81.6754495,5.26910357 82.1784394,5.52254134 82.508601,5.88026303 C82.9969899,6.43200851 83.025596,7.11836379 83.025596,7.95356349 L83.025596,8.19214776 L79.9525303,8.19214776 L79.9525303,8.32613867 C79.9525303,8.95277053 80.1390657,9.31049222 80.2969949,9.48935306 C80.5267374,9.75795378 80.9576162,9.92165168 81.431702,9.92165168 C81.7186566,9.92165168 81.9343939,9.87740064 82.2070455,9.78766077 C82.4367879,9.71308384 82.6236212,9.62365342 82.7815505,9.54907649 Z M79.9525303,7.38696451 L79.9525303,7.50610192 L82.0634192,7.50610192 L82.0634192,7.29722464 C82.0634192,6.92434001 82.0634192,6.52174838 81.7332576,6.20858718 C81.5464242,6.01456339 81.2880758,5.93998646 81.0294293,5.93998646 C80.6417576,5.93998646 80.4120152,6.1343197 80.2826919,6.2831641 C80.1247626,6.4623344 79.9525303,6.79003965 79.9525303,7.38696451 Z M87.2902828,5.79114206 C87.9798081,6.40230152 88.0227172,7.37149212 88.0227172,7.93840054 C88.0227172,8.53501596 87.936601,9.26531283 87.5200253,9.84707475 C87.0033283,10.5482835 86.284899,10.6674209 85.753899,10.6674209 C85.0360657,10.6674209 84.4040505,10.4436902 83.8727525,10.115366 L83.8727525,3.47956677 L84.7774192,3.47956677 L84.7774192,5.52254134 C84.9353485,5.46281791 85.1221818,5.38824098 85.2655101,5.3436805 C85.4380404,5.31366406 85.6820859,5.26910357 85.9118283,5.26910357 C86.4288232,5.26910357 86.9312172,5.46281791 87.2902828,5.79114206 Z M85.739298,5.93998646 L84.7774192,6.25314766 L84.7774192,9.66821391 C84.9067424,9.74310028 85.0649697,9.83222126 85.193697,9.87740064 C85.3659293,9.92165168 85.5959697,9.98168456 85.782803,9.98168456 C86.299798,9.98168456 86.6010556,9.74310028 86.7446818,9.54907649 C86.8740051,9.3550527 87.0176313,8.99733101 87.0176313,8.11726139 L87.0176313,7.67010927 C87.0176313,7.20748477 87.0176313,6.67121168 86.7017727,6.31318054 C86.4720303,6.05943332 86.0983636,5.93998646 85.739298,5.93998646 Z" id="WebMoney" fill="#3685E4"></path>
                    <g id="Group" transform="translate(56.000000, 0.000000)" fill="#3685E4">
                        <path d="M6.74071275,0 C7.79876452,0 8.80101957,0.237346485 9.69376705,0.659491345 C9.8337803,0.723605067 9.97379356,0.794255875 10.1140676,0.871695194 L9.49378535,1.40748477 L8.56140657,0.477961512 L6.98788699,1.83138961 L6.05316162,0.847558263 L3.12226957,3.39576443 L5.00162816,5.39234117 L4.26297348,6.01864423 L6.11391225,8.01899236 L5.37969003,8.64353544 L8.02455871,11.4823905 L9.59442803,10.0884827 L10.9515398,11.5822067 C10.6819426,11.784605 10.3875758,11.9749347 10.0637462,12.151436 C9.08208902,12.690997 7.94764268,13 6.74071275,13 C3.02788447,13 0,10.0799342 0,6.49987429 C0,2.91981433 3.02788447,0 6.74071275,0" id="Fill-2"></path>
                        <polyline id="Fill-3" points="5.51214205 6.08904361 7.11486364 4.6973987 8.55827778 6.24291655 6.95529545 7.63481288 5.51214205 6.08904361"></polyline>
                        <polyline id="Fill-4" points="6.65206376 8.75994585 8.25504609 7.36830094 9.69819949 8.91407021 8.09521717 10.3059665 6.65206376 8.75994585"></polyline>
                        <polyline id="Fill-5" points="4.36491982 3.44956967 5.96790215 2.05792477 7.41105556 3.60344261 5.80807323 4.99533894 4.36491982 3.44956967"></polyline>
                        <polyline id="Fill-6" points="7.30650189 2.70082197 8.5084779 1.65689972 9.59103851 2.81622667 8.38880177 3.86014892 7.30650189 2.70082197"></polyline>
                        <polyline id="Fill-7" points="9.44268182 7.48119137 10.6446578 6.43752055 11.7272184 7.5968475 10.5249817 8.64076975 9.44268182 7.48119137"></polyline>
                        <polyline id="Fill-8" points="10.4996907 9.82272507 11.7019274 8.77880282 12.784488 9.93812977 11.5822513 10.9818006 10.4996907 9.82272507"></polyline>
                        <polyline id="Fill-9" points="10.984392 4.4560294 11.7858832 3.76033266 12.5075903 4.53321729 11.7058384 5.22891403 10.984392 4.4560294"></polyline>
                        <polyline id="Fill-10" points="9.96023548 2.16000387 10.7614659 1.4640557 11.483173 2.23694033 10.6816818 2.9328885 9.96023548 2.16000387"></polyline>
                        <polyline id="Fill-11" points="12.0088093 6.75230635 12.8100398 6.05635819 13.5317468 6.82949425 12.7302557 7.52519099 12.0088093 6.75230635"></polyline>
                        <polyline id="Fill-12" points="8.41461427 5.03154434 9.61659028 3.98787351 10.6991509 5.14720046 9.49717487 6.19087129 8.41461427 5.03154434"></polyline>
                    </g>
                </g>
            </g>
        </g>
    </g>
</svg>